<svg width="26" height="26" viewBox="0 0 26 26" fill="none" xmlns="http://www.w3.org/2000/svg">
<path fill-rule="evenodd" clip-rule="evenodd" d="M13 19.5C16.5898 19.5 19.5 16.5898 19.5 13C19.5 9.41015 16.5898 6.5 13 6.5C9.41015 6.5 6.5 9.41015 6.5 13C6.5 16.5898 9.41015 19.5 13 19.5ZM13 17.3333C15.3932 17.3333 17.3333 15.3932 17.3333 13C17.3333 10.6068 15.3932 8.66667 13 8.66667C10.6068 8.66667 8.66667 10.6068 8.66667 13C8.66667 15.3932 10.6068 17.3333 13 17.3333Z" fill="#E5E5E5"/>
<path d="M19.5001 5.41675C18.9018 5.41675 18.4167 5.90178 18.4167 6.50008C18.4167 7.09838 18.9018 7.58341 19.5001 7.58341C20.0984 7.58341 20.5834 7.09838 20.5834 6.50008C20.5834 5.90178 20.0984 5.41675 19.5001 5.41675Z" fill="#E5E5E5"/>
<path fill-rule="evenodd" clip-rule="evenodd" d="M1.79171 4.63232C1.08325 6.02274 1.08325 7.84292 1.08325 11.4833V14.5166C1.08325 18.1569 1.08325 19.9771 1.79171 21.3675C2.41489 22.5906 3.40926 23.585 4.63232 24.2081C6.02274 24.9166 7.84292 24.9166 11.4833 24.9166H14.5166C18.1569 24.9166 19.9771 24.9166 21.3675 24.2081C22.5906 23.585 23.585 22.5906 24.2081 21.3675C24.9166 19.9771 24.9166 18.1569 24.9166 14.5166V11.4833C24.9166 7.84292 24.9166 6.02274 24.2081 4.63232C23.585 3.40926 22.5906 2.41489 21.3675 1.79171C19.9771 1.08325 18.1569 1.08325 14.5166 1.08325H11.4833C7.84292 1.08325 6.02274 1.08325 4.63232 1.79171C3.40926 2.41489 2.41489 3.40926 1.79171 4.63232ZM14.5166 3.24992H11.4833C9.62733 3.24992 8.36569 3.25161 7.39051 3.33128C6.4406 3.40889 5.95483 3.54956 5.61596 3.72222C4.80059 4.13768 4.13768 4.80059 3.72222 5.61596C3.54956 5.95483 3.40889 6.4406 3.33128 7.39051C3.25161 8.36569 3.24992 9.62733 3.24992 11.4833V14.5166C3.24992 16.3726 3.25161 17.6341 3.33128 18.6093C3.40889 19.5593 3.54956 20.0451 3.72222 20.3839C4.13768 21.1992 4.80059 21.8621 5.61596 22.2776C5.95483 22.4503 6.4406 22.591 7.39051 22.6686C8.36569 22.7482 9.62733 22.7499 11.4833 22.7499H14.5166C16.3726 22.7499 17.6341 22.7482 18.6093 22.6686C19.5593 22.591 20.0451 22.4503 20.3839 22.2776C21.1992 21.8621 21.8621 21.1992 22.2776 20.3839C22.4503 20.0451 22.591 19.5593 22.6686 18.6093C22.7482 17.6341 22.7499 16.3726 22.7499 14.5166V11.4833C22.7499 9.62733 22.7482 8.36569 22.6686 7.39051C22.591 6.4406 22.4503 5.95483 22.2776 5.61596C21.8621 4.80059 21.1992 4.13768 20.3839 3.72222C20.0451 3.54956 19.5593 3.40889 18.6093 3.33128C17.6341 3.25161 16.3726 3.24992 14.5166 3.24992Z" fill="#E5E5E5"/>
</svg>
