<svg width="210" height="108" viewBox="0 0 210 108" fill="none" xmlns="http://www.w3.org/2000/svg">
<path d="M67.284 16.0937C77.2254 18.3508 85.9393 24.0148 91.7502 31.9965C97.5611 39.9783 100.059 49.7144 98.763 59.3328C97.4672 68.9512 92.4695 77.7728 84.7307 84.1016C76.9919 90.4303 67.0585 93.8193 56.8403 93.617C46.6221 93.4147 36.8405 89.6353 29.3764 83.0056C21.9122 76.3758 17.2925 67.3637 16.4053 57.7021C15.5182 48.0405 18.4263 38.4114 24.5705 30.6664C30.7147 22.9213 39.6613 17.607 49.69 15.7454L51.1375 22.7396C42.9272 24.2637 35.6028 28.6144 30.5726 34.9552C25.5424 41.2959 23.1616 49.179 23.8879 57.0888C24.6142 64.9986 28.3963 72.3767 34.5071 77.8044C40.6178 83.232 48.6258 86.3262 56.9913 86.4918C65.3567 86.6574 73.4891 83.8829 79.8247 78.7017C86.1603 73.5204 90.2519 66.2983 91.3127 58.4239C92.3735 50.5495 90.3287 42.5787 85.5714 36.0442C80.8142 29.5096 73.6803 24.8726 65.5414 23.0248L67.284 16.0937Z" fill="white"/>
<path d="M113.651 54.1813L98.1673 62.7926L97.8156 46.2429L113.651 54.1813Z" fill="white"/>
<path d="M59.0365 107.392L50.7645 91.6647L67.2273 91.6219L59.0365 107.392Z" fill="white"/>
<path d="M1.89004 54.4525L17.6266 46.3183L17.478 62.8711L1.89004 54.4525Z" fill="white"/>
<rect x="32.3501" y="28.5845" width="50.5179" height="51.7528" rx="25.259" fill="white"/>
<path d="M44.8386 37.5688L61.8009 50.9591L51.4018 58.4987L44.8386 37.5688Z" fill="#174199"/>
<path d="M47.3662 41.0236L59.9717 50.9423L52.214 56.5669L47.3662 41.0236Z" fill="white"/>
<path d="M68.2518 71.3344L51.3374 58.3883L61.7972 50.7183L68.2518 71.3344Z" fill="#174199"/>
<path d="M57.609 0L60.9157 7.89832H54.3023L57.609 0Z" fill="white"/>
<path d="M65.0225 8.72505L57.377 12.2625L57.251 5.4887L65.0225 8.72505Z" fill="white"/>
<path d="M50.3555 8.72453L58.1404 5.52564L57.986 12.2988L50.3555 8.72453Z" fill="white"/>
<path d="M57.6995 16.5896L54.3382 8.71549L60.9514 8.66748L57.6995 16.5896Z" fill="white"/>
<path d="M125.787 40.1985V68.2085H119.865V40.1985H125.787ZM129.593 45.0811V40.1985H152.597V45.0811H144.022V68.2085H138.168V45.0811H129.593ZM156.085 68.2085V64.6936L170.062 45.0811H156.057V40.1985H177.503V43.7134L163.511 63.3259H177.53V68.2085H156.085ZM205.502 40.1985V68.2085H200.387L188.201 50.5792H187.996V68.2085H182.074V40.1985H187.271L199.361 57.8142H199.608V40.1985H205.502Z" fill="white"/>
</svg>
