<svg width="26" height="26" viewBox="0 0 26 26" fill="none" xmlns="http://www.w3.org/2000/svg">
<path d="M21.4256 3.66188C19.0687 1.29938 15.93 0 12.5944 0C5.70937 0 0.106875 5.6025 0.106875 12.4875C0.106875 14.6869 0.680625 16.8356 1.77187 18.7312L0 25.2L6.62062 23.4619C8.44312 24.4575 10.4962 24.9806 12.5887 24.9806H12.5944C19.4737 24.9806 25.2 19.3781 25.2 12.4931C25.2 9.1575 23.7825 6.02437 21.4256 3.66188ZM12.5944 22.8769C10.7269 22.8769 8.89875 22.3762 7.30687 21.4312L6.93 21.2062L3.00375 22.2356L4.05 18.405L3.8025 18.0112C2.76188 16.3575 2.21625 14.4506 2.21625 12.4875C2.21625 6.76687 6.87375 2.10937 12.6 2.10937C15.3731 2.10937 17.9775 3.18938 19.935 5.1525C21.8925 7.11563 23.0962 9.72 23.0906 12.4931C23.0906 18.2194 18.315 22.8769 12.5944 22.8769ZM18.2869 15.1031C18.2869 15.1031 16.4419 14.1975 16.155 14.0906C15.8681 13.9837 15.66 13.9331 15.4519 14.2481C15.2438 14.5631 14.6475 15.2606 14.4619 15.4744C14.2819 15.6825 14.0962 15.7106 13.7869 15.5531C11.9531 14.6362 10.7494 13.9162 9.54 11.8406C9.21937 11.2894 9.86062 11.3288 10.4569 10.1363C10.5581 9.92813 10.5075 9.74812 10.4287 9.59062C10.35 9.43312 9.72562 7.8975 9.46687 7.27312C9.21375 6.66563 8.955 6.75 8.76375 6.73875C8.58375 6.7275 8.37562 6.7275 8.1675 6.7275C7.95937 6.7275 7.62187 6.80625 7.335 7.11562C7.04812 7.43062 6.24375 8.18437 6.24375 9.72C6.24375 11.2556 7.36313 12.7406 7.515 12.9488C7.6725 13.1569 9.71437 16.3069 12.8475 17.6625C14.8275 18.5175 15.6037 18.5906 16.5937 18.4444C17.1956 18.3544 18.4387 17.6906 18.6975 16.9594C18.9562 16.2281 18.9562 15.6037 18.8775 15.4744C18.8044 15.3337 18.5962 15.255 18.2869 15.1031Z" fill="#E5E5E5"/>
</svg>
