<svg width="27" height="27" viewBox="0 0 27 27" fill="none" xmlns="http://www.w3.org/2000/svg">
<path d="M4.5 21.375V6.975C4.5 5.71489 4.5 5.08482 4.74524 4.60352C4.96095 4.18015 5.30515 3.83595 5.72852 3.62024C6.20982 3.375 6.83989 3.375 8.1 3.375H18.9C20.1601 3.375 20.7902 3.375 21.2715 3.62024C21.6948 3.83595 22.0391 4.18015 22.2547 4.60352C22.5 5.08482 22.5 5.71489 22.5 6.975V19.125H6.75C5.50736 19.125 4.5 20.1323 4.5 21.375ZM4.5 21.375C4.5 22.6177 5.50736 23.625 6.75 23.625H22.5M10.125 7.875H16.875M10.125 12.375H16.875M21.375 19.125V23.625" stroke="#666666" stroke-width="2" stroke-linecap="round" stroke-linejoin="round"/>
</svg>
