<svg width="23" height="23" viewBox="0 0 23 23" fill="none" xmlns="http://www.w3.org/2000/svg">
<path d="M1 7.75H21.25M16.75 12.2516L5.5 12.25M9.24996 16.7506L5.5 16.75M5.5 1V3.25M16.75 1V3.25M4.6 21.25H17.65C18.9101 21.25 19.5402 21.25 20.0215 21.0047C20.4448 20.7891 20.7891 20.4448 21.0047 20.0215C21.25 19.5402 21.25 18.9101 21.25 17.65V6.85C21.25 5.58988 21.25 4.95982 21.0047 4.47852C20.7891 4.05515 20.4448 3.71095 20.0215 3.49524C19.5402 3.25 18.9101 3.25 17.65 3.25H4.6C3.33989 3.25 2.70982 3.25 2.22852 3.49524C1.80515 3.71095 1.46095 4.05515 1.24524 4.47852C1 4.95982 1 5.58988 1 6.85V17.65C1 18.9101 1 19.5402 1.24524 20.0215C1.46095 20.4448 1.80515 20.7891 2.22852 21.0047C2.70982 21.25 3.33988 21.25 4.6 21.25Z" stroke="#666666" stroke-width="2" stroke-linecap="round" stroke-linejoin="round"/>
</svg>
