<svg width="27" height="27" viewBox="0 0 27 27" fill="none" xmlns="http://www.w3.org/2000/svg">
<path d="M3.375 10.125H23.625M19.125 14.6266L7.875 14.625M11.625 19.1256L7.875 19.125M7.875 3.375V5.625M19.125 3.375V5.625M6.975 23.625H20.025C21.2851 23.625 21.9152 23.625 22.3965 23.3797C22.8198 23.1641 23.1641 22.8198 23.3797 22.3965C23.625 21.9152 23.625 21.2851 23.625 20.025V9.225C23.625 7.96488 23.625 7.33482 23.3797 6.85352C23.1641 6.43015 22.8198 6.08595 22.3965 5.87024C21.9152 5.625 21.2851 5.625 20.025 5.625H6.975C5.71489 5.625 5.08482 5.625 4.60352 5.87024C4.18015 6.08595 3.83595 6.43015 3.62024 6.85352C3.375 7.33482 3.375 7.96488 3.375 9.225V20.025C3.375 21.2851 3.375 21.9152 3.62024 22.3965C3.83595 22.8198 4.18015 23.1641 4.60352 23.3797C5.08482 23.625 5.71488 23.625 6.975 23.625Z" stroke="#0052FB" stroke-width="2" stroke-linecap="round" stroke-linejoin="round"/>
</svg>
