<svg width="32" height="32" viewBox="0 0 32 32" fill="none" xmlns="http://www.w3.org/2000/svg">
<g clip-path="url(#clip0_521_815)">
<path fill-rule="evenodd" clip-rule="evenodd" d="M16.0002 22.8571C19.7873 22.8571 22.8574 19.7871 22.8574 16C22.8574 12.2129 19.7873 9.14285 16.0002 9.14285C12.2131 9.14285 9.14307 12.2129 9.14307 16C9.14307 19.7871 12.2131 22.8571 16.0002 22.8571ZM20.5716 16C20.5716 18.5247 18.5249 20.5714 16.0002 20.5714C13.4755 20.5714 11.4288 18.5247 11.4288 16C11.4288 13.4753 13.4755 11.4286 16.0002 11.4286C18.5249 11.4286 20.5716 13.4753 20.5716 16Z" fill="#666666"/>
<path fill-rule="evenodd" clip-rule="evenodd" d="M0 14.8567V17.1424C0 18.9118 1.34013 20.368 3.06067 20.5515C3.20672 20.9667 3.37214 21.3727 3.55581 21.7683C2.42839 23.1154 2.49755 25.1246 3.76333 26.3904L5.37957 28.0066C6.61653 29.2435 8.56349 29.3378 9.90861 28.2893C10.405 28.5358 10.9187 28.7531 11.4472 28.9392C11.6307 30.6598 13.087 32 14.8563 32H17.1421C18.911 32 20.367 30.6605 20.551 28.9403C21.0313 28.7714 21.4993 28.5767 21.9533 28.3576C23.2941 29.333 25.1822 29.216 26.3915 28.0066L28.0078 26.3904C29.2171 25.181 29.3342 23.2929 28.3589 21.9521C28.5776 21.4986 28.7722 21.0312 28.941 20.5513C30.6608 20.367 32 18.9111 32 17.1424V14.8567C32 13.088 30.6608 11.6322 28.941 11.4479C28.7549 10.9186 28.5373 10.4043 28.2904 9.90723C29.3381 8.56216 29.2437 6.61586 28.007 5.37921L26.3907 3.76296C25.1253 2.4975 23.1167 2.42806 21.7697 3.55463C21.3734 3.37069 20.9667 3.20504 20.5509 3.05882C20.3665 1.33917 18.9106 0 17.1421 0H14.8563C13.0873 0 11.6312 1.33978 11.4473 3.06C10.9803 3.22434 10.525 3.41318 10.0829 3.62493C8.7365 2.42573 6.67159 2.47173 5.38037 3.76296L3.76411 5.3792C2.47288 6.67045 2.42688 8.73537 3.62611 10.0817C3.41414 10.5243 3.22513 10.9801 3.06067 11.4477C1.34013 11.6312 0 13.0874 0 14.8567ZM18.2849 3.42857C18.2849 2.79739 17.7733 2.28571 17.1421 2.28571H14.8563C14.2251 2.28571 13.7135 2.79739 13.7135 3.42857V3.86593C13.7135 4.40941 13.3287 4.87173 12.8067 5.02334C11.9961 5.25883 11.2226 5.58173 10.4971 5.98112C10.021 6.24322 9.422 6.18835 9.0377 5.80406L8.61285 5.37921C8.16654 4.93289 7.44293 4.93289 6.99661 5.3792L5.38037 6.99545C4.93405 7.44176 4.93405 8.16538 5.38037 8.61169L5.80523 9.03656C6.18953 9.42086 6.2444 10.0198 5.9823 10.4959C5.58269 11.2218 5.25966 11.9958 5.02413 12.807C4.87257 13.329 4.41022 13.7138 3.86667 13.7138H3.42857C2.79739 13.7138 2.28571 14.2256 2.28571 14.8567V17.1424C2.28571 17.7736 2.79739 18.2853 3.42857 18.2853H3.86667C4.41022 18.2853 4.87256 18.6702 5.02413 19.1921C5.24519 19.9536 5.54334 20.6822 5.90954 21.369C6.16231 21.8431 6.10394 22.4335 5.72406 22.8134L5.37957 23.1579C4.93326 23.6042 4.93326 24.3278 5.37957 24.7742L6.99582 26.3904C7.44213 26.8367 8.16575 26.8367 8.61206 26.3904L8.89014 26.1123C9.27885 25.7235 9.88634 25.6723 10.3643 25.9438C11.1279 26.3776 11.9464 26.7259 12.8067 26.9759C13.3287 27.1274 13.7135 27.5898 13.7135 28.1333V28.5714C13.7135 29.2026 14.2251 29.7143 14.8563 29.7143H17.1421C17.7733 29.7143 18.2849 29.2026 18.2849 28.5714V28.1342C18.2849 27.5906 18.6698 27.1282 19.1919 26.9767C20.0037 26.7411 20.7782 26.4179 21.5045 26.0181C21.9806 25.756 22.5795 25.8109 22.9639 26.1952L23.1591 26.3904C23.6054 26.8367 24.329 26.8367 24.7753 26.3904L26.3915 24.7742C26.8378 24.3278 26.8378 23.6042 26.3915 23.1579L26.1963 22.9627C25.812 22.5784 25.7571 21.9794 26.0193 21.5033C26.419 20.7774 26.7419 20.0034 26.9775 19.1921C27.129 18.6702 27.5914 18.2853 28.135 18.2853H28.5714C29.2026 18.2853 29.7143 17.7736 29.7143 17.1424V14.8567C29.7143 14.2256 29.2026 13.7138 28.5714 13.7138H28.135C27.5914 13.7138 27.129 13.329 26.9775 12.807C26.7275 11.9462 26.3791 11.1272 25.945 10.3631C25.6735 9.88513 25.7248 9.27763 26.1135 8.88893L26.3907 8.61169C26.837 8.16538 26.837 7.44176 26.3907 6.99545L24.7745 5.3792C24.3282 4.93289 23.6046 4.93289 23.1583 5.3792L22.8146 5.72283C22.4347 6.10272 21.8442 6.1611 21.3702 5.90833C20.683 5.54189 19.9538 5.2436 19.1919 5.02248C18.6698 4.87097 18.2849 4.40859 18.2849 3.86499V3.42857Z" fill="#666666"/>
</g>
<defs>
<clipPath id="clip0_521_815">
<rect width="32" height="32" fill="white"/>
</clipPath>
</defs>
</svg>
