<svg width="16" height="16" viewBox="0 0 16 16" fill="none" xmlns="http://www.w3.org/2000/svg">
<path d="M2.5 4.66663C2.5 4.53402 2.55268 4.40684 2.64645 4.31307C2.74021 4.2193 2.86739 4.16663 3 4.16663H13C13.1326 4.16663 13.2598 4.2193 13.3536 4.31307C13.4473 4.40684 13.5 4.53402 13.5 4.66663C13.5 4.79923 13.4473 4.92641 13.3536 5.02018C13.2598 5.11395 13.1326 5.16663 13 5.16663H3C2.86739 5.16663 2.74021 5.11395 2.64645 5.02018C2.55268 4.92641 2.5 4.79923 2.5 4.66663ZM4.16667 7.99996C4.16667 7.86735 4.21935 7.74017 4.31311 7.64641C4.40688 7.55264 4.53406 7.49996 4.66667 7.49996H11.3333C11.4659 7.49996 11.5931 7.55264 11.6869 7.64641C11.7807 7.74017 11.8333 7.86735 11.8333 7.99996C11.8333 8.13257 11.7807 8.25974 11.6869 8.35351C11.5931 8.44728 11.4659 8.49996 11.3333 8.49996H4.66667C4.53406 8.49996 4.40688 8.44728 4.31311 8.35351C4.21935 8.25974 4.16667 8.13257 4.16667 7.99996ZM6.16667 11.3333C6.16667 11.2007 6.21935 11.0735 6.31311 10.9797C6.40688 10.886 6.53406 10.8333 6.66667 10.8333H9.33333C9.46594 10.8333 9.59312 10.886 9.68689 10.9797C9.78065 11.0735 9.83333 11.2007 9.83333 11.3333C9.83333 11.4659 9.78065 11.5931 9.68689 11.6868C9.59312 11.7806 9.46594 11.8333 9.33333 11.8333H6.66667C6.53406 11.8333 6.40688 11.7806 6.31311 11.6868C6.21935 11.5931 6.16667 11.4659 6.16667 11.3333Z" fill="#666666"/>
</svg>
