<svg width="10" height="10" viewBox="0 0 10 10" fill="none" xmlns="http://www.w3.org/2000/svg">
<path d="M5.00016 6.32497L8.21516 3.11039C8.27627 3.04928 8.3496 3.019 8.43516 3.01956C8.52072 3.02011 8.59419 3.05122 8.65558 3.11289C8.71697 3.17428 8.74766 3.24775 8.74766 3.33331C8.74766 3.41886 8.71697 3.49234 8.65558 3.55372L5.47349 6.73747C5.40627 6.80497 5.33127 6.85414 5.24849 6.88497C5.16572 6.91609 5.08294 6.93164 5.00016 6.93164C4.91738 6.93164 4.8346 6.91609 4.75183 6.88497C4.66905 6.85386 4.59405 6.8047 4.52683 6.73747L1.34183 3.55414C1.28044 3.49275 1.25016 3.41886 1.25099 3.33247C1.25183 3.24636 1.28294 3.17261 1.34433 3.11122C1.40572 3.04984 1.47919 3.019 1.56474 3.01872C1.6503 3.01845 1.72363 3.04928 1.78474 3.11122L5.00016 6.32497Z" fill="#666666"/>
</svg>
