<svg width="336" height="519" viewBox="0 0 336 519" fill="none" xmlns="http://www.w3.org/2000/svg">
<path d="M195.943 48.1596C225.691 54.9138 251.767 71.8627 269.155 95.7474C286.544 119.632 294.018 148.767 290.141 177.549C286.263 206.331 271.308 232.729 248.15 251.667C224.993 270.606 195.268 280.747 164.69 280.141C134.113 279.536 104.843 268.227 82.5071 248.388C60.1713 228.549 46.3471 201.581 43.6924 172.669C41.0377 143.758 49.74 114.943 68.126 91.767C86.5121 68.5906 113.284 52.6881 143.294 47.1172L147.625 68.0468C123.057 72.6076 101.139 85.6267 86.0867 104.601C71.0343 123.575 63.9099 147.165 66.0833 170.834C68.2566 194.503 79.5743 216.582 97.8602 232.823C116.146 249.065 140.109 258.324 165.142 258.82C190.175 259.315 214.511 251.013 233.469 235.508C252.428 220.004 264.672 198.392 267.846 174.829C271.021 151.265 264.902 127.414 250.666 107.86C236.43 88.3055 215.083 74.4298 190.728 68.9002L195.943 48.1596Z" fill="#0052FB"/>
<path d="M334.692 162.134L288.359 187.902L287.306 138.378L334.692 162.134Z" fill="#0052FB"/>
<path d="M171.262 321.363L146.509 274.299L195.773 274.171L171.262 321.363Z" fill="#0052FB"/>
<path d="M0.256866 162.945L47.3473 138.604L46.9024 188.137L0.256866 162.945Z" fill="#0052FB"/>
<rect x="91.4055" y="85.5364" width="151.171" height="154.866" rx="75.5853" fill="black"/>
<path d="M128.778 112.421L179.536 152.491L148.418 175.052L128.778 112.421Z" fill="white"/>
<path d="M136.342 122.76L174.063 152.441L150.848 169.272L136.342 122.76Z" fill="#0052FB"/>
<path d="M198.84 213.462L148.225 174.722L179.525 151.771L198.84 213.462Z" fill="white"/>
<path d="M166.991 0L176.886 23.6351H157.096L166.991 0Z" fill="black"/>
<path d="M189.176 26.109L166.297 36.6944L165.92 16.4245L189.176 26.109Z" fill="black"/>
<path d="M145.285 26.1078L168.581 16.5354L168.119 36.8035L145.285 26.1078Z" fill="black"/>
<path d="M167.261 49.643L157.203 26.0804L176.992 25.9367L167.261 49.643Z" fill="black"/>
<path d="M57.2042 348.619V432.437H39.483V348.619H57.2042ZM68.592 363.23V348.619H137.43V363.23H111.769V432.437H94.2529V363.23H68.592Z" fill="black"/>
<path d="M147.867 432.437V421.919L189.694 363.23H147.785V348.619H211.958V359.137L170.09 417.826H212.039V432.437H147.867ZM295.744 348.619V432.437H280.438L243.972 379.682H243.358V432.437H225.637V348.619H241.189L277.368 401.333H278.105V348.619H295.744Z" fill="#0052FB"/>
<path d="M26.608 483.437H24.571V468.39H26.608V483.437ZM33.5057 474.344C33.7367 474.085 33.9817 473.85 34.2407 473.64C34.4997 473.43 34.7727 473.252 35.0597 473.105C35.3537 472.951 35.6617 472.835 35.9837 472.758C36.3127 472.674 36.6662 472.632 37.0442 472.632C37.6252 472.632 38.1362 472.73 38.5772 472.926C39.0252 473.115 39.3962 473.388 39.6902 473.745C39.9912 474.095 40.2187 474.519 40.3727 475.016C40.5267 475.513 40.6037 476.062 40.6037 476.664V483.437H38.7242V476.664C38.7242 475.859 38.5387 475.236 38.1677 474.795C37.8037 474.347 37.2472 474.123 36.4982 474.123C35.9452 474.123 35.4272 474.256 34.9442 474.522C34.4682 474.788 34.0272 475.149 33.6212 475.604V483.437H31.7417V472.8H32.8652C33.1312 472.8 33.2957 472.93 33.3587 473.189L33.5057 474.344ZM52.7442 474.69C52.6882 474.767 52.6322 474.827 52.5762 474.869C52.5202 474.911 52.4432 474.932 52.3452 474.932C52.2402 474.932 52.1247 474.89 51.9987 474.806C51.8727 474.715 51.7152 474.617 51.5262 474.512C51.3442 474.407 51.1167 474.312 50.8437 474.228C50.5777 474.137 50.2487 474.092 49.8567 474.092C49.3317 474.092 48.8697 474.186 48.4707 474.375C48.0717 474.557 47.7357 474.823 47.4627 475.173C47.1967 475.523 46.9937 475.947 46.8537 476.444C46.7207 476.941 46.6542 477.497 46.6542 478.113C46.6542 478.757 46.7277 479.331 46.8747 479.835C47.0217 480.332 47.2282 480.752 47.4942 481.095C47.7672 481.431 48.0927 481.69 48.4707 481.872C48.8557 482.047 49.2862 482.135 49.7622 482.135C50.2172 482.135 50.5917 482.082 50.8857 481.977C51.1797 481.865 51.4212 481.743 51.6102 481.61C51.8062 481.477 51.9672 481.358 52.0932 481.253C52.2262 481.141 52.3557 481.085 52.4817 481.085C52.6357 481.085 52.7547 481.144 52.8387 481.263L53.3637 481.946C53.1327 482.233 52.8702 482.478 52.5762 482.681C52.2822 482.884 51.9637 483.055 51.6207 483.195C51.2847 483.328 50.9312 483.426 50.5602 483.489C50.1892 483.552 49.8112 483.584 49.4262 483.584C48.7612 483.584 48.1417 483.461 47.5677 483.216C47.0007 482.971 46.5072 482.618 46.0872 482.156C45.6672 481.687 45.3382 481.113 45.1002 480.434C44.8622 479.755 44.7432 478.981 44.7432 478.113C44.7432 477.322 44.8517 476.591 45.0687 475.919C45.2927 475.247 45.6147 474.669 46.0347 474.186C46.4617 473.696 46.9832 473.315 47.5992 473.042C48.2222 472.769 48.9362 472.632 49.7412 472.632C50.4902 472.632 51.1482 472.755 51.7152 473C52.2892 473.238 52.7967 473.577 53.2377 474.018L52.7442 474.69ZM66.0065 472.8V483.437H64.8935C64.6275 483.437 64.4595 483.307 64.3895 483.048L64.2425 481.904C63.7805 482.415 63.2625 482.828 62.6885 483.143C62.1145 483.451 61.4565 483.605 60.7145 483.605C60.1335 483.605 59.619 483.51 59.171 483.321C58.73 483.125 58.359 482.852 58.058 482.502C57.757 482.152 57.5295 481.729 57.3755 481.232C57.2285 480.735 57.155 480.185 57.155 479.583V472.8H59.024V479.583C59.024 480.388 59.206 481.011 59.57 481.452C59.941 481.893 60.5045 482.114 61.2605 482.114C61.8135 482.114 62.328 481.984 62.804 481.725C63.287 481.459 63.7315 481.095 64.1375 480.633V472.8H66.0065ZM72.7395 480.875C73.0825 481.337 73.457 481.662 73.863 481.851C74.276 482.04 74.7275 482.135 75.2175 482.135C76.2185 482.135 76.985 481.781 77.517 481.074C78.049 480.367 78.315 479.314 78.315 477.914C78.315 476.612 78.077 475.656 77.601 475.047C77.132 474.431 76.46 474.123 75.585 474.123C74.976 474.123 74.444 474.263 73.989 474.543C73.541 474.823 73.1245 475.219 72.7395 475.73V480.875ZM72.7395 474.333C73.1875 473.815 73.6915 473.402 74.2515 473.094C74.8185 472.786 75.4695 472.632 76.2045 472.632C76.8275 472.632 77.3875 472.751 77.8845 472.989C78.3885 473.227 78.8155 473.574 79.1655 474.029C79.5155 474.477 79.7815 475.023 79.9635 475.667C80.1525 476.311 80.247 477.035 80.247 477.84C80.247 478.701 80.142 479.485 79.932 480.192C79.722 480.899 79.4175 481.505 79.0185 482.009C78.6265 482.506 78.147 482.894 77.58 483.174C77.013 483.447 76.376 483.584 75.669 483.584C74.969 483.584 74.3775 483.454 73.8945 483.195C73.4185 482.929 73.002 482.555 72.645 482.072L72.5505 483.038C72.4945 483.304 72.3335 483.437 72.0675 483.437H70.86V467.97H72.7395V474.333ZM90.2654 478.649C89.4044 478.677 88.6694 478.747 88.0604 478.859C87.4584 478.964 86.9649 479.104 86.5799 479.279C86.2019 479.454 85.9254 479.66 85.7504 479.898C85.5824 480.136 85.4984 480.402 85.4984 480.696C85.4984 480.976 85.5439 481.218 85.6349 481.421C85.7259 481.624 85.8484 481.792 86.0024 481.925C86.1634 482.051 86.3489 482.145 86.5589 482.208C86.7759 482.264 87.0069 482.292 87.2519 482.292C87.5809 482.292 87.8819 482.261 88.1549 482.198C88.4279 482.128 88.6834 482.03 88.9214 481.904C89.1664 481.778 89.3974 481.627 89.6144 481.452C89.8384 481.277 90.0554 481.078 90.2654 480.854V478.649ZM84.2279 474.302C84.8159 473.735 85.4494 473.311 86.1284 473.031C86.8074 472.751 87.5599 472.611 88.3859 472.611C88.9809 472.611 89.5094 472.709 89.9714 472.905C90.4334 473.101 90.8219 473.374 91.1369 473.724C91.4519 474.074 91.6899 474.498 91.8509 474.995C92.0119 475.492 92.0924 476.038 92.0924 476.633V483.437H91.2629C91.0809 483.437 90.9409 483.409 90.8429 483.353C90.7449 483.29 90.6679 483.171 90.6119 482.996L90.4019 481.988C90.1219 482.247 89.8489 482.478 89.5829 482.681C89.3169 482.877 89.0369 483.045 88.7429 483.185C88.4489 483.318 88.1339 483.419 87.7979 483.489C87.4689 483.566 87.1014 483.605 86.6954 483.605C86.2824 483.605 85.8939 483.549 85.5299 483.437C85.1659 483.318 84.8474 483.143 84.5744 482.912C84.3084 482.681 84.0949 482.39 83.9339 482.04C83.7799 481.683 83.7029 481.263 83.7029 480.78C83.7029 480.36 83.8184 479.958 84.0494 479.573C84.2804 479.181 84.6549 478.834 85.1729 478.533C85.6909 478.232 86.3664 477.987 87.1994 477.798C88.0324 477.602 89.0544 477.49 90.2654 477.462V476.633C90.2654 475.807 90.0869 475.184 89.7299 474.764C89.3729 474.337 88.8514 474.123 88.1654 474.123C87.7034 474.123 87.3149 474.183 86.9999 474.302C86.6919 474.414 86.4224 474.543 86.1914 474.69C85.9674 474.83 85.7714 474.96 85.6034 475.079C85.4424 475.191 85.2814 475.247 85.1204 475.247C84.9944 475.247 84.8859 475.215 84.7949 475.152C84.7039 475.082 84.6269 474.998 84.5639 474.9L84.2279 474.302ZM103.759 475.331C103.409 474.862 103.031 474.536 102.625 474.354C102.219 474.165 101.764 474.071 101.26 474.071C100.273 474.071 99.5139 474.424 98.9819 475.131C98.4499 475.838 98.1839 476.846 98.1839 478.155C98.1839 478.848 98.2434 479.443 98.3624 479.94C98.4814 480.43 98.6564 480.836 98.8874 481.158C99.1184 481.473 99.4019 481.704 99.7379 481.851C100.074 481.998 100.455 482.072 100.882 482.072C101.498 482.072 102.034 481.932 102.489 481.652C102.951 481.372 103.374 480.976 103.759 480.465V475.331ZM105.628 467.97V483.437H104.515C104.249 483.437 104.081 483.307 104.011 483.048L103.843 481.757C103.388 482.303 102.87 482.744 102.289 483.08C101.708 483.416 101.036 483.584 100.273 483.584C99.6644 483.584 99.1114 483.468 98.6144 483.237C98.1174 482.999 97.6939 482.653 97.3439 482.198C96.9939 481.743 96.7244 481.176 96.5354 480.497C96.3464 479.818 96.2519 479.037 96.2519 478.155C96.2519 477.371 96.3569 476.643 96.5669 475.971C96.7769 475.292 97.0779 474.704 97.4699 474.207C97.8619 473.71 98.3414 473.322 98.9084 473.042C99.4824 472.755 100.126 472.611 100.84 472.611C101.491 472.611 102.048 472.723 102.51 472.947C102.979 473.164 103.395 473.469 103.759 473.861V467.97H105.628ZM114.954 472.632C115.731 472.632 116.431 472.762 117.054 473.021C117.677 473.28 118.209 473.647 118.65 474.123C119.091 474.599 119.427 475.177 119.658 475.856C119.896 476.528 120.015 477.28 120.015 478.113C120.015 478.953 119.896 479.709 119.658 480.381C119.427 481.053 119.091 481.627 118.65 482.103C118.209 482.579 117.677 482.947 117.054 483.206C116.431 483.458 115.731 483.584 114.954 483.584C114.17 483.584 113.463 483.458 112.833 483.206C112.21 482.947 111.678 482.579 111.237 482.103C110.796 481.627 110.456 481.053 110.218 480.381C109.987 479.709 109.872 478.953 109.872 478.113C109.872 477.28 109.987 476.528 110.218 475.856C110.456 475.177 110.796 474.599 111.237 474.123C111.678 473.647 112.21 473.28 112.833 473.021C113.463 472.762 114.17 472.632 114.954 472.632ZM114.954 482.124C116.004 482.124 116.788 481.774 117.306 481.074C117.824 480.367 118.083 479.384 118.083 478.124C118.083 476.857 117.824 475.87 117.306 475.163C116.788 474.456 116.004 474.102 114.954 474.102C114.422 474.102 113.956 474.193 113.557 474.375C113.165 474.557 112.836 474.82 112.57 475.163C112.311 475.506 112.115 475.929 111.982 476.433C111.856 476.93 111.793 477.494 111.793 478.124C111.793 479.384 112.052 480.367 112.57 481.074C113.095 481.774 113.89 482.124 114.954 482.124ZM126.05 474.932C126.386 474.204 126.799 473.637 127.289 473.231C127.779 472.818 128.377 472.611 129.084 472.611C129.308 472.611 129.522 472.636 129.725 472.685C129.935 472.734 130.12 472.811 130.281 472.916L130.145 474.312C130.103 474.487 129.998 474.575 129.83 474.575C129.732 474.575 129.588 474.554 129.399 474.512C129.21 474.47 128.997 474.449 128.759 474.449C128.423 474.449 128.122 474.498 127.856 474.596C127.597 474.694 127.362 474.841 127.152 475.037C126.949 475.226 126.764 475.464 126.596 475.751C126.435 476.031 126.288 476.353 126.155 476.717V483.437H124.275V472.8H125.346C125.549 472.8 125.689 472.839 125.766 472.916C125.843 472.993 125.896 473.126 125.924 473.315L126.05 474.932ZM139.415 478.649C138.554 478.677 137.819 478.747 137.21 478.859C136.608 478.964 136.115 479.104 135.73 479.279C135.352 479.454 135.075 479.66 134.9 479.898C134.732 480.136 134.648 480.402 134.648 480.696C134.648 480.976 134.694 481.218 134.785 481.421C134.876 481.624 134.998 481.792 135.152 481.925C135.313 482.051 135.499 482.145 135.709 482.208C135.926 482.264 136.157 482.292 136.402 482.292C136.731 482.292 137.032 482.261 137.305 482.198C137.578 482.128 137.833 482.03 138.071 481.904C138.316 481.778 138.547 481.627 138.764 481.452C138.988 481.277 139.205 481.078 139.415 480.854V478.649ZM133.378 474.302C133.966 473.735 134.599 473.311 135.278 473.031C135.957 472.751 136.71 472.611 137.536 472.611C138.131 472.611 138.659 472.709 139.121 472.905C139.583 473.101 139.972 473.374 140.287 473.724C140.602 474.074 140.84 474.498 141.001 474.995C141.162 475.492 141.242 476.038 141.242 476.633V483.437H140.413C140.231 483.437 140.091 483.409 139.993 483.353C139.895 483.29 139.818 483.171 139.762 482.996L139.552 481.988C139.272 482.247 138.999 482.478 138.733 482.681C138.467 482.877 138.187 483.045 137.893 483.185C137.599 483.318 137.284 483.419 136.948 483.489C136.619 483.566 136.251 483.605 135.845 483.605C135.432 483.605 135.044 483.549 134.68 483.437C134.316 483.318 133.997 483.143 133.724 482.912C133.458 482.681 133.245 482.39 133.084 482.04C132.93 481.683 132.853 481.263 132.853 480.78C132.853 480.36 132.968 479.958 133.199 479.573C133.43 479.181 133.805 478.834 134.323 478.533C134.841 478.232 135.516 477.987 136.349 477.798C137.182 477.602 138.204 477.49 139.415 477.462V476.633C139.415 475.807 139.237 475.184 138.88 474.764C138.523 474.337 138.001 474.123 137.315 474.123C136.853 474.123 136.465 474.183 136.15 474.302C135.842 474.414 135.572 474.543 135.341 474.69C135.117 474.83 134.921 474.96 134.753 475.079C134.592 475.191 134.431 475.247 134.27 475.247C134.144 475.247 134.036 475.215 133.945 475.152C133.854 475.082 133.777 474.998 133.714 474.9L133.378 474.302ZM163.222 470.102H158.35V483.437H156.324V470.102H151.441V468.39H163.222V470.102ZM171.459 476.958C171.459 476.524 171.396 476.129 171.27 475.772C171.151 475.408 170.973 475.096 170.735 474.837C170.504 474.571 170.22 474.368 169.884 474.228C169.548 474.081 169.167 474.008 168.74 474.008C167.844 474.008 167.133 474.27 166.608 474.795C166.09 475.313 165.768 476.034 165.642 476.958H171.459ZM172.971 481.946C172.74 482.226 172.464 482.471 172.142 482.681C171.82 482.884 171.473 483.052 171.102 483.185C170.738 483.318 170.36 483.416 169.968 483.479C169.576 483.549 169.188 483.584 168.803 483.584C168.068 483.584 167.389 483.461 166.766 483.216C166.15 482.964 165.614 482.6 165.159 482.124C164.711 481.641 164.361 481.046 164.109 480.339C163.857 479.632 163.731 478.82 163.731 477.903C163.731 477.161 163.843 476.468 164.067 475.824C164.298 475.18 164.627 474.624 165.054 474.155C165.481 473.679 166.003 473.308 166.619 473.042C167.235 472.769 167.928 472.632 168.698 472.632C169.335 472.632 169.923 472.741 170.462 472.958C171.008 473.168 171.477 473.476 171.869 473.882C172.268 474.281 172.579 474.778 172.803 475.373C173.027 475.961 173.139 476.633 173.139 477.389C173.139 477.683 173.108 477.879 173.045 477.977C172.982 478.075 172.863 478.124 172.688 478.124H165.579C165.6 478.796 165.691 479.38 165.852 479.877C166.02 480.374 166.251 480.791 166.545 481.127C166.839 481.456 167.189 481.704 167.595 481.872C168.001 482.033 168.456 482.114 168.96 482.114C169.429 482.114 169.832 482.061 170.168 481.956C170.511 481.844 170.805 481.725 171.05 481.599C171.295 481.473 171.498 481.358 171.659 481.253C171.827 481.141 171.97 481.085 172.089 481.085C172.243 481.085 172.362 481.144 172.446 481.263L172.971 481.946ZM184.728 474.69C184.672 474.767 184.616 474.827 184.56 474.869C184.504 474.911 184.427 474.932 184.329 474.932C184.224 474.932 184.108 474.89 183.982 474.806C183.856 474.715 183.699 474.617 183.51 474.512C183.328 474.407 183.1 474.312 182.827 474.228C182.561 474.137 182.232 474.092 181.84 474.092C181.315 474.092 180.853 474.186 180.454 474.375C180.055 474.557 179.719 474.823 179.446 475.173C179.18 475.523 178.977 475.947 178.837 476.444C178.704 476.941 178.638 477.497 178.638 478.113C178.638 478.757 178.711 479.331 178.858 479.835C179.005 480.332 179.212 480.752 179.478 481.095C179.751 481.431 180.076 481.69 180.454 481.872C180.839 482.047 181.27 482.135 181.746 482.135C182.201 482.135 182.575 482.082 182.869 481.977C183.163 481.865 183.405 481.743 183.594 481.61C183.79 481.477 183.951 481.358 184.077 481.253C184.21 481.141 184.339 481.085 184.465 481.085C184.619 481.085 184.738 481.144 184.822 481.263L185.347 481.946C185.116 482.233 184.854 482.478 184.56 482.681C184.266 482.884 183.947 483.055 183.604 483.195C183.268 483.328 182.915 483.426 182.544 483.489C182.173 483.552 181.795 483.584 181.41 483.584C180.745 483.584 180.125 483.461 179.551 483.216C178.984 482.971 178.491 482.618 178.071 482.156C177.651 481.687 177.322 481.113 177.084 480.434C176.846 479.755 176.727 478.981 176.727 478.113C176.727 477.322 176.835 476.591 177.052 475.919C177.276 475.247 177.598 474.669 178.018 474.186C178.445 473.696 178.967 473.315 179.583 473.042C180.206 472.769 180.92 472.632 181.725 472.632C182.474 472.632 183.132 472.755 183.699 473C184.273 473.238 184.78 473.577 185.221 474.018L184.728 474.69ZM191.007 474.344C191.238 474.085 191.483 473.85 191.742 473.64C192.001 473.43 192.274 473.252 192.561 473.105C192.855 472.951 193.163 472.835 193.485 472.758C193.814 472.674 194.168 472.632 194.546 472.632C195.127 472.632 195.638 472.73 196.079 472.926C196.527 473.115 196.898 473.388 197.192 473.745C197.493 474.095 197.72 474.519 197.874 475.016C198.028 475.513 198.105 476.062 198.105 476.664V483.437H196.226V476.664C196.226 475.859 196.04 475.236 195.669 474.795C195.305 474.347 194.749 474.123 194 474.123C193.447 474.123 192.929 474.256 192.446 474.522C191.97 474.788 191.529 475.149 191.123 475.604V483.437H189.243V472.8H190.367C190.633 472.8 190.797 472.93 190.86 473.189L191.007 474.344ZM207.327 472.632C208.104 472.632 208.804 472.762 209.427 473.021C210.05 473.28 210.582 473.647 211.023 474.123C211.464 474.599 211.8 475.177 212.031 475.856C212.269 476.528 212.388 477.28 212.388 478.113C212.388 478.953 212.269 479.709 212.031 480.381C211.8 481.053 211.464 481.627 211.023 482.103C210.582 482.579 210.05 482.947 209.427 483.206C208.804 483.458 208.104 483.584 207.327 483.584C206.543 483.584 205.836 483.458 205.206 483.206C204.583 482.947 204.051 482.579 203.61 482.103C203.169 481.627 202.829 481.053 202.591 480.381C202.36 479.709 202.245 478.953 202.245 478.113C202.245 477.28 202.36 476.528 202.591 475.856C202.829 475.177 203.169 474.599 203.61 474.123C204.051 473.647 204.583 473.28 205.206 473.021C205.836 472.762 206.543 472.632 207.327 472.632ZM207.327 482.124C208.377 482.124 209.161 481.774 209.679 481.074C210.197 480.367 210.456 479.384 210.456 478.124C210.456 476.857 210.197 475.87 209.679 475.163C209.161 474.456 208.377 474.102 207.327 474.102C206.795 474.102 206.329 474.193 205.93 474.375C205.538 474.557 205.209 474.82 204.943 475.163C204.684 475.506 204.488 475.929 204.355 476.433C204.229 476.93 204.166 477.494 204.166 478.124C204.166 479.384 204.425 480.367 204.943 481.074C205.468 481.774 206.263 482.124 207.327 482.124ZM218.58 467.97V483.437H216.711V467.97H218.58ZM227.985 472.632C228.762 472.632 229.462 472.762 230.085 473.021C230.708 473.28 231.24 473.647 231.681 474.123C232.122 474.599 232.458 475.177 232.689 475.856C232.927 476.528 233.046 477.28 233.046 478.113C233.046 478.953 232.927 479.709 232.689 480.381C232.458 481.053 232.122 481.627 231.681 482.103C231.24 482.579 230.708 482.947 230.085 483.206C229.462 483.458 228.762 483.584 227.985 483.584C227.201 483.584 226.494 483.458 225.864 483.206C225.241 482.947 224.709 482.579 224.268 482.103C223.827 481.627 223.487 481.053 223.249 480.381C223.018 479.709 222.903 478.953 222.903 478.113C222.903 477.28 223.018 476.528 223.249 475.856C223.487 475.177 223.827 474.599 224.268 474.123C224.709 473.647 225.241 473.28 225.864 473.021C226.494 472.762 227.201 472.632 227.985 472.632ZM227.985 482.124C229.035 482.124 229.819 481.774 230.337 481.074C230.855 480.367 231.114 479.384 231.114 478.124C231.114 476.857 230.855 475.87 230.337 475.163C229.819 474.456 229.035 474.102 227.985 474.102C227.453 474.102 226.987 474.193 226.588 474.375C226.196 474.557 225.867 474.82 225.601 475.163C225.342 475.506 225.146 475.929 225.013 476.433C224.887 476.93 224.824 477.494 224.824 478.124C224.824 479.384 225.083 480.367 225.601 481.074C226.126 481.774 226.921 482.124 227.985 482.124ZM231.051 468.222L228.604 470.931C228.506 471.036 228.408 471.113 228.31 471.162C228.219 471.204 228.1 471.225 227.953 471.225H226.84L228.394 468.684C228.492 468.523 228.597 468.408 228.709 468.338C228.828 468.261 229 468.222 229.224 468.222H231.051ZM240.951 478.239C241.329 478.239 241.662 478.187 241.949 478.082C242.236 477.977 242.477 477.83 242.673 477.641C242.869 477.452 243.016 477.228 243.114 476.969C243.212 476.703 243.261 476.412 243.261 476.097C243.261 475.446 243.062 474.928 242.663 474.543C242.271 474.158 241.7 473.966 240.951 473.966C240.195 473.966 239.618 474.158 239.219 474.543C238.827 474.928 238.631 475.446 238.631 476.097C238.631 476.412 238.68 476.703 238.778 476.969C238.883 477.228 239.033 477.452 239.229 477.641C239.425 477.83 239.667 477.977 239.954 478.082C240.241 478.187 240.573 478.239 240.951 478.239ZM244.322 484.014C244.322 483.755 244.248 483.545 244.101 483.384C243.954 483.223 243.755 483.097 243.503 483.006C243.258 482.915 242.971 482.852 242.642 482.817C242.313 482.775 241.963 482.744 241.592 482.723C241.228 482.702 240.857 482.681 240.479 482.66C240.101 482.639 239.737 482.604 239.387 482.555C238.995 482.737 238.673 482.968 238.421 483.248C238.176 483.521 238.053 483.843 238.053 484.214C238.053 484.452 238.113 484.672 238.232 484.875C238.358 485.085 238.547 485.264 238.799 485.411C239.051 485.565 239.366 485.684 239.744 485.768C240.129 485.859 240.58 485.904 241.098 485.904C241.602 485.904 242.054 485.859 242.453 485.768C242.852 485.677 243.188 485.547 243.461 485.379C243.741 485.211 243.954 485.012 244.101 484.781C244.248 484.55 244.322 484.294 244.322 484.014ZM246.222 473.22V473.913C246.222 474.144 246.075 474.291 245.781 474.354L244.574 474.512C244.812 474.974 244.931 475.485 244.931 476.045C244.931 476.563 244.829 477.035 244.626 477.462C244.43 477.882 244.157 478.243 243.807 478.544C243.457 478.845 243.037 479.076 242.547 479.237C242.057 479.398 241.525 479.478 240.951 479.478C240.454 479.478 239.985 479.419 239.544 479.3C239.32 479.44 239.149 479.59 239.03 479.751C238.911 479.905 238.851 480.063 238.851 480.224C238.851 480.476 238.953 480.668 239.156 480.801C239.366 480.927 239.639 481.018 239.975 481.074C240.311 481.13 240.692 481.165 241.119 481.179C241.553 481.193 241.994 481.218 242.442 481.253C242.897 481.281 243.338 481.333 243.765 481.41C244.199 481.487 244.584 481.613 244.92 481.788C245.256 481.963 245.526 482.205 245.729 482.513C245.939 482.821 246.044 483.22 246.044 483.71C246.044 484.165 245.928 484.606 245.697 485.033C245.473 485.46 245.148 485.838 244.721 486.167C244.294 486.503 243.769 486.769 243.146 486.965C242.53 487.168 241.833 487.269 241.056 487.269C240.279 487.269 239.6 487.192 239.019 487.038C238.438 486.884 237.955 486.678 237.57 486.419C237.185 486.16 236.895 485.859 236.699 485.516C236.51 485.18 236.415 484.826 236.415 484.455C236.415 483.93 236.58 483.486 236.909 483.122C237.238 482.758 237.689 482.467 238.263 482.25C237.948 482.11 237.696 481.925 237.507 481.694C237.325 481.456 237.234 481.137 237.234 480.738C237.234 480.584 237.262 480.427 237.318 480.266C237.374 480.098 237.458 479.933 237.57 479.772C237.689 479.604 237.833 479.447 238.001 479.3C238.169 479.153 238.365 479.023 238.589 478.911C238.064 478.617 237.654 478.229 237.36 477.746C237.066 477.256 236.919 476.689 236.919 476.045C236.919 475.527 237.017 475.058 237.213 474.638C237.416 474.211 237.696 473.85 238.053 473.556C238.41 473.255 238.834 473.024 239.324 472.863C239.821 472.702 240.363 472.622 240.951 472.622C241.413 472.622 241.844 472.674 242.243 472.779C242.642 472.877 243.006 473.024 243.335 473.22H246.222ZM252.019 472.8V483.437H250.15V472.8H252.019ZM252.418 469.461C252.418 469.643 252.379 469.815 252.302 469.976C252.232 470.13 252.134 470.27 252.008 470.396C251.889 470.515 251.746 470.609 251.578 470.679C251.417 470.749 251.245 470.784 251.063 470.784C250.881 470.784 250.71 470.749 250.549 470.679C250.395 470.609 250.258 470.515 250.139 470.396C250.02 470.27 249.926 470.13 249.856 469.976C249.786 469.815 249.751 469.643 249.751 469.461C249.751 469.279 249.786 469.108 249.856 468.947C249.926 468.779 250.02 468.635 250.139 468.516C250.258 468.39 250.395 468.292 250.549 468.222C250.71 468.152 250.881 468.117 251.063 468.117C251.245 468.117 251.417 468.152 251.578 468.222C251.746 468.292 251.889 468.39 252.008 468.516C252.134 468.635 252.232 468.779 252.302 468.947C252.379 469.108 252.418 469.279 252.418 469.461ZM264.382 474.69C264.326 474.767 264.27 474.827 264.214 474.869C264.158 474.911 264.081 474.932 263.983 474.932C263.878 474.932 263.763 474.89 263.637 474.806C263.511 474.715 263.353 474.617 263.164 474.512C262.982 474.407 262.755 474.312 262.482 474.228C262.216 474.137 261.887 474.092 261.495 474.092C260.97 474.092 260.508 474.186 260.109 474.375C259.71 474.557 259.374 474.823 259.101 475.173C258.835 475.523 258.632 475.947 258.492 476.444C258.359 476.941 258.292 477.497 258.292 478.113C258.292 478.757 258.366 479.331 258.513 479.835C258.66 480.332 258.866 480.752 259.132 481.095C259.405 481.431 259.731 481.69 260.109 481.872C260.494 482.047 260.924 482.135 261.4 482.135C261.855 482.135 262.23 482.082 262.524 481.977C262.818 481.865 263.059 481.743 263.248 481.61C263.444 481.477 263.605 481.358 263.731 481.253C263.864 481.141 263.994 481.085 264.12 481.085C264.274 481.085 264.393 481.144 264.477 481.263L265.002 481.946C264.771 482.233 264.508 482.478 264.214 482.681C263.92 482.884 263.602 483.055 263.259 483.195C262.923 483.328 262.569 483.426 262.198 483.489C261.827 483.552 261.449 483.584 261.064 483.584C260.399 483.584 259.78 483.461 259.206 483.216C258.639 482.971 258.145 482.618 257.725 482.156C257.305 481.687 256.976 481.113 256.738 480.434C256.5 479.755 256.381 478.981 256.381 478.113C256.381 477.322 256.49 476.591 256.707 475.919C256.931 475.247 257.253 474.669 257.673 474.186C258.1 473.696 258.621 473.315 259.237 473.042C259.86 472.769 260.574 472.632 261.379 472.632C262.128 472.632 262.786 472.755 263.353 473C263.927 473.238 264.435 473.577 264.876 474.018L264.382 474.69ZM274.663 478.649C273.802 478.677 273.067 478.747 272.458 478.859C271.856 478.964 271.362 479.104 270.977 479.279C270.599 479.454 270.323 479.66 270.148 479.898C269.98 480.136 269.896 480.402 269.896 480.696C269.896 480.976 269.941 481.218 270.032 481.421C270.123 481.624 270.246 481.792 270.4 481.925C270.561 482.051 270.746 482.145 270.956 482.208C271.173 482.264 271.404 482.292 271.649 482.292C271.978 482.292 272.279 482.261 272.552 482.198C272.825 482.128 273.081 482.03 273.319 481.904C273.564 481.778 273.795 481.627 274.012 481.452C274.236 481.277 274.453 481.078 274.663 480.854V478.649ZM268.625 474.302C269.213 473.735 269.847 473.311 270.526 473.031C271.205 472.751 271.957 472.611 272.783 472.611C273.378 472.611 273.907 472.709 274.369 472.905C274.831 473.101 275.219 473.374 275.534 473.724C275.849 474.074 276.087 474.498 276.248 474.995C276.409 475.492 276.49 476.038 276.49 476.633V483.437H275.66C275.478 483.437 275.338 483.409 275.24 483.353C275.142 483.29 275.065 483.171 275.009 482.996L274.799 481.988C274.519 482.247 274.246 482.478 273.98 482.681C273.714 482.877 273.434 483.045 273.14 483.185C272.846 483.318 272.531 483.419 272.195 483.489C271.866 483.566 271.499 483.605 271.093 483.605C270.68 483.605 270.291 483.549 269.927 483.437C269.563 483.318 269.245 483.143 268.972 482.912C268.706 482.681 268.492 482.39 268.331 482.04C268.177 481.683 268.1 481.263 268.1 480.78C268.1 480.36 268.216 479.958 268.447 479.573C268.678 479.181 269.052 478.834 269.57 478.533C270.088 478.232 270.764 477.987 271.597 477.798C272.43 477.602 273.452 477.49 274.663 477.462V476.633C274.663 475.807 274.484 475.184 274.127 474.764C273.77 474.337 273.249 474.123 272.563 474.123C272.101 474.123 271.712 474.183 271.397 474.302C271.089 474.414 270.82 474.543 270.589 474.69C270.365 474.83 270.169 474.96 270.001 475.079C269.84 475.191 269.679 475.247 269.518 475.247C269.392 475.247 269.283 475.215 269.192 475.152C269.101 475.082 269.024 474.998 268.961 474.9L268.625 474.302ZM295.42 475.331C295.07 474.862 294.692 474.536 294.286 474.354C293.88 474.165 293.425 474.071 292.921 474.071C291.934 474.071 291.174 474.424 290.642 475.131C290.11 475.838 289.844 476.846 289.844 478.155C289.844 478.848 289.904 479.443 290.023 479.94C290.142 480.43 290.317 480.836 290.548 481.158C290.779 481.473 291.062 481.704 291.398 481.851C291.734 481.998 292.116 482.072 292.543 482.072C293.159 482.072 293.694 481.932 294.149 481.652C294.611 481.372 295.035 480.976 295.42 480.465V475.331ZM297.289 467.97V483.437H296.176C295.91 483.437 295.742 483.307 295.672 483.048L295.504 481.757C295.049 482.303 294.531 482.744 293.95 483.08C293.369 483.416 292.697 483.584 291.934 483.584C291.325 483.584 290.772 483.468 290.275 483.237C289.778 482.999 289.354 482.653 289.004 482.198C288.654 481.743 288.385 481.176 288.196 480.497C288.007 479.818 287.912 479.037 287.912 478.155C287.912 477.371 288.017 476.643 288.227 475.971C288.437 475.292 288.738 474.704 289.13 474.207C289.522 473.71 290.002 473.322 290.569 473.042C291.143 472.755 291.787 472.611 292.501 472.611C293.152 472.611 293.708 472.723 294.17 472.947C294.639 473.164 295.056 473.469 295.42 473.861V467.97H297.289ZM306.614 472.632C307.391 472.632 308.091 472.762 308.714 473.021C309.337 473.28 309.869 473.647 310.31 474.123C310.751 474.599 311.087 475.177 311.318 475.856C311.556 476.528 311.675 477.28 311.675 478.113C311.675 478.953 311.556 479.709 311.318 480.381C311.087 481.053 310.751 481.627 310.31 482.103C309.869 482.579 309.337 482.947 308.714 483.206C308.091 483.458 307.391 483.584 306.614 483.584C305.83 483.584 305.123 483.458 304.493 483.206C303.87 482.947 303.338 482.579 302.897 482.103C302.456 481.627 302.117 481.053 301.879 480.381C301.648 479.709 301.532 478.953 301.532 478.113C301.532 477.28 301.648 476.528 301.879 475.856C302.117 475.177 302.456 474.599 302.897 474.123C303.338 473.647 303.87 473.28 304.493 473.021C305.123 472.762 305.83 472.632 306.614 472.632ZM306.614 482.124C307.664 482.124 308.448 481.774 308.966 481.074C309.484 480.367 309.743 479.384 309.743 478.124C309.743 476.857 309.484 475.87 308.966 475.163C308.448 474.456 307.664 474.102 306.614 474.102C306.082 474.102 305.617 474.193 305.218 474.375C304.826 474.557 304.497 474.82 304.231 475.163C303.972 475.506 303.776 475.929 303.643 476.433C303.517 476.93 303.454 477.494 303.454 478.124C303.454 479.384 303.713 480.367 304.231 481.074C304.756 481.774 305.55 482.124 306.614 482.124ZM35.134 509.329C35.246 509.329 35.344 509.374 35.428 509.465L36.2365 510.337C35.6205 511.051 34.8715 511.607 33.9895 512.006C33.1145 512.405 32.054 512.605 30.808 512.605C29.73 512.605 28.75 512.419 27.868 512.048C26.986 511.67 26.2335 511.145 25.6105 510.473C24.9875 509.794 24.5045 508.982 24.1615 508.037C23.8185 507.092 23.647 506.053 23.647 504.919C23.647 503.785 23.8255 502.745 24.1825 501.8C24.5395 500.855 25.04 500.043 25.684 499.364C26.335 498.685 27.112 498.16 28.015 497.789C28.918 497.411 29.9155 497.222 31.0075 497.222C32.0785 497.222 33.0235 497.394 33.8425 497.737C34.6615 498.08 35.3825 498.545 36.0055 499.133L35.3335 500.068C35.2915 500.138 35.2355 500.197 35.1655 500.246C35.1025 500.288 35.015 500.309 34.903 500.309C34.777 500.309 34.623 500.243 34.441 500.11C34.259 499.97 34.021 499.816 33.727 499.648C33.433 499.48 33.0655 499.329 32.6245 499.196C32.1835 499.056 31.641 498.986 30.997 498.986C30.22 498.986 29.5095 499.123 28.8655 499.396C28.2215 499.662 27.665 500.05 27.196 500.561C26.734 501.072 26.3735 501.695 26.1145 502.43C25.8555 503.165 25.726 503.995 25.726 504.919C25.726 505.857 25.859 506.693 26.125 507.428C26.398 508.163 26.7655 508.786 27.2275 509.297C27.6965 509.801 28.246 510.186 28.876 510.452C29.513 510.718 30.199 510.851 30.934 510.851C31.382 510.851 31.7845 510.827 32.1415 510.778C32.5055 510.722 32.838 510.638 33.139 510.526C33.447 510.414 33.7305 510.274 33.9895 510.106C34.2555 509.931 34.518 509.724 34.777 509.486C34.896 509.381 35.015 509.329 35.134 509.329ZM45.8119 507.649C44.9509 507.677 44.2159 507.747 43.6069 507.859C43.0049 507.964 42.5114 508.104 42.1264 508.279C41.7484 508.454 41.4719 508.66 41.2969 508.898C41.1289 509.136 41.0449 509.402 41.0449 509.696C41.0449 509.976 41.0904 510.218 41.1814 510.421C41.2724 510.624 41.3949 510.792 41.5489 510.925C41.7099 511.051 41.8954 511.145 42.1054 511.208C42.3224 511.264 42.5534 511.292 42.7984 511.292C43.1274 511.292 43.4284 511.261 43.7014 511.198C43.9744 511.128 44.2299 511.03 44.4679 510.904C44.7129 510.778 44.9439 510.627 45.1609 510.452C45.3849 510.277 45.6019 510.078 45.8119 509.854V507.649ZM39.7744 503.302C40.3624 502.735 40.9959 502.311 41.6749 502.031C42.3539 501.751 43.1064 501.611 43.9324 501.611C44.5274 501.611 45.0559 501.709 45.5179 501.905C45.9799 502.101 46.3684 502.374 46.6834 502.724C46.9984 503.074 47.2364 503.498 47.3974 503.995C47.5584 504.492 47.6389 505.038 47.6389 505.633V512.437H46.8094C46.6274 512.437 46.4874 512.409 46.3894 512.353C46.2914 512.29 46.2144 512.171 46.1584 511.996L45.9484 510.988C45.6684 511.247 45.3954 511.478 45.1294 511.681C44.8634 511.877 44.5834 512.045 44.2894 512.185C43.9954 512.318 43.6804 512.419 43.3444 512.489C43.0154 512.566 42.6479 512.605 42.2419 512.605C41.8289 512.605 41.4404 512.549 41.0764 512.437C40.7124 512.318 40.3939 512.143 40.1209 511.912C39.8549 511.681 39.6414 511.39 39.4804 511.04C39.3264 510.683 39.2494 510.263 39.2494 509.78C39.2494 509.36 39.3649 508.958 39.5959 508.573C39.8269 508.181 40.2014 507.834 40.7194 507.533C41.2374 507.232 41.9129 506.987 42.7459 506.798C43.5789 506.602 44.6009 506.49 45.8119 506.462V505.633C45.8119 504.807 45.6334 504.184 45.2764 503.764C44.9194 503.337 44.3979 503.123 43.7119 503.123C43.2499 503.123 42.8614 503.183 42.5464 503.302C42.2384 503.414 41.9689 503.543 41.7379 503.69C41.5139 503.83 41.3179 503.96 41.1499 504.079C40.9889 504.191 40.8279 504.247 40.6669 504.247C40.5409 504.247 40.4324 504.215 40.3414 504.152C40.2504 504.082 40.1734 503.998 40.1104 503.9L39.7744 503.302ZM52.3759 512.437V501.8H53.4994C53.7654 501.8 53.9299 501.93 53.9929 502.189L54.1294 503.281C54.5214 502.798 54.9624 502.402 55.4524 502.094C55.9424 501.786 56.5094 501.632 57.1534 501.632C57.8674 501.632 58.4449 501.832 58.8859 502.231C59.3339 502.63 59.6559 503.169 59.8519 503.848C60.0059 503.463 60.2019 503.13 60.4399 502.85C60.6849 502.57 60.9579 502.339 61.2589 502.157C61.5599 501.975 61.8784 501.842 62.2144 501.758C62.5574 501.674 62.9039 501.632 63.2539 501.632C63.8139 501.632 64.3109 501.723 64.7449 501.905C65.1859 502.08 65.5569 502.339 65.8579 502.682C66.1659 503.025 66.4004 503.449 66.5614 503.953C66.7224 504.45 66.8029 505.02 66.8029 505.664V512.437H64.9234V505.664C64.9234 504.831 64.7414 504.201 64.3774 503.774C64.0134 503.34 63.4884 503.123 62.8024 503.123C62.4944 503.123 62.2004 503.179 61.9204 503.291C61.6474 503.396 61.4059 503.554 61.1959 503.764C60.9859 503.974 60.8179 504.24 60.6919 504.562C60.5729 504.877 60.5134 505.244 60.5134 505.664V512.437H58.6339V505.664C58.6339 504.81 58.4624 504.173 58.1194 503.753C57.7764 503.333 57.2759 503.123 56.6179 503.123C56.1559 503.123 55.7289 503.249 55.3369 503.501C54.9449 503.746 54.5844 504.082 54.2554 504.509V512.437H52.3759ZM73.4129 509.875C73.7559 510.337 74.1304 510.662 74.5364 510.851C74.9424 511.04 75.3974 511.135 75.9014 511.135C76.8954 511.135 77.6584 510.781 78.1904 510.074C78.7224 509.367 78.9884 508.359 78.9884 507.05C78.9884 506.357 78.9254 505.762 78.7994 505.265C78.6804 504.768 78.5054 504.362 78.2744 504.047C78.0434 503.725 77.7599 503.491 77.4239 503.344C77.0879 503.197 76.7064 503.123 76.2794 503.123C75.6704 503.123 75.1349 503.263 74.6729 503.543C74.2179 503.823 73.7979 504.219 73.4129 504.73V509.875ZM73.3184 503.449C73.7664 502.896 74.2844 502.451 74.8724 502.115C75.4604 501.779 76.1324 501.611 76.8884 501.611C77.5044 501.611 78.0609 501.73 78.5579 501.968C79.0549 502.199 79.4784 502.546 79.8284 503.008C80.1784 503.463 80.4479 504.03 80.6369 504.709C80.8259 505.388 80.9204 506.168 80.9204 507.05C80.9204 507.834 80.8154 508.566 80.6054 509.245C80.3954 509.917 80.0909 510.501 79.6919 510.998C79.2999 511.488 78.8169 511.877 78.2429 512.164C77.6759 512.444 77.0354 512.584 76.3214 512.584C75.6704 512.584 75.1104 512.475 74.6414 512.258C74.1794 512.034 73.7699 511.726 73.4129 511.334V516.038H71.5334V501.8H72.6569C72.9229 501.8 73.0874 501.93 73.1504 502.189L73.3184 503.449ZM93.9414 501.8V512.437H92.8284C92.5624 512.437 92.3944 512.307 92.3244 512.048L92.1774 510.904C91.7154 511.415 91.1974 511.828 90.6234 512.143C90.0494 512.451 89.3914 512.605 88.6494 512.605C88.0684 512.605 87.5539 512.51 87.1059 512.321C86.6649 512.125 86.2939 511.852 85.9929 511.502C85.6919 511.152 85.4644 510.729 85.3104 510.232C85.1634 509.735 85.0899 509.185 85.0899 508.583V501.8H86.9589V508.583C86.9589 509.388 87.1409 510.011 87.5049 510.452C87.8759 510.893 88.4394 511.114 89.1954 511.114C89.7484 511.114 90.2629 510.984 90.7389 510.725C91.2219 510.459 91.6664 510.095 92.0724 509.633V501.8H93.9414ZM104.99 503.554C104.906 503.708 104.776 503.785 104.601 503.785C104.496 503.785 104.377 503.746 104.244 503.669C104.111 503.592 103.947 503.508 103.751 503.417C103.562 503.319 103.334 503.232 103.068 503.155C102.802 503.071 102.487 503.029 102.123 503.029C101.808 503.029 101.525 503.071 101.273 503.155C101.021 503.232 100.804 503.34 100.622 503.48C100.447 503.62 100.31 503.785 100.212 503.974C100.121 504.156 100.076 504.355 100.076 504.572C100.076 504.845 100.153 505.073 100.307 505.255C100.468 505.437 100.678 505.594 100.937 505.727C101.196 505.86 101.49 505.979 101.819 506.084C102.148 506.182 102.484 506.291 102.827 506.41C103.177 506.522 103.516 506.648 103.845 506.788C104.174 506.928 104.468 507.103 104.727 507.313C104.986 507.523 105.193 507.782 105.347 508.09C105.508 508.391 105.588 508.755 105.588 509.182C105.588 509.672 105.501 510.127 105.326 510.547C105.151 510.96 104.892 511.32 104.549 511.628C104.206 511.929 103.786 512.167 103.289 512.342C102.792 512.517 102.218 512.605 101.567 512.605C100.825 512.605 100.153 512.486 99.5509 512.248C98.9489 512.003 98.4379 511.691 98.0179 511.313L98.4589 510.599C98.5149 510.508 98.5814 510.438 98.6584 510.389C98.7354 510.34 98.8334 510.316 98.9524 510.316C99.0784 510.316 99.2114 510.365 99.3514 510.463C99.4914 510.561 99.6594 510.669 99.8554 510.788C100.058 510.907 100.303 511.016 100.59 511.114C100.877 511.212 101.234 511.261 101.661 511.261C102.025 511.261 102.344 511.215 102.617 511.124C102.89 511.026 103.117 510.897 103.299 510.736C103.481 510.575 103.614 510.389 103.698 510.179C103.789 509.969 103.835 509.745 103.835 509.507C103.835 509.213 103.754 508.972 103.593 508.783C103.439 508.587 103.233 508.422 102.974 508.289C102.715 508.149 102.417 508.03 102.081 507.932C101.752 507.827 101.413 507.719 101.063 507.607C100.72 507.495 100.38 507.369 100.044 507.229C99.7154 507.082 99.4214 506.9 99.1624 506.683C98.9034 506.466 98.6934 506.2 98.5324 505.885C98.3784 505.563 98.3014 505.174 98.3014 504.719C98.3014 504.313 98.3854 503.925 98.5534 503.554C98.7214 503.176 98.9664 502.847 99.2884 502.567C99.6104 502.28 100.006 502.052 100.475 501.884C100.944 501.716 101.479 501.632 102.081 501.632C102.781 501.632 103.408 501.744 103.961 501.968C104.521 502.185 105.004 502.486 105.41 502.871L104.99 503.554ZM129.664 497.39V512.437H128.646C128.485 512.437 128.348 512.409 128.236 512.353C128.131 512.297 128.026 512.202 127.921 512.069L119.217 500.729C119.231 500.904 119.241 501.076 119.248 501.244C119.255 501.412 119.259 501.569 119.259 501.716V512.437H117.474V497.39H118.524C118.615 497.39 118.692 497.397 118.755 497.411C118.818 497.418 118.874 497.436 118.923 497.464C118.972 497.485 119.021 497.52 119.07 497.569C119.119 497.611 119.171 497.667 119.227 497.737L127.932 509.066C127.918 508.884 127.904 508.709 127.89 508.541C127.883 508.366 127.879 508.202 127.879 508.048V497.39H129.664ZM140.417 507.649C139.556 507.677 138.821 507.747 138.212 507.859C137.61 507.964 137.116 508.104 136.731 508.279C136.353 508.454 136.077 508.66 135.902 508.898C135.734 509.136 135.65 509.402 135.65 509.696C135.65 509.976 135.695 510.218 135.786 510.421C135.877 510.624 136 510.792 136.154 510.925C136.315 511.051 136.5 511.145 136.71 511.208C136.927 511.264 137.158 511.292 137.403 511.292C137.732 511.292 138.033 511.261 138.306 511.198C138.579 511.128 138.835 511.03 139.073 510.904C139.318 510.778 139.549 510.627 139.766 510.452C139.99 510.277 140.207 510.078 140.417 509.854V507.649ZM134.379 503.302C134.967 502.735 135.601 502.311 136.28 502.031C136.959 501.751 137.711 501.611 138.537 501.611C139.132 501.611 139.661 501.709 140.123 501.905C140.585 502.101 140.973 502.374 141.288 502.724C141.603 503.074 141.841 503.498 142.002 503.995C142.163 504.492 142.244 505.038 142.244 505.633V512.437H141.414C141.232 512.437 141.092 512.409 140.994 512.353C140.896 512.29 140.819 512.171 140.763 511.996L140.553 510.988C140.273 511.247 140 511.478 139.734 511.681C139.468 511.877 139.188 512.045 138.894 512.185C138.6 512.318 138.285 512.419 137.949 512.489C137.62 512.566 137.253 512.605 136.847 512.605C136.434 512.605 136.045 512.549 135.681 512.437C135.317 512.318 134.999 512.143 134.726 511.912C134.46 511.681 134.246 511.39 134.085 511.04C133.931 510.683 133.854 510.263 133.854 509.78C133.854 509.36 133.97 508.958 134.201 508.573C134.432 508.181 134.806 507.834 135.324 507.533C135.842 507.232 136.518 506.987 137.351 506.798C138.184 506.602 139.206 506.49 140.417 506.462V505.633C140.417 504.807 140.238 504.184 139.881 503.764C139.524 503.337 139.003 503.123 138.317 503.123C137.855 503.123 137.466 503.183 137.151 503.302C136.843 503.414 136.574 503.543 136.343 503.69C136.119 503.83 135.923 503.96 135.755 504.079C135.594 504.191 135.433 504.247 135.272 504.247C135.146 504.247 135.037 504.215 134.946 504.152C134.855 504.082 134.778 503.998 134.715 503.9L134.379 503.302ZM150.103 512.605C149.263 512.605 148.615 512.37 148.16 511.901C147.712 511.432 147.488 510.757 147.488 509.875V503.365H146.207C146.095 503.365 146.001 503.333 145.924 503.27C145.847 503.2 145.808 503.095 145.808 502.955V502.21L147.551 501.989L147.982 498.703C148.003 498.598 148.048 498.514 148.118 498.451C148.195 498.381 148.293 498.346 148.412 498.346H149.357V502.01H152.434V503.365H149.357V509.749C149.357 510.197 149.466 510.529 149.683 510.746C149.9 510.963 150.18 511.072 150.523 511.072C150.719 511.072 150.887 511.047 151.027 510.998C151.174 510.942 151.3 510.883 151.405 510.82C151.51 510.757 151.597 510.701 151.667 510.652C151.744 510.596 151.811 510.568 151.867 510.568C151.965 510.568 152.052 510.627 152.129 510.746L152.675 511.639C152.353 511.94 151.965 512.178 151.51 512.353C151.055 512.521 150.586 512.605 150.103 512.605ZM162.018 507.649C161.157 507.677 160.422 507.747 159.813 507.859C159.211 507.964 158.718 508.104 158.333 508.279C157.955 508.454 157.678 508.66 157.503 508.898C157.335 509.136 157.251 509.402 157.251 509.696C157.251 509.976 157.297 510.218 157.388 510.421C157.479 510.624 157.601 510.792 157.755 510.925C157.916 511.051 158.102 511.145 158.312 511.208C158.529 511.264 158.76 511.292 159.005 511.292C159.334 511.292 159.635 511.261 159.908 511.198C160.181 511.128 160.436 511.03 160.674 510.904C160.919 510.778 161.15 510.627 161.367 510.452C161.591 510.277 161.808 510.078 162.018 509.854V507.649ZM155.981 503.302C156.569 502.735 157.202 502.311 157.881 502.031C158.56 501.751 159.313 501.611 160.139 501.611C160.734 501.611 161.262 501.709 161.724 501.905C162.186 502.101 162.575 502.374 162.89 502.724C163.205 503.074 163.443 503.498 163.604 503.995C163.765 504.492 163.845 505.038 163.845 505.633V512.437H163.016C162.834 512.437 162.694 512.409 162.596 512.353C162.498 512.29 162.421 512.171 162.365 511.996L162.155 510.988C161.875 511.247 161.602 511.478 161.336 511.681C161.07 511.877 160.79 512.045 160.496 512.185C160.202 512.318 159.887 512.419 159.551 512.489C159.222 512.566 158.854 512.605 158.448 512.605C158.035 512.605 157.647 512.549 157.283 512.437C156.919 512.318 156.6 512.143 156.327 511.912C156.061 511.681 155.848 511.39 155.687 511.04C155.533 510.683 155.456 510.263 155.456 509.78C155.456 509.36 155.571 508.958 155.802 508.573C156.033 508.181 156.408 507.834 156.926 507.533C157.444 507.232 158.119 506.987 158.952 506.798C159.785 506.602 160.807 506.49 162.018 506.462V505.633C162.018 504.807 161.84 504.184 161.483 503.764C161.126 503.337 160.604 503.123 159.918 503.123C159.456 503.123 159.068 503.183 158.753 503.302C158.445 503.414 158.175 503.543 157.944 503.69C157.72 503.83 157.524 503.96 157.356 504.079C157.195 504.191 157.034 504.247 156.873 504.247C156.747 504.247 156.639 504.215 156.548 504.152C156.457 504.082 156.38 503.998 156.317 503.9L155.981 503.302ZM170.514 496.97V512.437H168.645V496.97H170.514ZM175.267 505.349H180.454V506.935H175.267V505.349ZM195.474 498.146C195.474 498.377 195.404 498.601 195.264 498.818L186.748 510.778H195.348V512.437H184.071V511.639C184.071 511.527 184.088 511.422 184.123 511.324C184.165 511.226 184.214 511.131 184.27 511.04L192.807 499.049H184.47V497.39H195.474V498.146ZM203.489 501.632C204.266 501.632 204.966 501.762 205.589 502.021C206.212 502.28 206.744 502.647 207.185 503.123C207.626 503.599 207.962 504.177 208.193 504.856C208.431 505.528 208.55 506.28 208.55 507.113C208.55 507.953 208.431 508.709 208.193 509.381C207.962 510.053 207.626 510.627 207.185 511.103C206.744 511.579 206.212 511.947 205.589 512.206C204.966 512.458 204.266 512.584 203.489 512.584C202.705 512.584 201.998 512.458 201.368 512.206C200.745 511.947 200.213 511.579 199.772 511.103C199.331 510.627 198.991 510.053 198.753 509.381C198.522 508.709 198.407 507.953 198.407 507.113C198.407 506.28 198.522 505.528 198.753 504.856C198.991 504.177 199.331 503.599 199.772 503.123C200.213 502.647 200.745 502.28 201.368 502.021C201.998 501.762 202.705 501.632 203.489 501.632ZM203.489 511.124C204.539 511.124 205.323 510.774 205.841 510.074C206.359 509.367 206.618 508.384 206.618 507.124C206.618 505.857 206.359 504.87 205.841 504.163C205.323 503.456 204.539 503.102 203.489 503.102C202.957 503.102 202.491 503.193 202.092 503.375C201.7 503.557 201.371 503.82 201.105 504.163C200.846 504.506 200.65 504.929 200.517 505.433C200.391 505.93 200.328 506.494 200.328 507.124C200.328 508.384 200.587 509.367 201.105 510.074C201.63 510.774 202.425 511.124 203.489 511.124ZM214.574 503.344C214.805 503.085 215.05 502.85 215.309 502.64C215.568 502.43 215.841 502.252 216.128 502.105C216.422 501.951 216.73 501.835 217.052 501.758C217.381 501.674 217.735 501.632 218.113 501.632C218.694 501.632 219.205 501.73 219.646 501.926C220.094 502.115 220.465 502.388 220.759 502.745C221.06 503.095 221.287 503.519 221.441 504.016C221.595 504.513 221.672 505.062 221.672 505.664V512.437H219.793V505.664C219.793 504.859 219.607 504.236 219.236 503.795C218.872 503.347 218.316 503.123 217.567 503.123C217.014 503.123 216.496 503.256 216.013 503.522C215.537 503.788 215.096 504.149 214.69 504.604V512.437H212.81V501.8H213.934C214.2 501.8 214.364 501.93 214.427 502.189L214.574 503.344ZM232.175 507.649C231.314 507.677 230.579 507.747 229.97 507.859C229.368 507.964 228.874 508.104 228.489 508.279C228.111 508.454 227.835 508.66 227.66 508.898C227.492 509.136 227.408 509.402 227.408 509.696C227.408 509.976 227.453 510.218 227.544 510.421C227.635 510.624 227.758 510.792 227.912 510.925C228.073 511.051 228.258 511.145 228.468 511.208C228.685 511.264 228.916 511.292 229.161 511.292C229.49 511.292 229.791 511.261 230.064 511.198C230.337 511.128 230.593 511.03 230.831 510.904C231.076 510.778 231.307 510.627 231.524 510.452C231.748 510.277 231.965 510.078 232.175 509.854V507.649ZM226.137 503.302C226.725 502.735 227.359 502.311 228.038 502.031C228.717 501.751 229.469 501.611 230.295 501.611C230.89 501.611 231.419 501.709 231.881 501.905C232.343 502.101 232.731 502.374 233.046 502.724C233.361 503.074 233.599 503.498 233.76 503.995C233.921 504.492 234.002 505.038 234.002 505.633V512.437H233.172C232.99 512.437 232.85 512.409 232.752 512.353C232.654 512.29 232.577 512.171 232.521 511.996L232.311 510.988C232.031 511.247 231.758 511.478 231.492 511.681C231.226 511.877 230.946 512.045 230.652 512.185C230.358 512.318 230.043 512.419 229.707 512.489C229.378 512.566 229.011 512.605 228.605 512.605C228.192 512.605 227.803 512.549 227.439 512.437C227.075 512.318 226.757 512.143 226.484 511.912C226.218 511.681 226.004 511.39 225.843 511.04C225.689 510.683 225.612 510.263 225.612 509.78C225.612 509.36 225.728 508.958 225.959 508.573C226.19 508.181 226.564 507.834 227.082 507.533C227.6 507.232 228.276 506.987 229.109 506.798C229.942 506.602 230.964 506.49 232.175 506.462V505.633C232.175 504.807 231.996 504.184 231.639 503.764C231.282 503.337 230.761 503.123 230.075 503.123C229.613 503.123 229.224 503.183 228.909 503.302C228.601 503.414 228.332 503.543 228.101 503.69C227.877 503.83 227.681 503.96 227.513 504.079C227.352 504.191 227.191 504.247 227.03 504.247C226.904 504.247 226.795 504.215 226.704 504.152C226.613 504.082 226.536 503.998 226.473 503.9L226.137 503.302ZM258.633 497.39V512.437H257.615C257.454 512.437 257.317 512.409 257.205 512.353C257.1 512.297 256.995 512.202 256.89 512.069L248.186 500.729C248.2 500.904 248.21 501.076 248.217 501.244C248.224 501.412 248.228 501.569 248.228 501.716V512.437H246.443V497.39H247.493C247.584 497.39 247.661 497.397 247.724 497.411C247.787 497.418 247.843 497.436 247.892 497.464C247.941 497.485 247.99 497.52 248.039 497.569C248.088 497.611 248.14 497.667 248.196 497.737L256.901 509.066C256.887 508.884 256.873 508.709 256.859 508.541C256.852 508.366 256.848 508.202 256.848 508.048V497.39H258.633ZM268.084 501.632C268.861 501.632 269.561 501.762 270.184 502.021C270.807 502.28 271.339 502.647 271.78 503.123C272.221 503.599 272.557 504.177 272.788 504.856C273.026 505.528 273.145 506.28 273.145 507.113C273.145 507.953 273.026 508.709 272.788 509.381C272.557 510.053 272.221 510.627 271.78 511.103C271.339 511.579 270.807 511.947 270.184 512.206C269.561 512.458 268.861 512.584 268.084 512.584C267.3 512.584 266.593 512.458 265.963 512.206C265.34 511.947 264.808 511.579 264.367 511.103C263.926 510.627 263.587 510.053 263.349 509.381C263.118 508.709 263.002 507.953 263.002 507.113C263.002 506.28 263.118 505.528 263.349 504.856C263.587 504.177 263.926 503.599 264.367 503.123C264.808 502.647 265.34 502.28 265.963 502.021C266.593 501.762 267.3 501.632 268.084 501.632ZM268.084 511.124C269.134 511.124 269.918 510.774 270.436 510.074C270.954 509.367 271.213 508.384 271.213 507.124C271.213 505.857 270.954 504.87 270.436 504.163C269.918 503.456 269.134 503.102 268.084 503.102C267.552 503.102 267.087 503.193 266.688 503.375C266.296 503.557 265.967 503.82 265.701 504.163C265.442 504.506 265.246 504.929 265.113 505.433C264.987 505.93 264.924 506.494 264.924 507.124C264.924 508.384 265.183 509.367 265.701 510.074C266.226 510.774 267.02 511.124 268.084 511.124ZM279.18 503.932C279.516 503.204 279.929 502.637 280.419 502.231C280.909 501.818 281.508 501.611 282.215 501.611C282.439 501.611 282.652 501.636 282.855 501.685C283.065 501.734 283.251 501.811 283.412 501.916L283.275 503.312C283.233 503.487 283.128 503.575 282.96 503.575C282.862 503.575 282.719 503.554 282.53 503.512C282.341 503.47 282.127 503.449 281.889 503.449C281.553 503.449 281.252 503.498 280.986 503.596C280.727 503.694 280.493 503.841 280.283 504.037C280.08 504.226 279.894 504.464 279.726 504.751C279.565 505.031 279.418 505.353 279.285 505.717V512.437H277.406V501.8H278.477C278.68 501.8 278.82 501.839 278.897 501.916C278.974 501.993 279.026 502.126 279.054 502.315L279.18 503.932ZM290.211 512.605C289.371 512.605 288.723 512.37 288.268 511.901C287.82 511.432 287.596 510.757 287.596 509.875V503.365H286.315C286.203 503.365 286.109 503.333 286.032 503.27C285.955 503.2 285.916 503.095 285.916 502.955V502.21L287.659 501.989L288.09 498.703C288.111 498.598 288.156 498.514 288.226 498.451C288.303 498.381 288.401 498.346 288.52 498.346H289.465V502.01H292.542V503.365H289.465V509.749C289.465 510.197 289.574 510.529 289.791 510.746C290.008 510.963 290.288 511.072 290.631 511.072C290.827 511.072 290.995 511.047 291.135 510.998C291.282 510.942 291.408 510.883 291.513 510.82C291.618 510.757 291.705 510.701 291.775 510.652C291.852 510.596 291.919 510.568 291.975 510.568C292.073 510.568 292.16 510.627 292.237 510.746L292.783 511.639C292.461 511.94 292.073 512.178 291.618 512.353C291.163 512.521 290.694 512.605 290.211 512.605ZM303.419 505.958C303.419 505.524 303.356 505.129 303.23 504.772C303.111 504.408 302.932 504.096 302.694 503.837C302.463 503.571 302.18 503.368 301.844 503.228C301.508 503.081 301.126 503.008 300.699 503.008C299.803 503.008 299.093 503.27 298.568 503.795C298.05 504.313 297.728 505.034 297.602 505.958H303.419ZM304.931 510.946C304.7 511.226 304.423 511.471 304.101 511.681C303.779 511.884 303.433 512.052 303.062 512.185C302.698 512.318 302.32 512.416 301.928 512.479C301.536 512.549 301.147 512.584 300.762 512.584C300.027 512.584 299.348 512.461 298.725 512.216C298.109 511.964 297.574 511.6 297.119 511.124C296.671 510.641 296.321 510.046 296.069 509.339C295.817 508.632 295.691 507.82 295.691 506.903C295.691 506.161 295.803 505.468 296.027 504.824C296.258 504.18 296.587 503.624 297.014 503.155C297.441 502.679 297.962 502.308 298.578 502.042C299.194 501.769 299.887 501.632 300.657 501.632C301.294 501.632 301.882 501.741 302.421 501.958C302.967 502.168 303.436 502.476 303.828 502.882C304.227 503.281 304.539 503.778 304.763 504.373C304.987 504.961 305.099 505.633 305.099 506.389C305.099 506.683 305.067 506.879 305.004 506.977C304.941 507.075 304.822 507.124 304.647 507.124H297.539C297.56 507.796 297.651 508.38 297.812 508.877C297.98 509.374 298.211 509.791 298.505 510.127C298.799 510.456 299.149 510.704 299.555 510.872C299.961 511.033 300.416 511.114 300.92 511.114C301.389 511.114 301.791 511.061 302.127 510.956C302.47 510.844 302.764 510.725 303.009 510.599C303.254 510.473 303.457 510.358 303.618 510.253C303.786 510.141 303.93 510.085 304.049 510.085C304.203 510.085 304.322 510.144 304.406 510.263L304.931 510.946Z" fill="black"/>
</svg>
