<svg width="770" height="1179" viewBox="0 0 770 1179" fill="none" xmlns="http://www.w3.org/2000/svg">
<path d="M27 0H745.276C745.276 0 689.385 164.929 695.871 279.682C702.498 396.937 745.276 477.036 745.276 592.144C745.276 707.251 685.494 774.781 711.072 884.25C726.018 948.211 771.121 968.485 769.979 1035.72C768.884 1100.16 711.072 1179 711.072 1179H27V0Z" fill="#5C89E6"/>
<path d="M0 0.108398H720.436C720.436 0.108398 664.376 165.023 670.882 279.765C677.529 397.009 720.436 477.101 720.436 592.198C720.436 707.294 660.473 774.819 686.129 884.277C701.12 948.233 746.358 968.505 745.213 1035.74C744.115 1100.17 686.129 1179 686.129 1179H0V0.108398Z" fill="#0052FB"/>
</svg>
