<svg width="24" height="24" viewBox="0 0 24 24" fill="none" xmlns="http://www.w3.org/2000/svg">
<path d="M5.99826 21.9936C5.46798 21.9936 4.95942 21.783 4.58446 21.408C4.20949 21.033 3.99884 20.5245 3.99884 19.9942V3.99881C3.99884 3.46853 4.20949 2.95997 4.58446 2.58501C4.95942 2.21005 5.46798 1.99939 5.99826 1.99939H13.9959C14.3124 1.99888 14.6258 2.06098 14.9182 2.18211C15.2106 2.30324 15.4761 2.48101 15.6995 2.70519L19.2864 6.29215C19.5112 6.51559 19.6895 6.78135 19.811 7.07409C19.9324 7.36682 19.9947 7.68072 19.9942 7.99766V19.9942C19.9942 20.5245 19.7836 21.033 19.4086 21.408C19.0336 21.783 18.5251 21.9936 17.9948 21.9936H5.99826Z" stroke="white" stroke-width="1.99942" stroke-linecap="round" stroke-linejoin="round"/>
<path d="M13.996 1.99939V6.99794C13.996 7.26308 14.1013 7.51736 14.2888 7.70485C14.4763 7.89233 14.7305 7.99765 14.9957 7.99765H19.9942" stroke="white" stroke-width="1.99942" stroke-linecap="round" stroke-linejoin="round"/>
<path d="M9.99768 8.99744H7.99768" stroke="white" stroke-width="1.99942" stroke-linecap="round" stroke-linejoin="round"/>
<path d="M15.9954 12.9962H7.99768" stroke="white" stroke-width="1.99942" stroke-linecap="round" stroke-linejoin="round"/>
<path d="M15.9954 16.9951H7.99768" stroke="white" stroke-width="1.99942" stroke-linecap="round" stroke-linejoin="round"/>
</svg>
