<svg width="24" height="24" viewBox="0 0 24 24" fill="none" xmlns="http://www.w3.org/2000/svg">
<path d="M4.49844 16.495C2.99888 17.7547 2.49902 21.4936 2.49902 21.4936C2.49902 21.4936 6.23794 20.9937 7.49758 19.4942C8.20737 18.6544 8.19737 17.3648 7.4076 16.585C7.01902 16.2141 6.50716 15.9998 5.97024 15.9832C5.43333 15.9666 4.9092 16.1489 4.49844 16.495Z" stroke="white" stroke-width="1.99942" stroke-linecap="round" stroke-linejoin="round"/>
<path d="M11.9962 14.9954L8.99707 11.9963C9.52906 10.6161 10.1989 9.2931 10.9965 8.0474C12.1613 6.18492 13.7833 4.65143 15.7081 3.59278C17.6329 2.53413 19.7966 1.98552 21.9933 1.99915C21.9933 4.71836 21.2135 9.49698 15.995 12.996C14.7323 13.7945 13.3926 14.4643 11.9962 14.9954Z" stroke="white" stroke-width="1.99942" stroke-linecap="round" stroke-linejoin="round"/>
<path d="M8.9974 11.9965H3.99884C3.99884 11.9965 4.54868 8.9674 5.99827 7.99768C7.6178 6.918 10.9968 7.99768 10.9968 7.99768" stroke="white" stroke-width="1.99942" stroke-linecap="round" stroke-linejoin="round"/>
<path d="M11.9961 14.9956V19.9942C11.9961 19.9942 15.0252 19.4443 15.9949 17.9948C17.0746 16.3752 15.9949 12.9962 15.9949 12.9962" stroke="white" stroke-width="1.99942" stroke-linecap="round" stroke-linejoin="round"/>
</svg>
