<svg width="24" height="24" viewBox="0 0 24 24" fill="none" xmlns="http://www.w3.org/2000/svg">
<path d="M15.9954 20.9939V18.9944C15.9954 17.9339 15.5741 16.9168 14.8241 16.1668C14.0742 15.4169 13.0571 14.9956 11.9965 14.9956H5.99826C4.9377 14.9956 3.92058 15.4169 3.17065 16.1668C2.42073 16.9168 1.99942 17.9339 1.99942 18.9944V20.9939" stroke="white" stroke-width="1.99942" stroke-linecap="round" stroke-linejoin="round"/>
<path d="M15.9954 3.12708C16.8529 3.34938 17.6123 3.85013 18.1544 4.55073C18.6965 5.25132 18.9907 6.1121 18.9907 6.99796C18.9907 7.88381 18.6965 8.74459 18.1544 9.44518C17.6123 10.1458 16.8529 10.6465 15.9954 10.8688" stroke="white" stroke-width="1.99942" stroke-linecap="round" stroke-linejoin="round"/>
<path d="M21.9936 20.9938V18.9944C21.993 18.1084 21.6981 17.2476 21.1552 16.5474C20.6124 15.8471 19.8524 15.347 18.9945 15.1255" stroke="white" stroke-width="1.99942" stroke-linecap="round" stroke-linejoin="round"/>
<path d="M8.99741 10.9968C11.2059 10.9968 12.9963 9.20649 12.9963 6.99799C12.9963 4.78949 11.2059 2.99915 8.99741 2.99915C6.78891 2.99915 4.99857 4.78949 4.99857 6.99799C4.99857 9.20649 6.78891 10.9968 8.99741 10.9968Z" stroke="white" stroke-width="1.99942" stroke-linecap="round" stroke-linejoin="round"/>
</svg>
