<svg width="32" height="32" viewBox="0 0 32 32" fill="none" xmlns="http://www.w3.org/2000/svg">
<path d="M20.6335 17.1848L22.6532 28.5516C22.6759 28.6854 22.6571 28.823 22.5994 28.9459C22.5417 29.0688 22.4479 29.1711 22.3305 29.2392C22.2131 29.3074 22.0777 29.338 21.9424 29.3271C21.8071 29.3162 21.6783 29.2642 21.5734 29.1782L16.8005 25.5959C16.5701 25.4238 16.2902 25.3308 16.0026 25.3308C15.715 25.3308 15.4351 25.4238 15.2047 25.5959L10.4239 29.1768C10.319 29.2628 10.1904 29.3146 10.0553 29.3256C9.92013 29.3365 9.78487 29.3059 9.66754 29.238C9.55021 29.1701 9.45638 29.068 9.39858 28.9453C9.34077 28.8227 9.32174 28.6853 9.34402 28.5516L11.3625 17.1848" stroke="#155DFC" stroke-width="2.66638" stroke-linecap="round" stroke-linejoin="round"/>
<path d="M15.9983 18.6646C20.4161 18.6646 23.9974 15.0833 23.9974 10.6655C23.9974 6.24772 20.4161 2.66638 15.9983 2.66638C11.5805 2.66638 7.99915 6.24772 7.99915 10.6655C7.99915 15.0833 11.5805 18.6646 15.9983 18.6646Z" stroke="#155DFC" stroke-width="2.66638" stroke-linecap="round" stroke-linejoin="round"/>
</svg>
