<svg width="32" height="32" viewBox="0 0 32 32" fill="none" xmlns="http://www.w3.org/2000/svg">
<path d="M2.74906 16.4622C2.63795 16.1629 2.63795 15.8336 2.74906 15.5343C3.83121 12.9104 5.66809 10.6669 8.02685 9.08819C10.3856 7.50951 13.16 6.66675 15.9983 6.66675C18.8366 6.66675 21.611 7.50951 23.9697 9.08819C26.3285 10.6669 28.1654 12.9104 29.2475 15.5343C29.3586 15.8336 29.3586 16.1629 29.2475 16.4622C28.1654 19.0861 26.3285 21.3296 23.9697 22.9083C21.611 24.487 18.8366 25.3297 15.9983 25.3297C13.16 25.3297 10.3856 24.487 8.02685 22.9083C5.66809 21.3296 3.83121 19.0861 2.74906 16.4622Z" stroke="#155DFC" stroke-width="2.66638" stroke-linecap="round" stroke-linejoin="round"/>
<path d="M15.9983 19.9979C18.2072 19.9979 19.9978 18.2072 19.9978 15.9983C19.9978 13.7894 18.2072 11.9987 15.9983 11.9987C13.7894 11.9987 11.9987 13.7894 11.9987 15.9983C11.9987 18.2072 13.7894 19.9979 15.9983 19.9979Z" stroke="#155DFC" stroke-width="2.66638" stroke-linecap="round" stroke-linejoin="round"/>
</svg>
