<svg width="101" height="76" viewBox="0 0 101 76" fill="none" xmlns="http://www.w3.org/2000/svg">
<g clip-path="url(#clip0_447_364)">
<path d="M1.37769 74.7811C1.37815 74.8067 1.38366 74.8319 1.39392 74.8553C1.40417 74.8787 1.41897 74.8999 1.43745 74.9176C1.45593 74.9354 1.47774 74.9493 1.50163 74.9586C1.52552 74.9679 1.55101 74.9725 1.57666 74.9719H100.801C100.827 74.973 100.853 74.9689 100.877 74.9598C100.901 74.9507 100.923 74.9368 100.942 74.919C100.96 74.9012 100.975 74.8798 100.985 74.8561C100.995 74.8324 101.001 74.8069 101.001 74.7812C101.001 74.7554 100.995 74.7299 100.985 74.7062C100.975 74.6826 100.96 74.6612 100.942 74.6433C100.923 74.6255 100.901 74.6116 100.877 74.6025C100.853 74.5934 100.827 74.5893 100.801 74.5904H1.57666C1.55102 74.5899 1.52553 74.5944 1.50165 74.6037C1.47777 74.613 1.45597 74.6269 1.43749 74.6447C1.41901 74.6624 1.40421 74.6835 1.39395 74.707C1.38369 74.7304 1.37816 74.7556 1.37769 74.7811Z" fill="#CCCCCC"/>
<path d="M51.9412 55.9547C51.8117 56.7353 51.4082 57.4447 50.8027 57.9564C50.1972 58.4682 49.4289 58.7492 48.6348 58.7492C47.8408 58.7492 47.0725 58.4682 46.467 57.9564C45.8614 57.4447 45.458 56.7353 45.3285 55.9547H36.8694V74.2196H60.4002V55.9547H51.9412Z" fill="#D6D6E3"/>
<path d="M39.6055 74.1519H37.2798V74.5609H39.6055V74.1519Z" fill="#B6B3C5"/>
<path d="M60.1949 74.22H57.8691V74.6289H60.1949V74.22Z" fill="#B6B3C5"/>
<path d="M60.4689 72.773H36.938V73.4088H60.4689V72.773Z" fill="#090814"/>
<path d="M95.9578 56.4318H1.31181C0.964018 56.4314 0.630583 56.2936 0.384656 56.0485C0.13873 55.8035 0.000394822 55.4713 0 55.1247L0 1.30715C0.000364455 0.960602 0.138686 0.628352 0.384616 0.383296C0.630546 0.13824 0.963998 0.00039344 1.31181 0H95.9578C96.3056 0.000393384 96.639 0.138225 96.885 0.383256C97.1309 0.628287 97.2692 0.960507 97.2696 1.30703V55.1247C97.2692 55.4713 97.1308 55.8035 96.8849 56.0485C96.639 56.2935 96.3056 56.4313 95.9578 56.4318Z" fill="#090814"/>
<path d="M94.9437 2.18097H2.32544V54.2509H94.9437V2.18097Z" fill="white"/>
<path d="M48.7218 28.108L38.7912 20.6969L28.9963 28.0067L28.772 27.7087L38.7912 20.2315L48.6746 27.6073L58.4959 16.8986L58.5353 16.8826L68.4424 12.9056L68.5822 13.2511L58.7146 17.2123L48.7218 28.108Z" fill="#D6D6E3"/>
<path d="M78.568 41.826H18.8388C18.7892 41.826 18.7417 41.8063 18.7066 41.7714C18.6716 41.7365 18.6519 41.6891 18.6519 41.6397V13.1158C18.6519 13.0664 18.6716 13.019 18.7066 12.9841C18.7417 12.9492 18.7892 12.9296 18.8388 12.9296C18.8884 12.9296 18.9359 12.9492 18.971 12.9841C19.006 13.019 19.0257 13.0664 19.0257 13.1158V41.4535H78.568C78.6176 41.4535 78.6652 41.4731 78.7002 41.508C78.7353 41.5429 78.755 41.5903 78.755 41.6397C78.755 41.6891 78.7353 41.7365 78.7002 41.7714C78.6652 41.8063 78.6176 41.826 78.568 41.826Z" fill="#3F3D56"/>
<path d="M31.6004 39.7773H26.1677C26.0206 39.7771 25.8796 39.7188 25.7755 39.6152C25.6715 39.5116 25.613 39.3711 25.6128 39.2245V31.7628C25.613 31.6162 25.6715 31.4757 25.7755 31.3721C25.8796 31.2684 26.0206 31.2101 26.1677 31.21H31.6003C31.7474 31.2101 31.8884 31.2684 31.9925 31.3721C32.0965 31.4757 32.155 31.6162 32.1552 31.7628V39.2246C32.155 39.3711 32.0965 39.5116 31.9925 39.6152C31.8885 39.7188 31.7475 39.7771 31.6004 39.7773Z" fill="#0052FB"/>
<path d="M41.5076 39.7772H36.0749C35.9278 39.777 35.7868 39.7187 35.6828 39.6151C35.5787 39.5115 35.5202 39.3709 35.52 39.2244V24.6854C35.5202 24.5389 35.5787 24.3984 35.6828 24.2947C35.7868 24.1911 35.9278 24.1328 36.0749 24.1327H41.5075C41.6546 24.1328 41.7957 24.1911 41.8997 24.2947C42.0037 24.3984 42.0622 24.5389 42.0624 24.6854V39.2244C42.0622 39.3709 42.0037 39.5115 41.8997 39.6151C41.7957 39.7187 41.6546 39.777 41.5075 39.7772H41.5076Z" fill="#0052FB"/>
<path d="M51.4146 39.7773H45.9819C45.8348 39.7771 45.6938 39.7188 45.5897 39.6152C45.4857 39.5116 45.4272 39.3711 45.427 39.2245V31.7628C45.4272 31.6162 45.4857 31.4757 45.5897 31.3721C45.6938 31.2684 45.8348 31.2101 45.9819 31.21H51.4145C51.5616 31.2101 51.7026 31.2684 51.8067 31.3721C51.9107 31.4757 51.9692 31.6162 51.9694 31.7628V39.2246C51.9692 39.3711 51.9107 39.5116 51.8067 39.6152C51.7027 39.7188 51.5617 39.7771 51.4146 39.7773Z" fill="#0052FB"/>
<path d="M61.3216 39.7773H55.8889C55.7451 39.7804 55.606 39.7265 55.502 39.6276C55.398 39.5287 55.3376 39.3927 55.334 39.2495V21.8668C55.3375 21.7236 55.3979 21.5876 55.502 21.4886C55.606 21.3897 55.7451 21.3359 55.8889 21.339H61.3215C61.4652 21.3359 61.6044 21.3897 61.7084 21.4886C61.8124 21.5875 61.8728 21.7235 61.8764 21.8667V39.2494C61.8728 39.3926 61.8125 39.5286 61.7085 39.6275C61.6045 39.7265 61.4653 39.7803 61.3216 39.7773Z" fill="#0052FB"/>
<path d="M71.2286 39.7773H65.7959C65.6488 39.7771 65.5077 39.7188 65.4037 39.6152C65.2997 39.5116 65.2411 39.371 65.241 39.2245V16.8632C65.2411 16.7167 65.2997 16.5762 65.4037 16.4725C65.5077 16.3689 65.6488 16.3106 65.7959 16.3105H71.2285C71.3756 16.3106 71.5166 16.3689 71.6206 16.4725C71.7247 16.5762 71.7832 16.7167 71.7834 16.8632V39.2245C71.7832 39.371 71.7247 39.5116 71.6206 39.6152C71.5166 39.7188 71.3757 39.7771 71.2286 39.7773Z" fill="#0052FB"/>
<path d="M28.8607 28.9216C29.4949 28.9216 30.009 28.4414 30.009 27.8491C30.009 27.2567 29.4949 26.7766 28.8607 26.7766C28.2265 26.7766 27.7124 27.2567 27.7124 27.8491C27.7124 28.4414 28.2265 28.9216 28.8607 28.9216Z" fill="#3F3D56"/>
<path d="M38.7643 21.7714C39.3984 21.7714 39.9126 21.2591 39.9126 20.6273C39.9126 19.9954 39.3984 19.4832 38.7643 19.4832C38.1301 19.4832 37.616 19.9954 37.616 20.6273C37.616 21.2591 38.1301 21.7714 38.7643 21.7714Z" fill="#3F3D56"/>
<path d="M48.6678 28.9216C49.302 28.9216 49.8161 28.4414 49.8161 27.8491C49.8161 27.2567 49.302 26.7766 48.6678 26.7766C48.0336 26.7766 47.5195 27.2567 47.5195 27.8491C47.5195 28.4414 48.0336 28.9216 48.6678 28.9216Z" fill="#3F3D56"/>
<path d="M58.5716 18.1961C59.2058 18.1961 59.7199 17.6839 59.7199 17.052C59.7199 16.4201 59.2058 15.9079 58.5716 15.9079C57.9374 15.9079 57.4233 16.4201 57.4233 17.052C57.4233 17.6839 57.9374 18.1961 58.5716 18.1961Z" fill="#3F3D56"/>
<path d="M68.4752 14.1924C69.1094 14.1924 69.6235 13.68 69.6235 13.048C69.6235 12.416 69.1094 11.9037 68.4752 11.9037C67.841 11.9037 67.3269 12.416 67.3269 13.048C67.3269 13.68 67.841 14.1924 68.4752 14.1924Z" fill="#3F3D56"/>
<path d="M78.5551 32.9073C78.5551 32.9073 76.8543 32.6151 74.3323 30.3361C72.3369 28.5336 69.6455 28.888 68.6077 29.1153C68.5723 29.1229 68.5401 29.1411 68.5154 29.1675C68.4907 29.1939 68.4747 29.2271 68.4696 29.2628C68.4644 29.2986 68.4704 29.335 68.4867 29.3672C68.5029 29.3994 68.5287 29.4259 68.5605 29.4431C68.9799 29.6718 69.6302 30.0058 69.935 30.0439C69.935 30.0439 69.3064 30.6918 69.9745 31.0386C70.0545 31.0777 70.1438 31.094 70.2325 31.0854C70.3212 31.0769 70.4058 31.044 70.4768 30.9903C70.7981 30.7566 71.6907 31.2876 72.9847 31.5633C72.9847 31.5633 78.0285 36.7639 79.2014 35.8823L78.5551 32.9073Z" fill="#FFB9B9"/>
<path d="M87.239 25.8368C87.239 25.8368 87.7082 27.8235 87.239 29.226L89.3504 29.5181L91.2271 28.5831V27.3561C91.2271 27.3561 90.3473 25.4862 90.582 23.3241L87.239 25.8368Z" fill="#FFB9B9"/>
<path d="M93.2173 68.9008C93.2173 68.9008 94.7472 71.881 94.5075 73.8678C94.2678 75.8547 96.5015 74.1015 96.267 72.9328C96.2173 74.3475 96.9236 67.9785 97.2538 66.4872C97.2896 66.326 97.264 66.1574 97.1821 66.0139C97.1001 65.8705 96.9676 65.7625 96.8102 65.711C96.1051 65.4798 94.9245 65.1965 94.3316 65.6297C93.4557 66.2712 93.2173 68.9008 93.2173 68.9008Z" fill="#090814"/>
<path d="M87.4148 72.1731C87.4148 72.1731 85.4207 74.7442 84.893 74.8027C84.3653 74.8613 84.0132 75.6793 84.893 75.8546C86.6495 76.1592 88.4561 75.9836 90.1204 75.3465C90.287 75.2817 90.4269 75.1632 90.5177 75.0098C90.6086 74.8563 90.6451 74.677 90.6215 74.5004L90.2849 71.9978L87.4148 72.1731Z" fill="#090814"/>
<path d="M84.1304 44.8852L82.2179 45.139C82.4804 47.3647 82.4727 49.6137 82.1949 51.8375V59.8406C82.1949 59.8406 82.158 60.5457 83.6267 61.5708C85.1669 62.6377 86.6513 63.7825 88.0738 65.0008L93.3956 69.5945C93.3956 69.5945 95.5069 67.0233 95.2136 65.504C95.2136 65.504 91.6948 64.3938 91.2255 62.5823C90.9566 61.5457 89.5923 60.6769 88.4755 60.1306C87.7733 59.7909 87.2089 59.222 86.8761 58.5185C86.5433 57.8151 86.462 57.0193 86.6458 56.2635C86.711 56.0008 86.8118 55.7482 86.9454 55.5126C87.8838 53.8765 89.2327 50.1951 89.2327 50.1951L86.6522 45.2942L84.1304 44.8852Z" fill="#090814"/>
<path d="M86.9459 72.3521C86.9459 72.3521 90.4061 72.9365 90.5234 73.2871C90.6407 73.6378 90.5234 72.8196 90.5234 72.8196C90.5234 72.8196 92.518 66.801 92.0534 61.4846C91.5887 56.1682 92.6399 52.6609 92.6399 52.6609C92.6399 52.6609 93.8714 48.6873 93.1677 46.4084C92.4639 44.1294 85.0742 45.1228 85.0742 45.1228C85.0742 45.1228 87.6548 51.1417 87.5962 54.005C87.5962 54.005 87.8894 62.6533 88.4172 63.6467C88.412 63.6417 87.591 72.1148 86.9459 72.3521Z" fill="#090814"/>
<path d="M87.3525 27.3561C87.3525 27.3561 87.7044 29.5157 91.2233 28.5832L88.8824 46.3462C88.8824 46.3462 82.0792 46.5799 82.1378 45.7618L83.5403 35.011L87.3525 27.3561Z" fill="white"/>
<path d="M87.4444 27.2976C86.9202 27.7061 86.2935 27.9632 85.6326 28.0407C85.0487 28.0853 84.4811 28.2533 83.9675 28.5336C83.3645 28.8702 82.6925 29.3593 82.4885 29.9551C82.0779 31.1238 79.4974 33.0521 78.3245 32.6431L78.735 36.1492C78.735 36.1492 82.078 35.9739 82.6645 34.6883L81.6687 47.1992H82.5484C82.5484 47.1992 83.0176 43.81 83.3694 43.1088C83.7212 42.4076 84.4251 38.5508 84.4837 37.6158C84.5424 36.6808 85.4221 31.3048 86.1845 30.375L87.4455 27.6578L87.4444 27.2976Z" fill="#D6D6E3"/>
<path opacity="0.1" d="M90.4354 25.0479C90.3588 24.494 90.5119 24.1484 90.582 23.4994L87.239 26.012C87.239 26.012 87.3193 26.3512 87.3805 26.8479C87.5491 26.875 87.7196 26.8887 87.8904 26.8886C89.0509 26.8886 89.8858 25.9854 90.4354 25.0479Z" fill="black"/>
<path d="M87.8841 26.7146C89.6332 26.7146 91.0512 25.3018 91.0512 23.559C91.0512 21.8163 89.6332 20.4035 87.8841 20.4035C86.135 20.4035 84.717 21.8163 84.717 23.559C84.717 25.3018 86.135 26.7146 87.8841 26.7146Z" fill="#FFB9B9"/>
<path d="M84.7011 20.872C84.6824 20.381 84.7625 19.8912 84.9365 19.4315C84.8882 19.5038 84.8678 19.5911 84.879 19.6773C84.8903 19.7634 84.9324 19.8426 84.9977 19.9002C85.0919 19.399 85.3502 18.943 85.7321 18.6035C85.5238 18.6378 85.4167 18.8942 85.4681 19.0983C85.5385 19.2976 85.6636 19.4731 85.8294 19.6048C85.8117 19.2961 86.0165 19.008 86.2754 18.8388C86.5451 18.6844 86.8398 18.5781 87.1462 18.5246C87.0412 18.5618 86.9514 18.6325 86.8909 18.7258C86.8305 18.8191 86.8027 18.9298 86.812 19.0405C86.8128 19.0781 86.8284 19.1139 86.8554 19.1402C86.8849 19.1589 86.9195 19.168 86.9544 19.166C87.2593 19.1777 87.5646 19.1711 87.8687 19.1461C88.2426 19.1042 88.6186 19.0842 88.9948 19.0863C90.1716 19.1356 91.3543 19.9364 91.6179 21.0796C91.6725 21.3569 91.7013 21.6387 91.7038 21.9214L91.7612 23.3647C91.7947 23.7857 91.7773 24.2093 91.7094 24.6262C91.6279 25.0111 91.4622 25.3734 91.224 25.6871C90.9858 26.0009 90.681 26.2584 90.3314 26.4412C89.9068 25.8281 89.869 25.0401 89.7219 24.3096C89.6986 24.1411 89.6357 23.9805 89.5383 23.8409C89.4879 23.7718 89.4173 23.72 89.3361 23.6927C89.255 23.6654 89.1673 23.6639 89.0852 23.6885C88.9263 23.7518 88.8582 23.9933 88.9899 24.1012C88.8722 24.2396 88.6522 24.1364 88.5194 24.0133C88.1481 23.6623 87.8924 23.2072 87.7863 22.7083C87.7334 22.4574 87.6804 22.1481 87.4332 22.0622C87.3482 22.039 87.2594 22.033 87.172 22.0446C86.6566 22.0798 85.8505 22.292 85.3515 22.129C84.8938 21.979 84.7011 21.3048 84.7011 20.872Z" fill="#090814"/>
<path d="M78.3003 32.6444C78.3003 32.6444 77.8311 34.804 78.7109 36.1505L79.2093 36.1098L78.9377 32.6798L78.3003 32.6444Z" fill="#D6D6E3"/>
<path d="M91.022 26.7475L94.8049 29.9906C94.8049 29.9906 97.0334 32.2697 96.095 35.9512C96.095 35.9512 95.6844 41.3273 95.2152 41.561C95.2152 41.561 93.5731 44.8333 93.4558 47.9303C93.4558 47.9303 91.1391 43.2847 90.1409 45.9728C89.1427 48.6608 86.9446 49.2754 86.9446 49.2754L88.2348 33.3824C88.2348 33.3824 91.4912 27.7358 91.022 26.7475Z" fill="#D6D6E3"/>
<path d="M92.7519 40.4455C92.7519 40.4455 93.6903 39.8028 95.2151 41.5558L91.4617 48.3343L90.2007 46.4376C90.2007 46.4376 92.8697 41.2051 92.7519 40.4455Z" fill="#FFB9B9"/>
<path d="M91.8428 40.7085C91.8428 40.7085 93.9185 43.0307 94.728 42.6584L95.4777 40.9193L92.6638 39.7151L91.8428 40.7085Z" fill="#D6D6E3"/>
<path opacity="0.1" d="M92.1361 33.5794C92.1361 33.5794 92.2534 37.7868 91.7842 39.3645L92.1361 33.5794Z" fill="black"/>
<path opacity="0.1" d="M82.635 34.3974C82.635 34.3974 83.3388 34.1637 83.3388 33.5794L82.635 34.3974Z" fill="black"/>
</g>
<defs>
<clipPath id="clip0_447_364">
<rect width="101" height="76" fill="white"/>
</clipPath>
</defs>
</svg>
