<svg width="101" height="78" viewBox="0 0 101 78" fill="none" xmlns="http://www.w3.org/2000/svg">
<g clip-path="url(#clip0_447_456)">
<path d="M47.6745 31.8664C47.6745 31.8664 48.9841 41.6838 46.9693 42.7863C44.9545 43.8887 58.9573 43.9884 58.9573 43.9884C58.9573 43.9884 55.8344 35.473 57.2446 32.8681L47.6745 31.8664Z" fill="#ED9DA0"/>
<path d="M53.3159 37.178C57.1548 37.178 60.2669 34.0832 60.2669 30.2656C60.2669 26.4479 57.1548 23.3531 53.3159 23.3531C49.477 23.3531 46.365 26.4479 46.365 30.2656C46.365 34.0832 49.477 37.178 53.3159 37.178Z" fill="#ED9DA0"/>
<path d="M69.1825 44.0382L68.0179 49.3119L65.5558 60.4689L65.482 61.0799L64.6323 68.1536L64.0667 72.8527L63.688 76.0093C61.3834 77.1871 59.7132 78.0003 59.7132 78.0003C59.7132 78.0003 59.5695 77.2845 59.3379 76.3679C57.7206 76.8501 54.7279 77.6501 52.1914 77.8099C53.1149 78.8336 38.852 52.7941 38.3047 49.3122C37.8641 46.51 37.5333 44.1421 37.4634 43.6384C37.4539 43.5726 37.4492 43.5387 37.4492 43.5387L48.0767 38.8687C48.832 40.6105 52.3587 41.1341 52.3587 41.1341C55.2804 40.9338 57.5709 39.4013 57.5709 39.4013L69.1825 44.0382Z" fill="#0052FB"/>
<path d="M76.7377 68.2822C76.0298 69.0455 74.2756 70.1951 72.1485 71.4397C71.3574 71.9022 70.5152 72.3788 69.656 72.8526C67.6057 73.9834 65.4591 75.104 63.6876 76.0092C61.383 77.187 59.7128 78.0001 59.7128 78.0001C59.7128 78.0001 59.5691 77.2844 59.3376 76.3678C59.0275 75.141 58.5605 73.5551 58.0738 72.8531C58.0567 72.8286 58.0398 72.8061 58.0233 72.7835C57.8815 72.5983 57.7388 72.4902 57.5979 72.4902L64.6318 68.1535L67.6717 66.279L65.4816 61.0798L62.7347 54.558L64.3927 49.3117L66.0593 44.038H69.1825C69.1825 44.038 70.2166 46.2827 71.5391 49.4131C71.7367 49.8812 71.9408 50.3691 72.1488 50.8729C74.8689 57.4531 78.2608 66.6414 76.7377 68.2822Z" fill="#0052FB"/>
<path d="M45.3072 72.7906C45.0506 72.7896 44.7945 72.8103 44.5415 72.8526C42.3684 73.2239 41.7275 75.1801 41.545 76.4905C41.4866 76.8906 41.4645 77.2952 41.4789 77.6993L39.5596 76.2309L38.8601 75.696C37.1767 75.1123 35.6765 74.0755 34.3759 72.8525C33.2475 71.7728 32.2354 70.5791 31.3558 69.2907C30.4797 68.0209 29.6987 66.6888 29.0191 65.305C28.8296 64.9189 28.7276 64.4961 28.7206 64.0664C28.7136 63.6368 28.8016 63.2109 28.9785 62.8188L31.3558 57.55L34.8306 49.8494C34.8558 49.6661 34.8838 49.4869 34.9147 49.3117C35.6038 45.3824 37.4498 43.6378 37.4498 43.6378H38.8594L39.8027 49.3119L40.9748 56.3611L40.1533 59.025L38.2552 65.1777L40.0691 67.1365L45.3072 72.7906Z" fill="#0052FB"/>
<path d="M74.3885 75.9926V76.5631C74.3889 76.7197 74.3597 76.875 74.3025 77.021C74.2772 77.0861 74.2465 77.1491 74.2109 77.2093C74.0982 77.3973 73.9383 77.5531 73.7469 77.6612C73.5555 77.7693 73.3392 77.826 73.1191 77.8259H30.9091C30.689 77.8261 30.4726 77.7693 30.2812 77.6612C30.0898 77.5531 29.93 77.3974 29.8173 77.2093C29.7817 77.1491 29.751 77.0861 29.7256 77.021C29.6685 76.875 29.6393 76.7197 29.6397 76.5631V75.9926C29.6396 75.8268 29.6724 75.6626 29.7362 75.5094C29.8 75.3562 29.8935 75.217 30.0114 75.0998C30.1292 74.9826 30.2692 74.8896 30.4233 74.8261C30.5773 74.7627 30.7424 74.7301 30.9091 74.7301H33.3425V74.4641C33.3425 74.4501 33.348 74.4367 33.358 74.4269C33.3679 74.417 33.3813 74.4115 33.3954 74.4115H34.6648C34.6718 74.4115 34.6787 74.4128 34.6851 74.4154C34.6915 74.4181 34.6974 74.422 34.7023 74.4268C34.7072 74.4317 34.7111 74.4375 34.7137 74.4439C34.7164 74.4503 34.7177 74.4572 34.7177 74.4641V74.7301H35.5108V74.4641C35.5108 74.4501 35.5164 74.4367 35.5263 74.4269C35.5362 74.417 35.5497 74.4115 35.5637 74.4115H36.833C36.84 74.4115 36.8469 74.4128 36.8533 74.4154C36.8597 74.4181 36.8656 74.422 36.8705 74.4268C36.8754 74.4317 36.8793 74.4375 36.8819 74.4439C36.8846 74.4503 36.8859 74.4572 36.8859 74.4641V74.7301H37.6799V74.4641C37.6799 74.4501 37.6855 74.4367 37.6954 74.4269C37.7053 74.417 37.7187 74.4115 37.7328 74.4115H39.0022C39.0092 74.4115 39.0161 74.4128 39.0225 74.4154C39.0289 74.4181 39.0348 74.422 39.0397 74.4268C39.0446 74.4317 39.0485 74.4375 39.0511 74.4439C39.0538 74.4503 39.0552 74.4572 39.0551 74.4641V74.7301H39.8482V74.4641C39.8482 74.4501 39.8538 74.4367 39.8637 74.4269C39.8736 74.417 39.8871 74.4115 39.9011 74.4115H41.1706C41.1775 74.4115 41.1844 74.4128 41.1908 74.4154C41.1973 74.4181 41.2031 74.422 41.208 74.4268C41.2129 74.4317 41.2168 74.4375 41.2195 74.4439C41.2221 74.4503 41.2235 74.4572 41.2235 74.4641V74.7301H42.0165V74.4641C42.0165 74.4572 42.0179 74.4503 42.0205 74.4439C42.0232 74.4375 42.0271 74.4317 42.032 74.4268C42.0369 74.422 42.0427 74.4181 42.0492 74.4154C42.0556 74.4128 42.0625 74.4115 42.0694 74.4115H43.3389C43.3458 74.4115 43.3527 74.4128 43.3592 74.4154C43.3656 74.4181 43.3714 74.422 43.3763 74.4268C43.3812 74.4317 43.3851 74.4375 43.3878 74.4439C43.3905 74.4503 43.3918 74.4572 43.3918 74.4641V74.7301H44.1859V74.4641C44.1858 74.4572 44.1872 74.4503 44.1899 74.4439C44.1925 74.4375 44.1964 74.4317 44.2013 74.4268C44.2062 74.422 44.2121 74.4181 44.2185 74.4154C44.2249 74.4128 44.2318 74.4115 44.2388 74.4115H45.5086C45.5156 74.4115 45.5224 74.4128 45.5289 74.4154C45.5353 74.4181 45.5411 74.422 45.546 74.4268C45.551 74.4317 45.5549 74.4375 45.5575 74.4439C45.5602 74.4503 45.5615 74.4572 45.5615 74.4641V74.7301H46.3546V74.4641C46.3546 74.4572 46.3559 74.4503 46.3586 74.4439C46.3612 74.4375 46.3651 74.4317 46.37 74.4268C46.3749 74.422 46.3808 74.4181 46.3872 74.4154C46.3936 74.4128 46.4005 74.4115 46.4075 74.4115H56.3515C56.3585 74.4115 56.3653 74.4128 56.3718 74.4154C56.3782 74.4181 56.384 74.422 56.3889 74.4268C56.3939 74.4317 56.3978 74.4375 56.4004 74.4439C56.4031 74.4503 56.4044 74.4572 56.4044 74.4641V74.7301H57.1985V74.4641C57.1985 74.4501 57.2041 74.4367 57.214 74.4269C57.2239 74.417 57.2374 74.4115 57.2514 74.4115H58.5208C58.5348 74.4116 58.5482 74.4172 58.5581 74.4271C58.5679 74.4369 58.5736 74.4502 58.5737 74.4641V74.7301H59.3668V74.4641C59.3668 74.4572 59.3681 74.4503 59.3708 74.4439C59.3735 74.4375 59.3773 74.4317 59.3823 74.4268C59.3872 74.422 59.393 74.4181 59.3994 74.4154C59.4059 74.4128 59.4128 74.4115 59.4197 74.4115H60.6893C60.6962 74.4115 60.7031 74.4128 60.7096 74.4154C60.716 74.4181 60.7218 74.422 60.7267 74.4268C60.7317 74.4317 60.7355 74.4375 60.7382 74.4439C60.7409 74.4503 60.7422 74.4572 60.7422 74.4641V74.7301H61.5353V74.4641C61.5352 74.4572 61.5366 74.4503 61.5393 74.4439C61.5419 74.4375 61.5458 74.4317 61.5507 74.4268C61.5556 74.422 61.5615 74.4181 61.5679 74.4154C61.5743 74.4128 61.5812 74.4115 61.5882 74.4115H62.8576C62.8646 74.4115 62.8715 74.4128 62.8779 74.4154C62.8843 74.4181 62.8901 74.422 62.8951 74.4268C62.9 74.4317 62.9039 74.4375 62.9065 74.4439C62.9092 74.4503 62.9105 74.4572 62.9105 74.4641V74.7301H63.7046V74.4641C63.7046 74.4572 63.7059 74.4503 63.7086 74.4439C63.7112 74.4375 63.7151 74.4317 63.7201 74.4268C63.725 74.422 63.7308 74.4181 63.7372 74.4154C63.7437 74.4128 63.7505 74.4115 63.7575 74.4115H65.0277C65.0416 74.4116 65.0549 74.4173 65.0646 74.4271C65.0744 74.437 65.0798 74.4503 65.0797 74.4641V74.7301H65.8737V74.4641C65.8737 74.4572 65.875 74.4503 65.8777 74.4439C65.8803 74.4375 65.8842 74.4317 65.8891 74.4268C65.8941 74.422 65.8999 74.4181 65.9063 74.4154C65.9127 74.4128 65.9196 74.4115 65.9266 74.4115H67.196C67.2101 74.4115 67.2235 74.417 67.2334 74.4269C67.2434 74.4367 67.2489 74.4501 67.2489 74.4641V74.7301H68.042V74.4641C68.042 74.4572 68.0433 74.4503 68.046 74.4439C68.0487 74.4375 68.0526 74.4317 68.0575 74.4268C68.0624 74.422 68.0682 74.4181 68.0746 74.4154C68.0811 74.4128 68.088 74.4115 68.0949 74.4115H69.3644C69.3713 74.4115 69.3782 74.4128 69.3846 74.4154C69.3911 74.4181 69.3969 74.422 69.4018 74.4268C69.4067 74.4317 69.4106 74.4375 69.4133 74.4439C69.4159 74.4503 69.4173 74.4572 69.4173 74.4641V74.7301H73.1198C73.2866 74.7301 73.4516 74.7627 73.6057 74.8261C73.7597 74.8896 73.8997 74.9826 74.0176 75.0998C74.1355 75.217 74.229 75.3562 74.2928 75.5094C74.3565 75.6626 74.3893 75.8268 74.3893 75.9926H74.3885Z" fill="#090814"/>
<path d="M86.6629 77.8119H17.376V77.9999H86.6629V77.8119Z" fill="#CCCCCC"/>
<path d="M70.9899 51.963H55.2574V51.6404H48.1235V51.963H32.3249C32.0427 51.9631 31.7721 52.0745 31.5726 52.2729C31.373 52.4713 31.2609 52.7403 31.2607 53.0209V74.4454C31.2607 74.7261 31.3729 74.9953 31.5725 75.1938C31.7721 75.3922 32.0428 75.5038 32.325 75.5038H70.9899C71.2721 75.5038 71.5428 75.3922 71.7424 75.1938C71.942 74.9953 72.0541 74.7261 72.0541 74.4454V53.0209C72.0541 52.7402 71.942 52.471 71.7424 52.2725C71.5428 52.074 71.2721 51.9625 70.9899 51.9625V51.963Z" fill="#090814"/>
<path d="M51.6886 61.7927C52.9937 61.7927 54.0517 60.7406 54.0517 59.4427C54.0517 58.1448 52.9937 57.0926 51.6886 57.0926C50.3835 57.0926 49.3254 58.1448 49.3254 59.4427C49.3254 60.7406 50.3835 61.7927 51.6886 61.7927Z" stroke="#D0CDE1" stroke-width="2" stroke-miterlimit="10"/>
<path d="M50.9322 62.6388C52.2374 62.6388 53.2954 61.5866 53.2954 60.2887C53.2954 58.9908 52.2374 57.9387 50.9322 57.9387C49.6271 57.9387 48.5691 58.9908 48.5691 60.2887C48.5691 61.5866 49.6271 62.6388 50.9322 62.6388Z" fill="#F2F2F2"/>
<path d="M46.9289 27.6274L46.4381 32.6069C46.4381 32.6069 41.2866 22.6675 47.6929 20.8295C47.6929 20.8295 47.0691 19.9895 47.9744 19.71C48.8797 19.4305 57.4626 18.0902 58.1468 22.269C58.1468 22.269 62.6305 25.0326 61.2735 27.9892L59.6746 31.4659L58.2271 31.5458C58.2271 31.5458 58.1863 24.9286 55.9756 25.1485C53.7648 25.3683 46.9289 27.6274 46.9289 27.6274Z" fill="#090814"/>
<path d="M98.0517 25.4991L73.0634 21.5776C72.9739 21.5634 72.8937 21.5145 72.8404 21.4415C72.7872 21.3684 72.7652 21.2773 72.7794 21.1881L75.2439 5.77325L100.908 9.80077L98.4434 25.2156C98.429 25.3048 98.3797 25.3848 98.3063 25.4379C98.2329 25.491 98.1414 25.513 98.0518 25.4991L98.0517 25.4991Z" fill="#E6E6E6"/>
<path d="M97.4737 24.4213L73.9497 20.7295C73.8592 20.7152 73.7781 20.6657 73.7243 20.5919C73.6704 20.5181 73.6482 20.426 73.6625 20.3358L75.6922 7.63989C75.7067 7.5497 75.7566 7.46888 75.8308 7.41515C75.905 7.36142 75.9976 7.33917 76.0881 7.35329L99.6122 11.0452C99.7027 11.0595 99.7838 11.109 99.8376 11.1828C99.8915 11.2566 99.9137 11.3487 99.8993 11.439L97.8696 24.1349C97.8551 24.225 97.8053 24.3059 97.7311 24.3596C97.6568 24.4133 97.5643 24.4354 97.4737 24.4213Z" fill="white"/>
<path d="M100.82 10.2912L75.145 6.25163L75.2709 5.46186C75.2853 5.37241 75.3346 5.29223 75.408 5.23893C75.4815 5.18563 75.573 5.16356 75.6627 5.17756L100.662 9.11078C100.752 9.12497 100.832 9.17408 100.885 9.24731C100.938 9.32055 100.96 9.41193 100.946 9.50142L100.82 10.2912Z" fill="#0052FB"/>
<path d="M76.0296 6.0294C76.141 6.04689 76.2457 5.9711 76.2635 5.86013C76.2812 5.74916 76.2053 5.64503 76.0938 5.62755C75.9824 5.61006 75.8777 5.68584 75.86 5.79681C75.8422 5.90778 75.9182 6.01192 76.0296 6.0294Z" fill="white"/>
<path d="M76.7959 6.1501C76.9074 6.16758 77.0121 6.0918 77.0298 5.98083C77.0476 5.86986 76.9716 5.76573 76.8602 5.74824C76.7488 5.73076 76.6441 5.80654 76.6263 5.91751C76.6086 6.02848 76.6845 6.13261 76.7959 6.1501Z" fill="white"/>
<path d="M77.5618 6.27077C77.6732 6.28825 77.778 6.21247 77.7957 6.1015C77.8134 5.99053 77.7375 5.88639 77.6261 5.86891C77.5146 5.85142 77.4099 5.92721 77.3922 6.03818C77.3744 6.14915 77.4504 6.25328 77.5618 6.27077Z" fill="white"/>
<path d="M80.2184 10.3351L77.7937 9.95456L77.6228 11.0237L80.0475 11.4043L80.2184 10.3351Z" fill="#E6E6E6"/>
<path d="M84.7167 13.3137L82.292 12.9331L82.1211 14.0023L84.5458 14.3829L84.7167 13.3137Z" fill="#E6E6E6"/>
<path d="M79.3366 15.8712L76.9119 15.4906L76.741 16.5598L79.1657 16.9404L79.3366 15.8712Z" fill="#0052FB"/>
<path d="M83.8351 18.8498L81.4104 18.4692L81.2395 19.5383L83.6642 19.9189L83.8351 18.8498Z" fill="#0052FB"/>
<path d="M95.7468 21.8609L93.322 21.4803L93.1511 22.5494L95.5759 22.93L95.7468 21.8609Z" fill="#0052FB"/>
<path d="M94.0265 17.05L91.6018 16.6694L91.4309 17.7385L93.8556 18.1191L94.0265 17.05Z" fill="#E6E6E6"/>
<path d="M89.2153 16.2913L84.365 15.5295L84.1941 16.5995L89.0444 17.3613L89.2153 16.2913Z" fill="#0052FB"/>
<path d="M90.1032 10.7158L85.2529 9.95401L85.082 11.024L89.9323 11.7858L90.1032 10.7158Z" fill="#0052FB"/>
<path d="M75.7432 7.27905L73.5976 20.6997L97.843 24.5047L99.9886 11.0841L75.7432 7.27905ZM99.7312 12.1834L97.394 11.8166L97.5591 10.784L99.8961 11.1508L99.7312 12.1834ZM84.067 17.7029L84.2321 16.6702L88.9857 17.4162L88.8206 18.4489L84.067 17.7029ZM88.8079 18.5281L88.6429 19.5608L83.8893 18.8147L84.0543 17.7821L88.8079 18.5281ZM89.5189 14.081L89.3538 15.1137L84.6002 14.3676L84.7653 13.3349L89.5189 14.081ZM84.778 13.2558L84.9431 12.223L89.6967 12.969L89.5316 14.0017L84.778 13.2558ZM84.4225 15.4794L84.5876 14.4466L89.3412 15.1926L89.1761 16.2253L84.4225 15.4794ZM89.1634 16.3046L88.9983 17.3373L84.2447 16.5912L84.4098 15.5585L89.1634 16.3046ZM84.5207 14.355L82.1842 13.9883L82.3493 12.9557L84.6858 13.3224L84.5207 14.355ZM84.508 14.4342L84.3429 15.4669L82.0064 15.1002L82.1715 14.0674L84.508 14.4342ZM84.3303 15.546L84.1652 16.5786L81.8287 16.2119L81.9938 15.1793L84.3303 15.546ZM84.1526 16.6577L83.9875 17.6904L81.6509 17.3237L81.816 16.291L84.1526 16.6577ZM89.0652 17.4287L91.402 17.7955L91.2369 18.8281L88.9001 18.4614L89.0652 17.4287ZM89.0779 17.3495L89.243 16.317L91.5797 16.6837L91.4146 17.7164L89.0779 17.3495ZM89.2556 16.2378L89.4207 15.2051L91.7575 15.5718L91.5924 16.6045L89.2556 16.2378ZM89.4334 15.126L89.5984 14.0934L91.9352 14.4601L91.7701 15.4928L89.4334 15.126ZM89.6111 14.0143L89.7762 12.9815L92.113 13.3482L91.9479 14.3809L89.6111 14.0143ZM89.7888 12.9025L89.9539 11.8698L92.2907 12.2365L92.1256 13.2691L89.7888 12.9025ZM89.7093 12.8901L84.9557 12.144L85.1208 11.1113L89.8744 11.8573L89.7093 12.8901ZM84.8762 12.1315L82.5396 11.7649L82.7047 10.7321L85.0413 11.0988L84.8762 12.1315ZM84.8635 12.2108L84.6984 13.2434L82.3619 12.8767L82.527 11.8438L84.8635 12.2108ZM82.2819 12.864L79.9448 12.4973L80.11 11.4645L82.447 11.8313L82.2819 12.864ZM82.2692 12.9432L82.1041 13.9759L79.7671 13.6091L79.9322 12.5763L82.2692 12.9432ZM82.0915 14.055L81.9264 15.0876L79.5894 14.7209L79.7545 13.6881L82.0915 14.055ZM81.9137 15.1667L81.7487 16.1994L79.4116 15.8326L79.5767 14.8L81.9137 15.1667ZM81.736 16.2785L81.5709 17.3111L79.2339 16.9443L79.399 15.9117L81.736 16.2785ZM81.5583 17.3902L81.3932 18.423L79.0561 18.0562L79.2212 17.0236L81.5583 17.3902ZM81.6378 17.4027L83.9748 17.7695L83.8097 18.8022L81.4732 18.4355L81.6378 17.4027ZM83.7971 18.8812L83.632 19.9139L81.2955 19.5472L81.4606 18.5146L83.7971 18.8812ZM83.8766 18.8937L88.6302 19.6397L88.4651 20.6724L83.7115 19.9263L83.8766 18.8937ZM88.7098 19.6522L91.0465 20.0189L90.8814 21.0516L88.5447 20.6849L88.7098 19.6522ZM88.7224 19.573L88.8875 18.5406L91.2243 18.9073L91.0592 19.94L88.7224 19.573ZM91.3041 18.9196L93.6411 19.2864L93.476 20.319L91.139 19.9522L91.3041 18.9196ZM91.3167 18.8404L91.4818 17.808L93.8188 18.1747L93.6537 19.2074L91.3167 18.8404ZM91.4945 17.7286L91.6595 16.6962L93.9965 17.063L93.8315 18.0957L91.4945 17.7286ZM91.6722 16.6169L91.8373 15.5844L94.1743 15.9511L94.0092 16.9838L91.6722 16.6169ZM91.8499 15.5052L92.015 14.4726L94.352 14.8394L94.1869 15.872L91.8499 15.5052ZM92.0277 14.3934L92.1928 13.3608L94.5298 13.7275L94.3647 14.7602L92.0277 14.3934ZM92.2054 13.2817L92.3705 12.249L94.7075 12.6158L94.5424 13.6484L92.2054 13.2817ZM92.3831 12.1699L92.5482 11.1373L94.8853 11.5041L94.7202 12.5366L92.3831 12.1699ZM92.3036 12.1574L89.9666 11.7907L90.1317 10.758L92.4684 11.1248L92.3036 12.1574ZM89.887 11.7782L85.1335 11.0322L85.2985 9.99951L90.0521 10.7455L89.887 11.7782ZM85.0539 11.0197L82.7174 10.653L82.8825 9.62033L85.219 9.98703L85.0539 11.0197ZM82.6374 10.6404L80.3003 10.2737L80.4654 9.241L82.8025 9.60777L82.6374 10.6404ZM82.6247 10.7196L82.4596 11.7523L80.1226 11.3855L80.2877 10.3527L82.6247 10.7196ZM80.0431 11.3729L77.706 11.0061L77.8711 9.97349L80.2082 10.3403L80.0431 11.3729ZM80.0304 11.4521L79.8653 12.4848L77.5283 12.118L77.6934 11.0852L80.0304 11.4521ZM79.8527 12.5639L79.6876 13.5965L77.3505 13.2297L77.5156 12.1971L79.8527 12.5639ZM79.6749 13.6756L79.5098 14.7083L77.1728 14.3415L77.3379 13.3088L79.6749 13.6756ZM79.4972 14.7873L79.3321 15.82L76.9951 15.4532L77.1602 14.4207L79.4972 14.7873ZM79.3195 15.8991L79.1544 16.9317L76.8173 16.565L76.9824 15.5324L79.3195 15.8991ZM79.1417 17.0108L78.9766 18.0437L76.6396 17.677L76.8047 16.6443L79.1417 17.0108ZM78.964 18.1226L78.7989 19.1552L76.4619 18.7884L76.6269 17.756L78.964 18.1226ZM79.0435 18.1351L81.3806 18.5018L81.2155 19.5345L78.8784 19.1677L79.0435 18.1351ZM81.203 19.6136L81.0378 20.6467L78.7006 20.2799L78.8658 19.247L81.203 19.6136ZM81.2825 19.6261L83.6194 19.9928L83.4542 21.026L81.1177 20.6593L81.2825 19.6261ZM83.699 20.0053L88.4526 20.7514L88.2875 21.7845L83.5338 21.0385L83.699 20.0053ZM88.5322 20.7638L90.8688 21.1306L90.7037 22.1637L88.3669 21.797L88.5322 20.7638ZM90.9487 21.1431L93.2858 21.5099L93.1206 22.543L90.7834 22.1762L90.9487 21.1431ZM90.9614 21.0639L91.1264 20.0316L93.4635 20.3984L93.2984 21.431L90.9614 21.0639ZM93.543 20.4105L95.8801 20.7773L95.715 21.8099L93.3778 21.4431L93.543 20.4105ZM93.5557 20.3313L93.7207 19.2991L96.0577 19.6659L95.8927 20.6985L93.5557 20.3313ZM93.7334 19.2195L93.8985 18.1872L96.2355 18.554L96.0704 19.5867L93.7334 19.2195ZM93.9112 18.1078L94.0762 17.0755L96.4132 17.4423L96.2481 18.4749L93.9112 18.1078ZM94.0889 16.996L94.254 15.9636L96.591 16.3304L96.4259 17.3631L94.0889 16.996ZM94.2666 15.8843L94.4317 14.8519L96.7687 15.2187L96.6036 16.2513L94.2666 15.8843ZM94.4444 14.7726L94.6094 13.74L96.9465 14.1068L96.7814 15.1395L94.4444 14.7726ZM94.6221 13.6608L94.7872 12.6283L97.1242 12.9951L96.9591 14.0277L94.6221 13.6608ZM94.7998 12.5491L94.9649 11.5166L97.3019 11.8833L97.1369 12.9159L94.7998 12.5491ZM94.9776 11.4373L95.1426 10.4048L97.4797 10.7716L97.3146 11.8042L94.9776 11.4373ZM94.898 11.4249L92.5609 11.0581L92.726 10.0255L95.0631 10.3923L94.898 11.4249ZM92.4815 11.0456L90.1443 10.6788L90.3094 9.64628L92.6462 10.013L92.4815 11.0456ZM90.0649 10.6663L85.3112 9.9203L85.4763 8.88777L90.2299 9.6338L90.0649 10.6663ZM85.2318 9.90783L82.8951 9.54112L83.0602 8.50859L85.3967 8.87529L85.2318 9.90783ZM82.8152 9.52858L80.4781 9.16179L80.6432 8.12926L82.9802 8.49603L82.8152 9.52858ZM80.3987 9.14932L78.0615 8.78253L78.2266 7.75L80.5636 8.11678L80.3987 9.14932ZM80.386 9.22854L80.2209 10.2611L77.8838 9.89427L78.0489 8.86175L80.386 9.22854ZM77.8043 9.88179L75.4672 9.51502L75.6323 8.48249L77.9693 8.84926L77.8043 9.88179ZM77.7916 9.96101L77.6265 10.9937L75.2895 10.6269L75.4546 9.59423L77.7916 9.96101ZM77.6139 11.0727L77.4488 12.1054L75.1117 11.7386L75.2768 10.706L77.6139 11.0727ZM77.4361 12.1845L77.271 13.2171L74.934 12.8504L75.0991 11.8178L77.4361 12.1845ZM77.2584 13.2962L77.0933 14.3289L74.7563 13.9621L74.9213 12.9296L77.2584 13.2962ZM77.0807 14.408L76.9156 15.4407L74.5785 15.074L74.7436 14.0414L77.0807 14.408ZM76.9029 15.5197L76.7378 16.5524L74.4008 16.1856L74.5659 15.1532L76.9029 15.5197ZM76.7252 16.6315L76.5601 17.6641L74.2231 17.2973L74.3881 16.2651L76.7252 16.6315ZM76.5475 17.7432L76.3824 18.7758L74.0453 18.4091L74.2104 17.3768L76.5475 17.7432ZM76.3697 18.8549L76.2045 19.8882L73.8675 19.5214L74.0326 18.4885L76.3697 18.8549ZM76.4493 18.8674L78.7863 19.2342L78.6211 20.2675L76.2841 19.9007L76.4493 18.8674ZM78.6085 20.3461L78.4435 21.3786L76.1064 21.0118L76.2714 19.9797L78.6085 20.3461ZM78.6881 20.3585L81.0251 20.7253L80.86 21.7578L78.523 21.3911L78.6881 20.3585ZM81.1046 20.7378L83.4417 21.1046L83.2766 22.1371L80.9401 21.7704L81.1046 20.7378ZM83.5212 21.117L88.2748 21.8631L88.1097 22.8956L83.3561 22.1496L83.5212 21.117ZM88.3543 21.8756L90.6911 22.2423L90.526 23.2748L88.1892 22.9081L88.3543 21.8756ZM90.7709 22.2548L93.1079 22.6216L92.9428 23.6541L90.6058 23.2873L90.7709 22.2548ZM93.1874 22.6341L95.5245 23.0008L95.3594 24.0334L93.0224 23.6666L93.1874 22.6341ZM93.2001 22.5549L93.3651 21.5226L95.7022 21.8893L95.537 22.9222L93.2001 22.5549ZM95.7817 21.9015L98.1188 22.2682L97.9536 23.3015L95.6166 22.9347L95.7817 21.9015ZM95.7944 21.8222L95.9594 20.7901L98.2965 21.1569L98.1314 22.1895L95.7944 21.8222ZM95.9721 20.7105L96.1372 19.6783L98.4742 20.0451L98.3091 21.0778L95.9721 20.7105ZM96.1499 19.5988L96.3149 18.5665L98.6519 18.9333L98.4868 19.9659L96.1499 19.5988ZM96.3276 18.487L96.4926 17.4547L98.8297 17.8215L98.6646 18.8542L96.3276 18.487ZM96.5053 17.3753L96.6704 16.3429L99.0074 16.7096L98.8423 17.7423L96.5053 17.3753ZM96.6831 16.2635L96.8481 15.2311L99.1852 15.5979L99.0201 16.6306L96.6831 16.2635ZM96.8608 15.1518L97.0259 14.1193L99.3629 14.486L99.1978 15.5187L96.8608 15.1518ZM97.0385 14.0401L97.2036 13.0075L99.5406 13.3743L99.3756 14.407L97.0385 14.0401ZM97.2163 12.9283L97.3813 11.8958L99.7184 12.2626L99.5533 13.2951L97.2163 12.9283ZM78.1471 7.73752L77.982 8.77017L75.6449 8.4034L75.81 7.37075L78.1471 7.73752ZM73.8549 19.6004L76.1919 19.9672L76.0268 20.9997L73.6898 20.6329L73.8549 19.6004ZM95.4389 24.0462L95.6039 23.0137L97.941 23.3805L97.7759 24.413L95.4389 24.0462Z" fill="#E6E6E6"/>
<path d="M17.4503 20.3262C15.9339 18.7251 13.8464 17.7796 11.6365 17.6928V26.1079L17.4503 20.3262Z" fill="#090814"/>
<path d="M17.4503 21.374L11.6365 27.1556H19.7614C19.7643 25.0051 18.937 22.9356 17.4503 21.374Z" fill="#E4E4E4"/>
<path d="M19.7701 27.7603C19.7705 28.2848 19.7217 28.8082 19.6244 29.3238C19.6169 29.3646 19.6089 29.405 19.6006 29.4454C19.4171 30.3446 19.0859 31.2076 18.6204 31.9998C18.5951 32.0422 18.5699 32.0848 18.5446 32.1265C18.0858 32.8772 17.512 33.5522 16.844 34.1271C16.8109 34.1559 16.7778 34.1842 16.7442 34.2121C15.3087 35.4135 13.5111 36.1045 11.6362 36.1757V27.7603H19.7701Z" fill="#F0F0F0"/>
<path d="M10.8146 36.1827C10.9271 36.1827 11.0388 36.1798 11.1503 36.1755V27.7602L4.99634 33.8801C6.56711 35.3612 8.64996 36.1855 10.8146 36.1827Z" fill="#CACACA"/>
<path d="M10.8261 18.7331C9.71386 18.7331 8.61252 18.951 7.58496 19.3743C6.5574 19.7975 5.62373 20.4179 4.83727 21.2001C4.05082 21.9822 3.42697 22.9107 3.00135 23.9326C2.57573 24.9544 2.35667 26.0497 2.35669 27.1558H11.1707V18.7407C11.0563 18.7365 10.9416 18.7331 10.8261 18.7331Z" fill="#0052FB"/>
<path d="M8.80552 27.7603L7.0252 29.5308L6.96699 29.5887L6.96573 29.5899L5.41268 31.1338L5.3536 31.1925L3.67592 32.8608L3.61684 32.9195L2.6513 33.8794C1.81284 33.0932 1.14507 32.1446 0.68906 31.0922C0.233055 30.0397 -0.00152328 28.9056 -0.000238895 27.7596L8.80552 27.7603Z" fill="#0052FB"/>
<path d="M3.61678 32.9202C2.2271 31.5515 1.41507 29.707 1.34644 27.7632L1.51386 27.7573C1.58103 29.6588 2.3754 31.4632 3.73483 32.802L3.61678 32.9202Z" fill="#3F3D56"/>
<path d="M5.41426 31.1358L5.2928 31.2499C4.36703 30.2778 3.71362 29.0813 3.39771 27.7798L3.47902 27.7602H3.56526C3.87595 29.0252 4.51259 30.188 5.4125 31.134L5.41426 31.1358Z" fill="#3F3D56"/>
<path d="M7.02942 29.537L6.96629 29.5891L6.96502 29.5903L6.90049 29.6436C6.43058 29.0845 6.04334 28.4616 5.75049 27.7936L5.82713 27.7603H5.91892C6.20265 28.3989 6.57486 28.9949 7.02474 29.5308C7.02616 29.5328 7.02773 29.5348 7.02942 29.5366V29.537Z" fill="#3F3D56"/>
<path d="M42.9732 15.4956L32.3884 19.1126C32.2551 19.158 32.109 19.1488 31.9822 19.0871C31.8554 19.0254 31.7582 18.9161 31.7119 18.7834L26.7424 4.46143C26.6965 4.32856 26.7053 4.18311 26.767 4.05699C26.8286 3.93087 26.938 3.83439 27.0712 3.78869L37.656 0.171689C37.7893 0.12631 37.9354 0.135487 38.0622 0.197207C38.189 0.258927 38.2862 0.36815 38.3325 0.500918L43.302 14.8229C43.3479 14.9557 43.3391 15.1012 43.2774 15.2273C43.2158 15.3534 43.1064 15.4499 42.9732 15.4956Z" fill="#F2F2F2"/>
<path d="M42.9732 15.4956L32.3884 19.1126C32.2551 19.158 32.109 19.1488 31.9822 19.0871C31.8554 19.0254 31.7582 18.9161 31.7119 18.7834L26.7424 4.46143C26.6965 4.32856 26.7053 4.18311 26.767 4.05699C26.8286 3.93087 26.938 3.83439 27.0712 3.78869L37.656 0.171689C37.7893 0.12631 37.9354 0.135487 38.0622 0.197207C38.189 0.258927 38.2862 0.36815 38.3325 0.500918L43.302 14.8229C43.3479 14.9557 43.3391 15.1012 43.2774 15.2273C43.2158 15.3534 43.1064 15.4499 42.9732 15.4956ZM27.0918 3.84811C26.9745 3.88848 26.8782 3.97354 26.8238 4.08467C26.7695 4.1958 26.7617 4.32394 26.802 4.44107L31.7716 18.763C31.8123 18.8802 31.8981 18.9765 32.01 19.031C32.1219 19.0855 32.2508 19.0936 32.3684 19.0535L42.9527 15.4367C43.0703 15.3964 43.1668 15.3112 43.2212 15.1999C43.2756 15.0887 43.2834 14.9603 43.2428 14.8431L38.2733 0.521124C38.2324 0.404094 38.1467 0.307852 38.0348 0.25349C37.923 0.199127 37.7942 0.191077 37.6766 0.231104L27.0918 3.84811Z" fill="#D6D6E3"/>
<path d="M36.9059 4.59279L33.9072 5.61854C33.8443 5.64006 33.7753 5.63576 33.7154 5.60659C33.6555 5.57742 33.6097 5.52576 33.5879 5.46299C33.5661 5.40021 33.5703 5.33146 33.5994 5.27185C33.6285 5.21224 33.6802 5.16666 33.7431 5.14514L36.7418 4.11939C36.8047 4.09787 36.8737 4.10216 36.9336 4.13133C36.9935 4.16051 37.0393 4.21216 37.0611 4.27494C37.0828 4.33772 37.0787 4.40647 37.0496 4.46608C37.0205 4.52569 36.9688 4.57126 36.9059 4.59279Z" fill="#0052FB"/>
<path d="M38.1602 5.05404L34.1828 6.4148C34.1199 6.43632 34.0509 6.43202 33.991 6.40285C33.9312 6.37367 33.8853 6.322 33.8635 6.25921C33.8418 6.19642 33.8459 6.12765 33.875 6.06803C33.9041 6.00841 33.9558 5.96282 34.0187 5.9413L37.996 4.58058C38.0589 4.55906 38.1279 4.56336 38.1878 4.59253C38.2477 4.62171 38.2935 4.67338 38.3153 4.73617C38.3371 4.79896 38.3329 4.86773 38.3038 4.92735C38.2747 4.98697 38.2231 5.03252 38.1602 5.05404Z" fill="#0052FB"/>
<path d="M38.2346 8.44533L30.7654 11.0015C30.7025 11.0231 30.6335 11.0188 30.5736 10.9896C30.5137 10.9604 30.4678 10.9087 30.4461 10.8459C30.4243 10.7831 30.4284 10.7143 30.4575 10.6546C30.4866 10.595 30.5383 10.5494 30.6013 10.5278L38.0705 7.97164C38.1334 7.95011 38.2024 7.95441 38.2623 7.9836C38.3222 8.01279 38.3681 8.06448 38.3898 8.12729C38.4116 8.1901 38.4075 8.2589 38.3783 8.31854C38.3492 8.37819 38.2975 8.42379 38.2346 8.44533Z" fill="#D6D6E3"/>
<path d="M39.4892 8.90662L31.0413 11.7979C30.9783 11.8194 30.9093 11.8151 30.8495 11.786C30.7896 11.7568 30.7437 11.7051 30.7219 11.6423C30.7002 11.5794 30.7043 11.5106 30.7334 11.451C30.7625 11.3913 30.8142 11.3457 30.8772 11.3242L39.3251 8.4329C39.388 8.41137 39.457 8.41567 39.5169 8.44486C39.5768 8.47405 39.6226 8.52574 39.6444 8.58856C39.6662 8.65138 39.662 8.72018 39.6329 8.77982C39.6038 8.83947 39.5521 8.88508 39.4892 8.90662Z" fill="#D6D6E3"/>
<path d="M39.1443 11.072L31.675 13.6282C31.6121 13.6497 31.5431 13.6454 31.4832 13.6162C31.4234 13.587 31.3775 13.5353 31.3557 13.4725C31.334 13.4097 31.3381 13.3409 31.3672 13.2813C31.3963 13.2216 31.448 13.176 31.5109 13.1545L38.9802 10.5983C39.0431 10.5768 39.1121 10.5811 39.172 10.6102C39.2319 10.6394 39.2777 10.6911 39.2995 10.7539C39.3212 10.8168 39.3171 10.8855 39.288 10.9452C39.2589 11.0048 39.2072 11.0504 39.1443 11.072Z" fill="#D6D6E3"/>
<path d="M40.3986 11.5333L31.9507 14.4246C31.8878 14.4461 31.8188 14.4418 31.7589 14.4126C31.699 14.3834 31.6531 14.3317 31.6314 14.2689C31.6096 14.2061 31.6137 14.1373 31.6428 14.0776C31.6719 14.018 31.7236 13.9724 31.7866 13.9508L40.2345 11.0595C40.2974 11.038 40.3664 11.0423 40.4263 11.0715C40.4862 11.1007 40.5321 11.1524 40.5538 11.2152C40.5756 11.278 40.5715 11.3468 40.5424 11.4065C40.5133 11.4661 40.4616 11.5117 40.3986 11.5333Z" fill="#D6D6E3"/>
<path d="M40.0537 13.6987L32.5845 16.2549C32.5215 16.2764 32.4526 16.2721 32.3927 16.243C32.3328 16.2138 32.2869 16.1621 32.2652 16.0993C32.2434 16.0365 32.2475 15.9677 32.2766 15.908C32.3057 15.8484 32.3574 15.8028 32.4204 15.7812L39.8896 13.225C39.9525 13.2035 40.0215 13.2078 40.0814 13.237C40.1413 13.2662 40.1871 13.3179 40.2089 13.3807C40.2307 13.4435 40.2265 13.5123 40.1974 13.5719C40.1683 13.6316 40.1166 13.6772 40.0537 13.6987Z" fill="#D6D6E3"/>
<path d="M41.3081 14.16L32.8601 17.0513C32.7972 17.0729 32.7282 17.0686 32.6683 17.0394C32.6084 17.0102 32.5626 16.9585 32.5408 16.8957C32.519 16.8329 32.5232 16.7641 32.5523 16.7044C32.5814 16.6448 32.6331 16.5991 32.696 16.5776L41.1439 13.6863C41.2069 13.6648 41.2759 13.6691 41.3357 13.6983C41.3956 13.7275 41.4415 13.7792 41.4633 13.842C41.485 13.9048 41.4809 13.9736 41.4518 14.0332C41.4227 14.0929 41.371 14.1385 41.3081 14.16Z" fill="#D6D6E3"/>
<path d="M29.0188 5.77478L32.3817 4.62561C32.4646 4.59727 32.5556 4.60293 32.6345 4.64135C32.7134 4.67977 32.7739 4.7478 32.8026 4.83048L33.5328 6.93493C33.547 6.97587 33.553 7.01917 33.5504 7.06237C33.5478 7.10556 33.5367 7.1478 33.5177 7.18667C33.4987 7.22554 33.4722 7.26029 33.4397 7.28892C33.4072 7.31756 33.3693 7.33952 33.3282 7.35355L29.9654 8.50271C29.8825 8.53105 29.7915 8.52541 29.7126 8.48704C29.6337 8.44866 29.5732 8.3807 29.5445 8.29809L28.8142 6.1934C28.7855 6.11072 28.791 6.02016 28.8293 5.94166C28.8677 5.86315 28.9359 5.80312 29.0188 5.77478Z" fill="#0052FB"/>
</g>
<defs>
<clipPath id="clip0_447_456">
<rect width="101" height="78" fill="white"/>
</clipPath>
</defs>
</svg>
