<svg width="101" height="82" viewBox="0 0 101 82" fill="none" xmlns="http://www.w3.org/2000/svg">
<g clip-path="url(#clip0_484_221)">
<path d="M80.6308 14.9365C80.1061 20.7232 78.6114 26.825 76.2672 32.7124C73.3683 39.9929 69.4076 46.4056 64.8133 51.2571L64.5583 51.0345C69.1304 46.2064 73.0731 39.822 75.9599 32.5716C78.5688 26.0195 80.1206 19.2011 80.4495 12.8565L80.7753 12.9111C80.7407 13.5811 80.6926 14.2563 80.6308 14.9365Z" fill="#F2F2F2"/>
<path d="M82.7205 48.5446C76.2674 58.8213 68.4385 66.164 60.6758 69.22L60.5188 68.9319C68.2278 65.897 76.0108 58.5918 82.4344 48.3621L82.7205 48.5446Z" fill="#F2F2F2"/>
<path d="M80.4743 22.1412C79.9496 27.9279 78.4549 34.0296 76.1107 39.917C73.2118 47.1976 69.2511 53.6102 64.6568 58.4617L64.4019 58.2392C68.9739 53.411 72.9166 47.0267 75.8034 39.7762C78.4123 33.2242 79.9641 26.4058 80.293 20.0611L80.6188 20.1157C80.5842 20.7858 80.5361 21.461 80.4743 22.1412Z" fill="#F2F2F2"/>
<path d="M8.03097 36.9974H3.79702C3.70656 36.9976 3.61723 36.9773 3.53573 36.938C3.45424 36.8987 3.38269 36.8414 3.32645 36.7705C3.2709 36.7014 3.2317 36.6206 3.21181 36.5341C3.19192 36.4477 3.19184 36.3578 3.21159 36.2714C3.61483 34.4903 3.5895 32.6388 3.13768 30.8694C3.1091 30.7529 3.11601 30.6305 3.15752 30.518C3.19903 30.4054 3.27324 30.3079 3.37059 30.238C5.5477 28.6706 7.26223 28.7161 8.46662 30.3734C8.52092 30.4489 8.55698 30.536 8.57199 30.6279C8.8938 32.5644 8.9116 34.5394 8.62478 36.4815C8.60484 36.6248 8.5337 36.756 8.42453 36.8509C8.31535 36.9458 8.17553 36.9978 8.03097 36.9974Z" fill="#E6E6E6"/>
<path d="M6.71842 32.7532H5.26193C5.18139 32.7532 5.10414 32.7211 5.04719 32.6641C4.99024 32.6071 4.95825 32.5298 4.95825 32.4492C4.95825 32.3686 4.99024 32.2912 5.04719 32.2342C5.10414 32.1772 5.18139 32.1452 5.26193 32.1452H6.71842C6.79885 32.1454 6.87592 32.1775 6.93274 32.2344C6.98955 32.2914 7.02146 32.3687 7.02146 32.4492C7.02146 32.5297 6.98955 32.6069 6.93274 32.6639C6.87592 32.7209 6.79885 32.753 6.71842 32.7532Z" fill="white"/>
<path d="M6.71842 33.8193H5.26193C5.18139 33.8193 5.10414 33.7872 5.04719 33.7302C4.99024 33.6732 4.95825 33.5959 4.95825 33.5153C4.95825 33.4347 4.99024 33.3573 5.04719 33.3003C5.10414 33.2433 5.18139 33.2113 5.26193 33.2113H6.71842C6.79885 33.2115 6.87592 33.2436 6.93274 33.3005C6.98955 33.3575 7.02146 33.4348 7.02146 33.5153C7.02146 33.5958 6.98955 33.673 6.93274 33.73C6.87592 33.787 6.79885 33.8191 6.71842 33.8193Z" fill="white"/>
<path d="M6.71842 34.8854H5.26193C5.18139 34.8854 5.10414 34.8533 5.04719 34.7963C4.99024 34.7393 4.95825 34.662 4.95825 34.5814C4.95825 34.5008 4.99024 34.4234 5.04719 34.3664C5.10414 34.3094 5.18139 34.2774 5.26193 34.2774H6.71842C6.79885 34.2776 6.87592 34.3097 6.93274 34.3666C6.98955 34.4236 7.02146 34.5009 7.02146 34.5814C7.02146 34.6619 6.98955 34.7391 6.93274 34.7961C6.87592 34.8531 6.79885 34.8852 6.71842 34.8854Z" fill="white"/>
<path d="M84.979 55.9207H80.745C80.6546 55.9209 80.5652 55.9006 80.4837 55.8613C80.4022 55.822 80.3307 55.7647 80.2745 55.6938C80.2189 55.6247 80.1797 55.5439 80.1598 55.4574C80.1399 55.371 80.1398 55.2811 80.1596 55.1947C80.5628 53.4136 80.5375 51.5621 80.0857 49.7927C80.0571 49.6762 80.064 49.5538 80.1055 49.4413C80.147 49.3287 80.2212 49.2312 80.3186 49.1613C82.4957 47.5939 84.2102 47.6394 85.4146 49.2967C85.4689 49.3722 85.505 49.4593 85.52 49.5512C85.8418 51.4877 85.8596 53.4627 85.5728 55.4048C85.5528 55.5481 85.4817 55.6793 85.3725 55.7742C85.2633 55.8691 85.1235 55.9211 84.979 55.9207Z" fill="#E6E6E6"/>
<path d="M83.6663 51.6765H82.2098C82.1293 51.6763 82.0523 51.6442 81.9955 51.5872C81.9386 51.5302 81.9067 51.453 81.9067 51.3725C81.9067 51.292 81.9386 51.2147 81.9955 51.1577C82.0523 51.1007 82.1293 51.0686 82.2098 51.0685H83.6663C83.7468 51.0685 83.824 51.1005 83.881 51.1575C83.938 51.2145 83.9699 51.2918 83.9699 51.3725C83.9699 51.4531 83.938 51.5304 83.881 51.5874C83.824 51.6444 83.7468 51.6765 83.6663 51.6765Z" fill="white"/>
<path d="M83.6663 52.7425H82.2098C82.1293 52.7424 82.0523 52.7103 81.9955 52.6533C81.9386 52.5963 81.9067 52.5191 81.9067 52.4386C81.9067 52.358 81.9386 52.2808 81.9955 52.2238C82.0523 52.1668 82.1293 52.1347 82.2098 52.1346H83.6663C83.7468 52.1346 83.824 52.1666 83.881 52.2236C83.938 52.2806 83.9699 52.3579 83.9699 52.4386C83.9699 52.5192 83.938 52.5965 83.881 52.6535C83.824 52.7105 83.7468 52.7425 83.6663 52.7425Z" fill="white"/>
<path d="M83.6663 53.8086H82.2098C82.1293 53.8085 82.0523 53.7764 81.9955 53.7194C81.9386 53.6624 81.9067 53.5852 81.9067 53.5047C81.9067 53.4241 81.9386 53.3469 81.9955 53.2899C82.0523 53.2329 82.1293 53.2008 82.2098 53.2007H83.6663C83.7468 53.2007 83.824 53.2327 83.881 53.2897C83.938 53.3467 83.9699 53.424 83.9699 53.5047C83.9699 53.5853 83.938 53.6626 83.881 53.7196C83.824 53.7766 83.7468 53.8086 83.6663 53.8086Z" fill="white"/>
<path d="M101 81.8414C101 81.8623 100.996 81.8829 100.988 81.9022C100.98 81.9215 100.968 81.939 100.954 81.9537C100.939 81.9684 100.922 81.9801 100.902 81.9881C100.883 81.996 100.862 82.0001 100.842 82H0.158422C0.116406 82 0.0761124 81.9833 0.0464025 81.9536C0.0166926 81.9238 0 81.8835 0 81.8414C0 81.7994 0.0166926 81.759 0.0464025 81.7293C0.0761124 81.6996 0.116406 81.6828 0.158422 81.6828H100.842C100.862 81.6828 100.883 81.6868 100.902 81.6948C100.922 81.7027 100.939 81.7144 100.954 81.7292C100.968 81.7439 100.98 81.7614 100.988 81.7807C100.996 81.7999 101 81.8206 101 81.8414Z" fill="#CCCCCC"/>
<path d="M26.5595 72.1319L26.2954 68.4554C24.5656 67.5898 22.6509 67.16 20.7175 67.2032C23.4375 69.3078 23.2197 73.5142 25.1034 76.393C25.6978 77.2863 26.4854 78.0343 27.4079 78.5815C28.3303 79.1288 29.364 79.4612 30.4322 79.5542L32.6959 80.8578C32.9549 79.1446 32.8397 77.3955 32.3584 75.7311C31.877 74.0667 31.0409 72.5266 29.9077 71.2168C29.2647 70.4883 28.5326 69.8438 27.7287 69.2985C27.2339 70.7205 26.5595 72.1319 26.5595 72.1319Z" fill="#F2F2F2"/>
<path d="M74.4406 72.6649L74.7047 68.9884C76.4345 68.1228 78.3492 67.693 80.2826 67.7363C77.5626 69.8409 77.7805 74.0473 75.8967 76.926C75.3023 77.8194 74.5147 78.5674 73.5922 79.1146C72.6698 79.6618 71.6361 79.9942 70.5679 80.0872L68.3042 81.3909C68.0452 79.6776 68.1604 77.9286 68.6418 76.2642C69.1231 74.5998 69.9592 73.0596 71.0924 71.7498C71.7355 71.0214 72.4676 70.3769 73.2715 69.8315C73.7663 71.2536 74.4406 72.6649 74.4406 72.6649Z" fill="#F2F2F2"/>
<path d="M49.3019 31.1758C50.6989 31.1758 51.8313 30.0422 51.8313 28.6438C51.8313 27.2454 50.6989 26.1118 49.3019 26.1118C47.9049 26.1118 46.7725 27.2454 46.7725 28.6438C46.7725 30.0422 47.9049 31.1758 49.3019 31.1758Z" fill="#0052FB"/>
<path d="M50.6002 27.5885C50.5621 27.5522 50.5116 27.5319 50.459 27.5319C50.4064 27.5319 50.3558 27.5522 50.3178 27.5885C49.7811 28.017 49.299 28.5099 48.8824 29.0561C48.7802 28.858 48.6779 28.66 48.5756 28.4619C48.4576 28.2332 48.1128 28.4352 48.2308 28.6637C48.3804 28.9534 48.5299 29.2431 48.6795 29.5328C48.6976 29.5624 48.7229 29.5869 48.7531 29.6038C48.7833 29.6208 48.8173 29.6297 48.8519 29.6297C48.8866 29.6297 48.9206 29.6208 48.9508 29.6038C48.981 29.5869 49.0063 29.5624 49.0244 29.5328C49.4683 28.907 49.9989 28.3475 50.6002 27.8712C50.6374 27.8336 50.6582 27.7828 50.6582 27.7299C50.6582 27.677 50.6374 27.6262 50.6002 27.5885Z" fill="white"/>
<path d="M37.984 35.8236L34.1697 29.8273L38.5866 27.4595L39.7458 32.0344L47.9139 36.4527C48.2364 36.3365 48.5857 36.3167 48.9192 36.3958C49.2527 36.4749 49.556 36.6495 49.7921 36.8981C50.0282 37.1468 50.1869 37.4589 50.2489 37.7963C50.3109 38.1337 50.2735 38.4819 50.1413 38.7984C50.009 39.1149 49.7876 39.386 49.5041 39.5787C49.2205 39.7714 48.8871 39.8774 48.5444 39.8837C48.2018 39.89 47.8647 39.7964 47.5742 39.6142C47.2838 39.432 47.0526 39.1692 46.9088 38.8578L37.984 35.8236Z" fill="#A0616A"/>
<path d="M31.3828 22.6354C30.1843 24.3969 34.4434 30.7995 34.4434 30.7995C34.6509 30.3518 36.6343 35.3792 36.9665 35.0822C37.9106 34.2382 39.3886 31.887 40.2101 31.7822C40.68 31.7223 39.1205 28.3869 39.1205 28.3869C39.1205 28.3869 38.4078 26.4174 37.4407 23.9015C37.1804 23.1851 36.7434 22.5463 36.1701 22.0445C35.5969 21.5427 34.9062 21.1943 34.1623 21.0316C34.1623 21.0316 32.5813 20.874 31.3828 22.6354Z" fill="#3F3D56"/>
<path d="M31.4413 80.023L33.2528 80.0229L34.1145 73.0286L31.4409 73.0287L31.4413 80.023Z" fill="#A0616A"/>
<path d="M30.9792 79.4309L31.4891 79.4309L33.4798 78.6205L34.5467 79.4308H34.5469C35.1498 79.4308 35.7281 79.6706 36.1544 80.0974C36.5808 80.5242 36.8203 81.103 36.8204 81.7066V81.7805L30.9793 81.7807L30.9792 79.4309Z" fill="#2F2E41"/>
<path d="M39.8572 80.023L41.6687 80.0229L42.5305 73.0286L39.8569 73.0287L39.8572 80.023Z" fill="#A0616A"/>
<path d="M39.3953 79.4309L39.9051 79.4309L41.8958 78.6205L42.9628 79.4308H42.9629C43.5658 79.4308 44.1441 79.6706 44.5704 80.0974C44.9968 80.5242 45.2363 81.103 45.2364 81.7066V81.7805L39.3954 81.7807L39.3953 79.4309Z" fill="#2F2E41"/>
<path d="M40.6415 41.7847L28.8587 42.0796C26.6209 43.2963 26.5869 45.9296 27.3201 49.0562C27.3201 49.0562 27.0726 50.9145 27.5677 51.4101C28.0627 51.9056 28.3102 51.9056 28.0627 52.7729C27.8152 53.6401 29.123 55.0565 28.9641 55.2155C28.8053 55.3745 28.434 56.2417 28.434 56.2417L29.6716 63.3034C29.6716 63.3034 30.538 75.5683 30.7855 75.8161C31.033 76.0639 31.2806 75.8161 31.033 76.4355C30.7855 77.055 30.538 76.8072 30.7855 77.055C31.0048 77.2916 31.2113 77.5397 31.4043 77.7983H34.3966C34.3966 77.7983 34.6222 76.5594 34.6222 76.4355C34.6222 76.3116 34.8697 75.5683 34.8697 75.4444C34.8697 75.3205 34.6509 75.1015 34.6509 75.1015C34.5753 74.8497 34.5242 74.5911 34.4984 74.3294C34.4984 74.0817 33.7558 64.5423 33.7558 64.5423L35.241 52.1534L38.8301 64.2945C38.8301 64.2945 38.8301 74.9489 39.0776 75.1967C39.3251 75.4444 39.3251 75.3205 39.2014 75.8161C39.0776 76.3116 38.5826 76.1878 38.9538 76.5594C39.3251 76.9311 39.4489 76.3117 39.3251 76.9311L39.2014 77.5505L42.9143 77.6037C42.9143 77.6037 43.4093 76.5594 43.1618 76.1878C42.9143 75.8161 42.9291 75.9175 43.2311 75.3093C43.5331 74.7011 43.6568 74.5772 43.5331 74.4533C43.4093 74.3294 43.4093 73.6705 43.4093 73.6705L42.7905 61.8167C42.7905 61.8167 42.6667 49.304 42.6667 48.9323C42.6574 48.7411 42.6926 48.5503 42.7696 48.375V47.8705L42.2955 46.0829L40.6415 41.7847Z" fill="#2F2E41"/>
<path d="M33.5633 17.2595C35.5852 17.2595 37.2243 15.6188 37.2243 13.5948C37.2243 11.5709 35.5852 9.93013 33.5633 9.93013C31.5414 9.93013 29.9023 11.5709 29.9023 13.5948C29.9023 15.6188 31.5414 17.2595 33.5633 17.2595Z" fill="#A0616A"/>
<path d="M35.3938 19.6816C36.1825 20.151 36.6543 21.0134 36.9251 21.8909C37.4265 23.5156 37.7284 25.1954 37.8239 26.8932L38.11 31.976L41.6529 42.7988C38.5824 45.3995 27.0408 43.3899 27.0408 43.3899C27.0408 43.3899 26.6866 43.2717 27.0408 42.917C27.3951 42.5623 27.74 42.8765 27.3857 42.5219C27.0315 42.1672 27.2757 42.5623 27.3938 42.2077C27.5119 41.853 27.3938 42.0895 27.2757 41.9713C27.1576 41.853 28.1899 40.7891 28.1899 40.7891L27.2452 34.5767L26.0642 22.0459C27.4814 20.2727 30.3314 19.2274 30.3314 19.2274L31.0679 17.9005L34.75 18.1953L35.3938 19.6816Z" fill="#3F3D56"/>
<path d="M36.5813 11.6478C36.8658 11.8603 37.0766 12.1567 37.184 12.4954C37.2252 11.9419 37.2279 11.3862 37.1918 10.8324C37.1487 10.4432 36.875 10.3557 36.558 10.2543C36.2718 10.1626 35.9481 10.0591 35.861 9.6813C34.7102 8.56064 32.7069 8.61716 31.3359 9.00806C30.5815 9.22316 30.1474 9.49953 30.1086 9.66143L30.1005 9.69476L30.0699 9.7101C29.4884 10.0011 29.3752 10.9202 29.3827 11.64C29.3968 12.996 29.8646 14.5362 30.1281 14.6613C30.142 14.6679 30.1456 14.6653 30.1516 14.6603C30.5484 14.3429 31.0324 14.6844 31.2452 14.8701C31.3706 14.0272 31.7746 13.2508 32.3926 12.6648C33.0106 12.0788 33.807 11.717 34.6545 11.6372C34.9313 11.6104 35.2058 11.5643 35.4762 11.4993C35.6133 11.4637 35.7543 11.4452 35.896 11.4441C36.1398 11.4404 36.379 11.5115 36.5813 11.6478Z" fill="#2F2E41"/>
<path d="M59.3081 44.7048L66.3505 37.5462L68.2059 31.8208L65.2201 30.6119C63.741 32.1054 62.2185 36.6773 62.2185 36.6773L57.4118 43.135C57.3734 43.1493 57.3352 43.1644 57.2975 43.1822C57.0762 43.2868 56.8855 43.4468 56.7441 43.6467C56.6026 43.8466 56.515 44.0796 56.4898 44.3233C56.4645 44.5669 56.5025 44.813 56.6001 45.0377C56.6976 45.2623 56.8514 45.458 57.0466 45.6058C57.2417 45.7536 57.4717 45.8485 57.7142 45.8814C57.9567 45.9142 58.2036 45.8838 58.431 45.7933C58.6584 45.7027 58.8585 45.5549 59.0122 45.3642C59.1659 45.1736 59.2678 44.9465 59.3081 44.7048Z" fill="#FFB8B8"/>
<path d="M64.4055 31.2668L68.1814 32.3602L68.1955 32.3575C69.5835 32.0878 70.6814 29.7788 71.358 27.8894C71.5805 27.2662 71.5584 26.5817 71.2961 25.9742C71.0338 25.3667 70.5508 24.8815 69.9448 24.6168C69.4965 24.4246 69.0034 24.3617 68.5212 24.4353C68.0391 24.5089 67.5871 24.716 67.2164 25.0333L65.3337 26.6561L64.4055 31.2668Z" fill="#0052FB"/>
<path d="M61.1749 79.8103L59.1442 79.8102L58.1782 71.9697L61.1752 71.9698L61.1749 79.8103Z" fill="#FFB8B8"/>
<path d="M61.6929 79.1466L61.1213 79.1466L58.8898 78.2382L57.6938 79.1465H57.6936C57.0177 79.1465 56.3695 79.4153 55.8915 79.8937C55.4136 80.3721 55.1451 81.021 55.145 81.6976V81.7805L61.6928 81.7807L61.6929 79.1466Z" fill="#2F2E41"/>
<path d="M70.1854 79.8103L68.1547 79.8102L67.1887 71.9697L70.1858 71.9698L70.1854 79.8103Z" fill="#FFB8B8"/>
<path d="M70.7034 79.1466L70.1318 79.1466L67.9003 78.2382L66.7043 79.1465H66.7041C66.0282 79.1465 65.38 79.4153 64.902 79.8937C64.4241 80.3721 64.1556 81.021 64.1555 81.6976V81.7805L70.7033 81.7807L70.7034 79.1466Z" fill="#2F2E41"/>
<path d="M73.2819 46.0382C73.2819 46.0382 73.5191 48.8865 72.9263 51.6161C72.3335 54.3457 72.3335 62.0332 72.3335 62.0332L71.0293 77.0135L67.1169 76.6575L66.0498 51.6161L62.2559 60.0423L62.6116 61.2291L62.1378 61.5258C62.1378 61.5258 62.4931 63.8401 62.2559 63.8401C62.0188 63.8401 61.426 64.1961 61.426 64.1961L61.9003 76.4201L57.8692 76.3014L56.4465 59.0929L57.9878 49.2425L58.1064 47.3436L58.6399 47.3656L58.9115 46.5722L59.4105 45.2074L73.2819 46.0382Z" fill="#2F2E41"/>
<path d="M73.4868 46.6364L73.508 46.6068C74.6365 45.0252 72.9392 41.2248 72.6832 40.6739L73.7614 40.3237L73.5186 38.2577L73.4036 37.3367L74.2277 36.5118L74.23 36.4912L74.7042 32.3374L75.3937 29.5785C75.6536 28.5356 75.6314 27.4422 75.3296 26.4106C75.0278 25.3791 74.4572 24.4465 73.6763 23.7086L72.0825 22.2043L70.1455 19.3353H67.0218L65.9508 21.3604C64.9124 21.6006 63.9911 22.1979 63.3474 23.0482C62.7038 23.8984 62.3784 24.9478 62.4282 26.0135L62.6709 31.3247L61.7206 37.9376L61.7201 39.1343L60.6507 40.324L60.8842 41.4928L60.0703 41.8419L59.7109 43.5206C59.5622 43.717 58.5806 45.0273 58.5806 45.3854C58.5806 45.4392 58.6202 45.4912 58.7053 45.5489C59.3743 46.0023 63.0719 46.9268 64.7084 46.2713C66.4516 45.5736 73.381 46.6202 73.4508 46.6309L73.4868 46.6364Z" fill="#0052FB"/>
<path d="M68.1801 18.4092C70.4648 18.4092 72.317 16.5552 72.317 14.2681C72.317 11.9811 70.4648 10.127 68.1801 10.127C65.8953 10.127 64.0432 11.9811 64.0432 14.2681C64.0432 16.5552 65.8953 18.4092 68.1801 18.4092Z" fill="#FFB8B8"/>
<path d="M67.7837 18.4762C68.4244 18.4697 69.0633 18.4083 69.6935 18.2929C70.3175 18.149 71.6941 17.0835 72.0693 16.454C72.348 15.9863 72.5153 15.2628 72.6066 14.7383C72.7299 14.0442 72.7062 13.3319 72.5369 12.6475C72.3677 11.9632 72.0568 11.322 71.6242 10.7656C71.4575 10.5325 71.231 10.3488 70.9685 10.234C70.9453 10.2256 70.9215 10.2183 70.8974 10.2121C70.517 10.1223 70.172 9.9208 69.9069 9.63339C69.8554 9.5752 69.7998 9.5208 69.7405 9.47061C69.443 9.2322 69.0934 9.06764 68.7202 8.99039C68.1174 8.84546 67.255 9.02707 66.1571 9.53065C65.6055 9.78365 64.9933 9.71307 64.5215 9.6233C64.495 9.6189 64.4679 9.6215 64.4427 9.63085C64.4176 9.64021 64.3953 9.65598 64.3782 9.67662C64.1834 9.86939 63.9229 9.98121 63.6491 9.9896C63.4816 10.0013 63.3116 10.2383 63.1067 10.547C63.0603 10.617 63.006 10.6988 62.9667 10.7487L62.9588 10.655L62.8666 10.7621C62.7217 10.9305 62.6218 11.1329 62.5761 11.3503C62.5303 11.5678 62.5403 11.7934 62.6051 12.0059C62.6699 12.2185 62.7874 12.4112 62.9466 12.5661C63.1058 12.721 63.3016 12.833 63.5157 12.8917C63.6856 12.9323 63.8592 12.9554 64.0337 12.9607C64.1396 12.9675 64.249 12.9745 64.3542 12.99C64.6918 13.0501 65.0082 13.1969 65.2723 13.416C65.5363 13.6351 65.7392 13.919 65.8609 14.24C65.8897 14.3142 65.9351 14.3807 65.9936 14.4346C66.0521 14.4884 66.1222 14.528 66.1985 14.5504C66.2748 14.5728 66.3552 14.5774 66.4335 14.5637C66.5118 14.5501 66.5859 14.5186 66.6501 14.4718C66.757 14.384 66.8835 14.3233 67.0188 14.295C67.1541 14.2668 67.2942 14.2716 67.4272 14.3093C67.5429 14.3698 67.6342 14.4683 67.686 14.5883C67.7485 14.7218 67.8494 14.8336 67.9757 14.9095C68.4064 15.1178 68.4608 16.0889 68.329 16.903C68.202 17.6876 67.9257 18.2601 67.6571 18.295C67.4503 18.3218 67.427 18.3371 67.4129 18.3742L67.4004 18.4074L67.4244 18.4376C67.54 18.4762 67.6626 18.4893 67.7837 18.4762Z" fill="#2F2E41"/>
<path d="M64.3517 31.7097L62.3632 29.1735C60.3377 29.7318 56.7437 32.9385 56.7437 32.9385L49.3629 36.1447C49.1166 36.1033 48.8637 36.1275 48.6297 36.215C48.3957 36.3026 48.1888 36.4502 48.0299 36.6432C47.8711 36.8362 47.7658 37.0676 47.7247 37.3143C47.6836 37.5609 47.7081 37.814 47.7958 38.0482C47.8835 38.2823 48.0313 38.4892 48.2243 38.648C48.4172 38.8068 48.6486 38.9119 48.895 38.9527C49.1415 38.9936 49.3943 38.9687 49.6281 38.8806C49.8619 38.7926 50.0684 38.6444 50.2268 38.4511L59.8955 35.7509L64.3517 31.7097Z" fill="#FFB8B8"/>
<path d="M63.8751 32.2895L67.0126 28.7884L67.1868 26.3076C67.2193 25.8204 67.1149 25.3339 66.8856 24.903C66.6563 24.4721 66.3112 24.114 65.8892 23.8691C65.315 23.541 64.6377 23.4435 63.9944 23.5961C63.351 23.7488 62.7896 24.1403 62.4236 24.6915C61.315 26.364 60.1223 28.6253 60.736 29.9003L60.7422 29.9132L63.8751 32.2895Z" fill="#0052FB"/>
<path d="M34.9565 45.4492L26.8019 41.2686C26.2218 40.9712 26.0297 40.1825 26.3736 39.5103L31.6906 29.118C32.0345 28.4459 32.7861 28.141 33.3662 28.4384L41.5208 32.619C42.1009 32.9164 42.293 33.7051 41.9491 34.3772L36.6321 44.7696C36.2883 45.4417 35.5366 45.7466 34.9565 45.4492Z" fill="#E6E6E6"/>
<path d="M33.5633 43.5273L28.0229 40.687C27.4797 40.4085 27.2997 39.6698 27.6218 39.0403L32.0391 30.4065C32.3611 29.777 33.0651 29.4915 33.6084 29.77L40.3 33.2006C40.8433 33.4791 41.0232 34.2178 40.7011 34.8473L38.3014 39.5376C36.8669 42.3415 35.9831 44.7679 33.5633 43.5273Z" fill="white"/>
<path d="M36.3024 38.8124L31.3952 36.2967C31.3352 36.2539 31.2926 36.1909 31.2751 36.1192C31.2576 36.0476 31.2665 35.972 31.3001 35.9064C31.3337 35.8407 31.3897 35.7894 31.458 35.7617C31.5263 35.734 31.6023 35.7318 31.672 35.7555L36.5793 38.2713C36.6393 38.3141 36.6819 38.3771 36.6994 38.4488C36.7168 38.5204 36.708 38.596 36.6744 38.6616C36.6408 38.7272 36.5847 38.7786 36.5164 38.8063C36.4482 38.834 36.3722 38.8362 36.3024 38.8124Z" fill="#0052FB"/>
<path d="M31.9682 37.9399L30.8483 37.3657C30.7883 37.3229 30.7457 37.26 30.7282 37.1883C30.7108 37.1167 30.7196 37.0411 30.7532 36.9755C30.7868 36.9098 30.8429 36.8585 30.9112 36.8308C30.9794 36.8031 31.0554 36.8009 31.1252 36.8246L32.245 37.3987C32.305 37.4415 32.3477 37.5045 32.3651 37.5762C32.3826 37.6478 32.3737 37.7234 32.3401 37.789C32.3065 37.8546 32.2505 37.906 32.1822 37.9337C32.1139 37.9614 32.0379 37.9636 31.9682 37.9399Z" fill="#0052FB"/>
<path d="M33.4048 40.0258L30.3014 38.4348C30.2414 38.392 30.1988 38.3291 30.1813 38.2574C30.1639 38.1857 30.1728 38.1102 30.2064 38.0446C30.2399 37.9789 30.296 37.9276 30.3643 37.8999C30.4326 37.8722 30.5085 37.87 30.5783 37.8937L33.6816 39.4847C33.7416 39.5275 33.7843 39.5905 33.8017 39.6621C33.8192 39.7338 33.8103 39.8093 33.7767 39.875C33.7431 39.9406 33.6871 39.992 33.6188 40.0197C33.5505 40.0474 33.4745 40.0495 33.4048 40.0258Z" fill="#0052FB"/>
<path d="M38.2446 35.0169L33.3373 32.5011C33.2773 32.4583 33.2347 32.3953 33.2172 32.3237C33.1998 32.252 33.2087 32.1765 33.2422 32.1108C33.2758 32.0452 33.3319 31.9938 33.4002 31.9661C33.4684 31.9384 33.5444 31.9362 33.6142 31.96L38.5214 34.4758C38.5814 34.5186 38.6241 34.5815 38.6415 34.6532C38.659 34.7248 38.6501 34.8004 38.6165 34.866C38.5829 34.9317 38.5269 34.983 38.4586 35.0107C38.3903 35.0384 38.3143 35.0406 38.2446 35.0169Z" fill="#0052FB"/>
<path d="M33.9101 34.1443L32.7902 33.5702C32.7302 33.5274 32.6876 33.4644 32.6701 33.3927C32.6527 33.3211 32.6615 33.2455 32.6951 33.1799C32.7287 33.1142 32.7848 33.0629 32.853 33.0352C32.9213 33.0075 32.9973 33.0053 33.0671 33.029L34.1869 33.6032C34.2469 33.646 34.2896 33.7089 34.307 33.7806C34.3245 33.8522 34.3156 33.9278 34.282 33.9934C34.2484 34.0591 34.1924 34.1104 34.1241 34.1381C34.0558 34.1658 33.9798 34.168 33.9101 34.1443Z" fill="#0052FB"/>
<path d="M35.3467 36.2302L32.2433 34.6392C32.1833 34.5964 32.1407 34.5335 32.1232 34.4618C32.1058 34.3902 32.1147 34.3146 32.1482 34.249C32.1818 34.1833 32.2379 34.132 32.3062 34.1043C32.3745 34.0766 32.4504 34.0744 32.5202 34.0981L35.6235 35.6891C35.6835 35.7319 35.7261 35.7949 35.7436 35.8665C35.7611 35.9382 35.7522 36.0137 35.7186 36.0794C35.685 36.145 35.629 36.1964 35.5607 36.2241C35.4924 36.2518 35.4164 36.254 35.3467 36.2302Z" fill="#0052FB"/>
<path d="M28.1992 36.4017L26.3569 29.5364L31.2799 28.6035L31.0152 33.3158L37.4836 39.9829C37.826 39.9689 38.1651 40.0549 38.4596 40.2305C38.754 40.406 38.991 40.6636 39.1418 40.9717C39.2925 41.2798 39.3505 41.6252 39.3085 41.9656C39.2666 42.3061 39.1266 42.6271 38.9056 42.8893C38.6846 43.1515 38.3921 43.3437 38.0639 43.4424C37.7357 43.5411 37.3859 43.5421 37.0571 43.4453C36.7283 43.3484 36.4348 43.1579 36.2123 42.8969C35.9898 42.636 35.848 42.3158 35.8041 41.9756L28.1992 36.4017Z" fill="#A0616A"/>
<path d="M25.8531 21.8389C24.1821 23.1595 26.3268 30.546 26.3268 30.546C26.6589 30.1812 27.0448 35.5726 27.4507 35.389C28.6042 34.8673 30.7186 33.0681 31.5337 33.2147C31.9999 33.2986 31.5115 29.6486 31.5115 29.6486C31.5115 29.6486 31.4217 27.5557 31.2528 24.8653C31.2192 24.1038 30.9936 23.3632 30.5971 22.7124C30.2006 22.0616 29.6461 21.5219 28.9852 21.1433C28.9852 21.1433 27.5241 20.5184 25.8531 21.8389Z" fill="#3F3D56"/>
<path d="M53.6576 51.6398L49.2077 49.5364C49.1125 49.4916 49.0287 49.4259 48.9625 49.3441C48.8964 49.2623 48.8495 49.1666 48.8256 49.0641C48.8015 48.9639 48.8004 48.8595 48.8223 48.7587C48.8443 48.658 48.8887 48.5635 48.9524 48.4825C50.2414 46.8333 51.1265 44.9049 51.5367 42.8516C51.5677 42.6944 51.6523 42.5528 51.7759 42.451C51.8995 42.3491 52.0546 42.2934 52.2147 42.2932C54.4842 42.3009 56.1804 43.1305 57.256 44.7585C57.3127 44.8431 57.3502 44.9392 57.3661 45.0399C57.3819 45.1406 57.3756 45.2436 57.3476 45.3416C56.7248 47.4903 55.7771 49.5309 54.5375 51.3926C54.4455 51.5333 54.3057 51.6359 54.1439 51.6814C53.9821 51.7268 53.8094 51.7121 53.6576 51.6398Z" fill="#E6E6E6"/>
<path d="M54.9668 48.6896L51.5643 47.0813C51.4797 47.0413 51.4144 46.9693 51.3828 46.8811C51.3512 46.7929 51.3559 46.6957 51.3959 46.611C51.4358 46.5262 51.5078 46.4609 51.5959 46.4292C51.684 46.3976 51.7811 46.4023 51.8657 46.4423L55.2682 48.0506C55.3101 48.0705 55.3477 48.0983 55.3789 48.1327C55.41 48.1671 55.4341 48.2072 55.4498 48.2509C55.4654 48.2946 55.4723 48.3409 55.4701 48.3873C55.4678 48.4336 55.4565 48.4791 55.4367 48.521C55.4169 48.563 55.389 48.6006 55.3547 48.6318C55.3204 48.663 55.2803 48.6871 55.2366 48.7027C55.193 48.7184 55.1467 48.7253 55.1004 48.723C55.0541 48.7208 55.0087 48.7094 54.9668 48.6896Z" fill="white"/>
<path d="M55.4954 47.5691L52.0929 45.9608C52.0082 45.9208 51.9429 45.8488 51.9113 45.7606C51.8797 45.6724 51.8844 45.5752 51.9244 45.4905C51.9644 45.4057 52.0363 45.3404 52.1245 45.3087C52.2126 45.2771 52.3097 45.2818 52.3943 45.3218L55.7968 46.9302C55.8814 46.9702 55.9467 47.0422 55.9783 47.1304C56.0099 47.2186 56.0052 47.3158 55.9653 47.4005C55.9253 47.4853 55.8533 47.5506 55.7652 47.5823C55.6771 47.6139 55.58 47.6092 55.4954 47.5691Z" fill="white"/>
<path d="M50.9488 12.3954L50.632 12.4302C49.2198 6.8752 46.4827 3.02677 42.716 1.30087C37.9277 -0.89306 32.0068 0.580205 26.0439 5.44934C20.0507 10.3433 14.7451 18.0737 11.1047 27.2168L10.7974 27.076C14.4538 17.893 19.7866 10.1253 25.8134 5.20406C31.8704 0.257991 37.9122 -1.22608 42.8257 1.0253C46.7004 2.80066 49.5092 6.7324 50.9488 12.3954Z" fill="#F2F2F2"/>
<path d="M16.0061 19.6301C15.1779 21.3767 14.3901 23.1862 13.6645 25.0083C9.48959 35.4937 7.3739 46.2021 7.54679 55.9763L7.22049 55.9415C7.04743 46.1309 9.1692 35.3856 13.3572 24.8675C14.0848 23.0403 14.8749 21.2256 15.7055 19.4741L16.0061 19.6301Z" fill="#F2F2F2"/>
<path d="M15.8497 26.8347C15.0214 28.5814 14.2336 30.3909 13.508 32.213C9.33309 42.6984 7.2174 53.4067 7.39029 63.181L7.064 63.1461C6.89093 53.3355 9.01271 42.5903 13.2007 32.0722C13.9283 30.2449 14.7184 28.4303 15.549 26.6788L15.8497 26.8347Z" fill="#F2F2F2"/>
<path d="M7.07953 29.455C7.44023 28.9123 7.22674 28.1354 6.60268 27.7198C5.97862 27.3042 5.18031 27.4072 4.81961 27.9499C4.45891 28.4926 4.6724 29.2695 5.29646 29.6851C5.92052 30.1007 6.71883 29.9977 7.07953 29.455Z" fill="#CCCCCC"/>
<path d="M83.8867 49.0538C84.2474 48.5111 84.0339 47.7342 83.4098 47.3186C82.7857 46.903 81.9874 47.006 81.6267 47.5487C81.266 48.0914 81.4795 48.8683 82.1036 49.2839C82.7277 49.6995 83.526 49.5965 83.8867 49.0538Z" fill="#CCCCCC"/>
</g>
<defs>
<clipPath id="clip0_484_221">
<rect width="101" height="82" fill="white"/>
</clipPath>
</defs>
</svg>
