<svg width="101" height="83" viewBox="0 0 101 83" fill="none" xmlns="http://www.w3.org/2000/svg">
<g clip-path="url(#clip0_447_606)">
<path d="M13.6091 78.6296C13.4932 78.635 13.3785 78.6045 13.2805 78.5424C13.1825 78.4803 13.106 78.3895 13.0612 78.2824C13.0165 78.1752 13.0057 78.0569 13.0304 77.9434C13.0551 77.83 13.114 77.7268 13.1991 77.648C13.2134 77.5913 13.2236 77.5505 13.2379 77.4937C13.2328 77.4814 13.2277 77.469 13.2225 77.4567C13.1058 77.1807 12.9102 76.9453 12.6603 76.7802C12.4104 76.6151 12.1174 76.5277 11.818 76.5288C11.5186 76.5299 11.2262 76.6196 10.9775 76.7865C10.7289 76.9535 10.535 77.1902 10.4204 77.4671C9.96206 78.5722 9.37855 79.6792 9.23488 80.8477C9.1716 81.3642 9.19829 81.8877 9.31377 82.3951C8.23734 80.0442 7.67838 77.4891 7.67478 74.903C7.67455 74.2541 7.71056 73.6056 7.78265 72.9607C7.84222 72.432 7.92487 71.9071 8.0306 71.3859C8.60754 68.558 9.84626 65.9075 11.645 63.652C12.5156 63.1765 13.2197 62.4451 13.6624 61.5566C13.8227 61.2372 13.9361 60.8962 13.9989 60.5443C13.9007 60.5572 13.8008 60.5653 13.7026 60.5717C13.672 60.5733 13.6398 60.5749 13.6092 60.5766L13.5977 60.5771C13.4898 60.5819 13.3827 60.5554 13.2895 60.5008C13.1962 60.4462 13.1208 60.3657 13.0721 60.2691C13.0235 60.1725 13.0038 60.0639 13.0154 59.9564C13.0269 59.8488 13.0693 59.7469 13.1374 59.6629C13.1798 59.6107 13.2222 59.5585 13.2647 59.5063C13.3291 59.4257 13.3951 59.3467 13.4595 59.2661C13.4669 59.2584 13.4739 59.2504 13.4804 59.2419C13.5545 59.15 13.6286 59.0598 13.7026 58.9679C13.5674 58.7578 13.3856 58.5819 13.1713 58.4537C12.4291 58.0185 11.4051 58.3199 10.869 58.9921C10.3313 59.6642 10.2299 60.6072 10.4166 61.447C10.6003 62.1616 10.9041 62.8396 11.315 63.4522C11.2747 63.5037 11.2329 63.5537 11.1926 63.6053C10.4568 64.5525 9.81556 65.5697 9.27797 66.6421C9.40871 65.4406 9.25267 64.2253 8.8227 63.0959C8.38693 62.0435 7.57015 61.1571 6.85086 60.2472C5.98689 59.1543 4.21524 59.6313 4.06302 61.0167C4.06155 61.0301 4.06011 61.0435 4.05871 61.0569C4.16555 61.1172 4.27013 61.1813 4.37245 61.249C4.501 61.335 4.6006 61.4579 4.65821 61.6015C4.71582 61.7451 4.72876 61.9028 4.69532 62.054C4.66188 62.2051 4.58363 62.3425 4.47081 62.4484C4.358 62.5542 4.21589 62.6234 4.0631 62.647L4.04745 62.6494C4.08551 63.0349 4.15278 63.417 4.24869 63.7923C4.52661 64.84 5.01771 65.8189 5.69122 66.6676C6.36472 67.5164 7.2061 68.2167 8.16261 68.7247C8.2254 68.7569 8.2866 68.7891 8.34939 68.8198C7.80927 70.3522 7.47047 71.9485 7.34152 73.5684C7.26852 74.5241 7.27282 75.4841 7.3544 76.4392L7.34957 76.4053C7.14348 75.3433 6.57764 74.3851 5.74761 73.6925C4.51482 72.6786 2.77312 72.3053 1.44315 71.4903C1.30181 71.3994 1.13746 71.351 0.969494 71.3505C0.801526 71.3501 0.636948 71.3978 0.495164 71.488C0.353379 71.5782 0.240304 71.707 0.169278 71.8594C0.0982527 72.0118 0.072238 72.1814 0.0943009 72.3481C0.0960826 72.3599 0.0978985 72.3718 0.0997428 72.3836C0.298 72.4645 0.491031 72.5576 0.677721 72.6625C0.784559 72.7228 0.889144 72.7869 0.991467 72.8546C1.12001 72.9406 1.21962 73.0635 1.27723 73.2071C1.33484 73.3507 1.34777 73.5084 1.31433 73.6596C1.28089 73.8107 1.20264 73.9481 1.08983 74.054C0.977012 74.1598 0.8349 74.229 0.682107 74.2526L0.666451 74.255C0.655179 74.2566 0.645521 74.2583 0.634268 74.2599C0.973019 75.0697 1.44846 75.815 2.03979 76.4633C2.77027 77.2481 3.65316 77.8752 4.63431 78.3062C5.61546 78.7372 6.67421 78.963 7.74563 78.9698H7.74725C8.03809 80.2351 8.45949 81.4668 9.00466 82.6449H13.4966C13.5127 82.5949 13.5271 82.5434 13.5416 82.4934C13.1259 82.5196 12.7084 82.4947 12.2987 82.4192C12.632 82.0098 12.9652 81.5972 13.2985 81.1878C13.306 81.1801 13.3129 81.172 13.3195 81.1636C13.4885 80.954 13.6592 80.7461 13.8282 80.5366L13.8283 80.5363C13.8373 79.894 13.7637 79.2532 13.6093 78.6297L13.6091 78.6296Z" fill="#F2F2F2"/>
<path d="M87.359 78.6296C87.4749 78.635 87.5896 78.6045 87.6876 78.5424C87.7856 78.4803 87.8621 78.3895 87.9069 78.2824C87.9516 78.1752 87.9624 78.0569 87.9377 77.9434C87.913 77.83 87.8541 77.7268 87.769 77.648C87.7547 77.5913 87.7445 77.5505 87.7302 77.4937C87.7353 77.4814 87.7404 77.469 87.7456 77.4567C87.8623 77.1807 88.0579 76.9453 88.3078 76.7802C88.5577 76.6151 88.8507 76.5277 89.1501 76.5288C89.4495 76.5299 89.7419 76.6196 89.9906 76.7865C90.2392 76.9535 90.4331 77.1902 90.5477 77.4671C91.006 78.5722 91.5895 79.6792 91.7332 80.8477C91.7965 81.3642 91.7698 81.8877 91.6543 82.3951C92.7308 80.0442 93.2897 77.4891 93.2933 74.903C93.2935 74.2541 93.2575 73.6056 93.1855 72.9607C93.1259 72.432 93.0432 71.9071 92.9375 71.3859C92.3606 68.558 91.1218 65.9075 89.3231 63.652C88.4525 63.1765 87.7484 62.4451 87.3057 61.5566C87.1454 61.2372 87.032 60.8962 86.9692 60.5443C87.0674 60.5572 87.1673 60.5653 87.2655 60.5717C87.2961 60.5733 87.3283 60.5749 87.3589 60.5766L87.3704 60.5771C87.4783 60.5819 87.5854 60.5554 87.6786 60.5008C87.7719 60.4462 87.8474 60.3657 87.896 60.2691C87.9446 60.1725 87.9643 60.0639 87.9527 59.9564C87.9412 59.8488 87.8988 59.7469 87.8307 59.6629C87.7883 59.6107 87.7459 59.5585 87.7034 59.5063C87.639 59.4257 87.573 59.3467 87.5086 59.2661C87.5012 59.2584 87.4942 59.2504 87.4877 59.2419C87.4136 59.15 87.3395 59.0598 87.2655 58.9679C87.4007 58.7578 87.5825 58.5819 87.7968 58.4537C88.539 58.0185 89.563 58.3199 90.0991 58.9921C90.6368 59.6642 90.7383 60.6072 90.5515 61.447C90.3679 62.1616 90.064 62.8396 89.6531 63.4522C89.6934 63.5037 89.7352 63.5537 89.7755 63.6053C90.5113 64.5525 91.1525 65.5697 91.6901 66.6421C91.5594 65.4406 91.7154 64.2253 92.1454 63.0959C92.5812 62.0435 93.398 61.1571 94.1172 60.2472C94.9812 59.1543 96.7529 59.6313 96.9051 61.0167C96.9065 61.0301 96.908 61.0435 96.9094 61.0569C96.8026 61.1172 96.698 61.1813 96.5957 61.249C96.4671 61.335 96.3675 61.4579 96.3099 61.6015C96.2523 61.7451 96.2393 61.9028 96.2728 62.054C96.3062 62.2051 96.3845 62.3425 96.4973 62.4484C96.6101 62.5542 96.7522 62.6234 96.905 62.647L96.9207 62.6494C96.8826 63.0349 96.8153 63.417 96.7194 63.7923C96.4415 64.84 95.9504 65.8189 95.2769 66.6676C94.6034 67.5164 93.762 68.2167 92.8055 68.7247C92.7427 68.7569 92.6815 68.7891 92.6187 68.8198C93.1589 70.3522 93.4977 71.9485 93.6266 73.5684C93.6996 74.5241 93.6953 75.4841 93.6137 76.4391L93.6185 76.4053C93.8246 75.3433 94.3905 74.3851 95.2205 73.6925C96.4533 72.6786 98.195 72.3052 99.525 71.4903C99.6663 71.3994 99.8307 71.3509 99.9986 71.3505C100.167 71.3501 100.331 71.3978 100.473 71.488C100.615 71.5781 100.728 71.707 100.799 71.8594C100.87 72.0118 100.896 72.1813 100.874 72.3481C100.872 72.3599 100.87 72.3718 100.868 72.3836C100.67 72.4645 100.477 72.5576 100.29 72.6625C100.184 72.7228 100.079 72.7869 99.9767 72.8546C99.8481 72.9406 99.7485 73.0635 99.6909 73.2071C99.6333 73.3507 99.6203 73.5084 99.6538 73.6595C99.6872 73.8107 99.7655 73.9481 99.8783 74.054C99.9911 74.1598 100.133 74.229 100.286 74.2526L100.302 74.255C100.313 74.2566 100.323 74.2583 100.334 74.2599C99.9951 75.0697 99.5196 75.815 98.9283 76.4633C98.1978 77.2481 97.315 77.8752 96.3338 78.3062C95.3527 78.7372 94.2939 78.963 93.2225 78.9698H93.2209C92.93 80.2351 92.5086 81.4668 91.9635 82.6449H87.4716C87.4554 82.5949 87.441 82.5433 87.4265 82.4934C87.8422 82.5195 88.2597 82.4947 88.6694 82.4192C88.3361 82.0098 88.0029 81.5972 87.6696 81.1878C87.6622 81.1801 87.6552 81.172 87.6487 81.1636C87.4796 80.954 87.3089 80.7461 87.1399 80.5366L87.1398 80.5363C87.1308 79.894 87.2046 79.2531 87.359 78.6296Z" fill="#F2F2F2"/>
<path d="M31.7375 80.6341H32.825L33.3426 76.4344H31.7375V80.6341Z" fill="#9E616A"/>
<path d="M31.3824 79.8883L33.1199 79.7844V80.5297L34.7717 81.6719C34.8533 81.7283 34.9147 81.8093 34.9471 81.9031C34.9794 81.997 34.9809 82.0987 34.9514 82.1935C34.9219 82.2883 34.8629 82.3711 34.7831 82.4299C34.7032 82.4888 34.6066 82.5205 34.5075 82.5205H32.439L32.0824 81.7833L31.9432 82.5205H31.1633L31.3824 79.8883Z" fill="#2F2E41"/>
<path d="M18.1072 79.709L19.1176 80.1116L21.1497 76.4014L19.6585 75.8071L18.1072 79.709Z" fill="#9E616A"/>
<path d="M18.0529 78.8847L19.7055 79.4316L19.4302 80.124L20.543 81.7968C20.5979 81.8794 20.6251 81.9775 20.6205 82.0766C20.6158 82.1758 20.5797 82.2709 20.5172 82.348C20.4548 82.4251 20.3694 82.4803 20.2735 82.5054C20.1775 82.5304 20.0761 82.5242 19.984 82.4874L18.0622 81.7215L18.0032 80.9046L17.6016 81.538L16.877 81.2492L18.0529 78.8847Z" fill="#2F2E41"/>
<path d="M29.5452 68.1374L27.7317 59.6645L24.8999 69.0786L20.4159 78.0055L20.3921 78.0529L18.9718 77.2872C18.7713 73.6625 19.2474 70.2659 20.9887 67.2957L21.8132 59.1434C21.8385 58.8648 22.4536 52.3252 24.4011 51.1655L24.9715 49.8635L30.6443 48.4608L30.6649 48.484C31.2104 49.0979 31.5708 49.8541 31.7041 50.6648L33.3992 60.9457L33.4001 60.9514L32.9456 68.1235L33.5673 78.7047H31.3178C29.9261 76.0832 29.3353 72.5607 29.5452 68.1374Z" fill="#2F2E41"/>
<path d="M57.251 33.5636C57.251 35.9717 60.8227 40.2007 61.6061 37.9239C62.5653 35.1364 64.6112 33.3695 65.9613 33.5636C68.3421 33.9061 64.0114 29.2034 61.6061 29.2034C60.4511 29.2034 59.3433 29.6628 58.5266 30.4805C57.7098 31.2982 57.251 32.4072 57.251 33.5636Z" fill="#E6E6E6"/>
<path d="M56.336 19.9085C55.7711 22.2492 58.2858 24.2687 60.6911 24.2687C61.263 24.2687 61.8293 24.1559 62.3577 23.9368C62.8861 23.7177 63.3662 23.3965 63.7706 22.9916C64.1751 22.5867 64.4959 22.1061 64.7147 21.5771C64.9336 21.0481 65.0462 20.4811 65.0462 19.9085C65.0462 17.5004 61.8043 17.6829 60.6911 15.5482C59.4167 13.1045 57.5501 14.8769 56.336 19.9085Z" fill="#E6E6E6"/>
<path d="M36.2102 19.7253C36.2102 20.8817 36.669 21.9908 37.4858 22.8085C38.3025 23.6262 39.4103 24.0855 40.5653 24.0855C42.9706 24.0855 44.9904 22.1324 44.9205 19.7253C44.774 14.6827 42.8228 12.7068 40.5653 15.3651C39.0073 17.1996 36.2102 17.3172 36.2102 19.7253Z" fill="#E6E6E6"/>
<path d="M35.8444 33.5636C33.8119 32.684 37.3418 37.192 40.1995 37.9239C42.5298 38.5207 44.5547 35.9717 44.5547 33.5636C44.5547 32.991 44.442 32.4241 44.2232 31.895C44.0043 31.366 43.6835 30.8854 43.2791 30.4805C42.8747 30.0756 42.3946 29.7544 41.8662 29.5353C41.3378 29.3162 40.7715 29.2034 40.1995 29.2034C37.7942 29.2034 38.0522 34.5192 35.8444 33.5636Z" fill="#E6E6E6"/>
<path d="M84.8514 5.40508H13.7285C13.6546 5.4035 13.5842 5.37297 13.5324 5.32004C13.4806 5.26711 13.4517 5.19598 13.4517 5.12191C13.4517 5.04784 13.4806 4.97671 13.5324 4.92378C13.5842 4.87085 13.6546 4.84032 13.7285 4.83875H84.8514C84.9254 4.84032 84.9958 4.87085 85.0475 4.92378C85.0993 4.97671 85.1283 5.04784 85.1283 5.12191C85.1283 5.19598 85.0993 5.26711 85.0475 5.32004C84.9958 5.37297 84.9254 5.4035 84.8514 5.40508Z" fill="#CACACA"/>
<path d="M18.5701 3.39295C19.4856 3.39295 20.2277 2.63341 20.2277 1.69648C20.2277 0.759538 19.4856 0 18.5701 0C17.6547 0 16.9126 0.759538 16.9126 1.69648C16.9126 2.63341 17.6547 3.39295 18.5701 3.39295Z" fill="#3F3D56"/>
<path d="M24.2962 3.39295C25.2117 3.39295 25.9538 2.63341 25.9538 1.69648C25.9538 0.759538 25.2117 0 24.2962 0C23.3808 0 22.6387 0.759538 22.6387 1.69648C22.6387 2.63341 23.3808 3.39295 24.2962 3.39295Z" fill="#3F3D56"/>
<path d="M30.0223 3.39295C30.9377 3.39295 31.6798 2.63341 31.6798 1.69648C31.6798 0.759538 30.9377 0 30.0223 0C29.1069 0 28.3647 0.759538 28.3647 1.69648C28.3647 2.63341 29.1069 3.39295 30.0223 3.39295Z" fill="#3F3D56"/>
<path d="M81.4039 0.420486H77.3364C77.2558 0.422084 77.179 0.455273 77.1225 0.512925C77.0661 0.570577 77.0344 0.648096 77.0344 0.728833C77.0344 0.809571 77.0661 0.887087 77.1225 0.944739C77.179 1.00239 77.2558 1.03558 77.3364 1.03718H81.4039C81.4845 1.03558 81.5613 1.00239 81.6178 0.944739C81.6742 0.887087 81.7058 0.809571 81.7058 0.728833C81.7058 0.648096 81.6742 0.570577 81.6178 0.512925C81.5613 0.455273 81.4845 0.422084 81.4039 0.420486Z" fill="#3F3D56"/>
<path d="M81.4038 1.57792H77.3363C77.2557 1.57953 77.1789 1.61272 77.1225 1.67037C77.066 1.72802 77.0344 1.80554 77.0344 1.88627C77.0344 1.967 77.066 2.04451 77.1225 2.10216C77.1789 2.15981 77.2557 2.193 77.3363 2.19461H81.4038C81.4845 2.193 81.5613 2.15981 81.6177 2.10216C81.6741 2.04451 81.7058 1.967 81.7058 1.88627C81.7058 1.80554 81.6741 1.72802 81.6177 1.67037C81.5613 1.61272 81.4845 1.57953 81.4038 1.57792Z" fill="#3F3D56"/>
<path d="M81.4038 2.73383H77.3363C77.2557 2.73544 77.1789 2.76863 77.1225 2.82628C77.066 2.88393 77.0344 2.96145 77.0344 3.04218C77.0344 3.12291 77.066 3.20042 77.1225 3.25807C77.1789 3.31572 77.2557 3.34892 77.3363 3.35052H81.4038C81.4845 3.34892 81.5613 3.31572 81.6177 3.25807C81.6741 3.20042 81.7058 3.12291 81.7058 3.04218C81.7058 2.96145 81.6741 2.88393 81.6177 2.82628C81.5613 2.76863 81.4845 2.73544 81.4038 2.73383Z" fill="#3F3D56"/>
<path d="M61.1188 17.9295H55.2933C55.1722 17.9295 55.0523 17.9534 54.9405 17.9998C54.8286 18.0462 54.727 18.1141 54.6414 18.1999C54.5558 18.2856 54.4879 18.3873 54.4415 18.4993C54.3952 18.6113 54.3713 18.7313 54.3713 18.8525V24.6848C54.3713 24.9296 54.4685 25.1644 54.6414 25.3375C54.8143 25.5106 55.0488 25.6079 55.2933 25.6079H61.1188C61.3633 25.6079 61.5978 25.5106 61.7707 25.3375C61.9436 25.1644 62.0407 24.9296 62.0407 24.6848V18.8525C62.0407 18.6077 61.9436 18.373 61.7707 18.1999C61.5978 18.0268 61.3633 17.9295 61.1188 17.9295ZM60.0249 19.8986H59.3569C58.9007 19.8986 58.8119 20.1148 58.8119 20.434V21.111H59.8997L59.7585 22.1738H58.8099V24.9453C58.4043 25.0215 57.988 25.0205 57.5828 24.9423V22.1738H56.7129V21.111H57.599V20.325C57.599 19.3853 58.2509 18.8721 59.0904 18.8721C59.4941 18.8721 59.926 18.9024 60.0249 18.9166V19.8986Z" fill="#0052FB"/>
<path d="M46.547 17.9295H40.7215C40.477 17.9295 40.2425 18.0268 40.0696 18.1999C39.8967 18.373 39.7996 18.6077 39.7996 18.8525V24.6848C39.7996 24.9296 39.8967 25.1644 40.0696 25.3375C40.2425 25.5106 40.477 25.6079 40.7215 25.6079H46.547C46.7915 25.6079 47.026 25.5106 47.1989 25.3375C47.3718 25.1644 47.4689 24.9296 47.4689 24.6848V18.8525C47.4689 18.6077 47.3718 18.373 47.1989 18.1999C47.026 18.0268 46.7915 17.9295 46.547 17.9295ZM43.6342 23.8163C43.2297 23.8163 42.8343 23.6962 42.498 23.4712C42.1617 23.2462 41.8995 22.9264 41.7447 22.5523C41.59 22.1781 41.5495 21.7664 41.6284 21.3692C41.7073 20.972 41.9021 20.6072 42.1881 20.3209C42.4741 20.0345 42.8385 19.8395 43.2352 19.7605C43.632 19.6815 44.0432 19.722 44.4169 19.877C44.7906 20.032 45.11 20.2944 45.3347 20.6311C45.5595 20.9679 45.6794 21.3637 45.6794 21.7687C45.6794 22.3117 45.4639 22.8325 45.0804 23.2165C44.6968 23.6005 44.1766 23.8163 43.6342 23.8163ZM45.935 19.7211C45.8339 19.7211 45.7351 19.6911 45.651 19.6349C45.5669 19.5786 45.5014 19.4987 45.4627 19.4051C45.424 19.3116 45.4138 19.2087 45.4336 19.1094C45.4533 19.0101 45.502 18.9189 45.5735 18.8473C45.645 18.7757 45.7361 18.7269 45.8353 18.7072C45.9345 18.6874 46.0373 18.6976 46.1307 18.7363C46.2241 18.7751 46.304 18.8407 46.3602 18.9249C46.4163 19.009 46.4463 19.108 46.4463 19.2092C46.4463 19.345 46.3925 19.4752 46.2966 19.5712C46.2007 19.6672 46.0706 19.7211 45.935 19.7211Z" fill="#0052FB"/>
<path d="M62.5222 31.705C62.6884 31.7062 62.8522 31.7438 63.0022 31.8152C63.1523 31.8867 63.2848 31.9902 63.3906 32.1184C63.4963 32.2467 63.5727 32.3966 63.6143 32.5576C63.656 32.7187 63.6618 32.8868 63.6315 33.0504L65.808 34.4683L65.27 36.0027L62.2243 33.9571C61.9533 33.8879 61.7171 33.7215 61.5604 33.4896C61.4037 33.2576 61.3374 32.9762 61.3742 32.6986C61.4109 32.421 61.548 32.1665 61.7596 31.9834C61.9712 31.8002 62.2426 31.7012 62.5222 31.705Z" fill="#FFB6B6"/>
<path d="M63.2974 35.4335L64.8508 33.6378L66.8582 34.5698L70.9601 37.8381C71.4979 37.901 75.5784 38.4283 75.5034 39.9286C75.5016 40.1039 75.4618 40.2768 75.387 40.4353C75.3121 40.5938 75.2038 40.7342 75.0696 40.8468C74.4255 41.3791 73.3094 41.228 73.2677 41.2219L70.5973 41.0881C70.4576 41.1218 69.008 41.4552 68.2407 40.9781C68.0079 40.8333 63.2974 35.4335 63.2974 35.4335Z" fill="#3F3D56"/>
<path d="M67.7775 81.2997L66.5052 81.2996L65.8999 76.3862H67.7776L67.7775 81.2997Z" fill="#FFB6B6"/>
<path d="M68.1021 82.5345L63.9995 82.5343V82.4824C63.9995 82.0584 64.1678 81.6517 64.4673 81.3519C64.7667 81.0521 65.1729 80.8837 65.5964 80.8837L66.3459 80.3145L67.7441 80.8837L68.1022 80.8837L68.1021 82.5345Z" fill="#2F2E41"/>
<path d="M81.7428 80.3027L80.5163 80.6419L78.6262 76.0671L80.4363 75.5666L81.7428 80.3027Z" fill="#FFB6B6"/>
<path d="M82.3839 81.4065L78.4293 82.5L78.4155 82.4499C78.3028 82.0412 78.3568 81.6044 78.5657 81.2356C78.7747 80.8668 79.1214 80.5961 79.5296 80.4832L80.1006 79.7348L81.5998 79.9108L81.945 79.8153L82.3839 81.4065Z" fill="#2F2E41"/>
<path d="M67.8336 51.5644L77.4478 52.0555L77.451 52.0642C78.0269 53.6658 78.1613 55.3931 77.8403 57.0647L78.1346 59.5202L79.6061 67.1813L81.5682 77.0033C81.5682 77.0033 84.1189 77.6908 80.7834 78.8695C77.4478 80.0481 78.1346 79.3605 78.6251 78.4766C79.1156 77.5926 76.2215 67.6233 76.2215 67.6233L72.6898 59.6675L69.2561 67.918L68.8637 77.0524C68.8637 77.0524 69.8938 78.2801 66.9506 78.7712C64.0075 79.2623 64.1547 78.3292 64.8414 77.6417C65.5281 76.9542 66.1168 67.8197 66.1168 67.8197L66.8035 59.1764C66.8035 59.1764 66.6073 54.1672 67.8336 51.5644Z" fill="#2F2E41"/>
<path d="M77.2344 40.3431L76.4614 38.3133L73.9721 35.8586L70.8194 35.6108L68.5024 37.6877L67.8472 39.7538C68.7065 43.7375 68.689 47.4066 67.4713 50.9612C67.3848 51.2069 67.3529 51.4686 67.3778 51.7279C67.4027 51.9873 67.4839 52.2381 67.6155 52.4628C67.7472 52.6875 67.9262 52.8808 68.1402 53.0291C68.3541 53.1775 68.5978 53.2773 68.8543 53.3217C72.4258 53.9225 79.0764 54.8235 78.6183 53.1083C78.0123 50.8394 75.9041 45.9557 76.6851 43.3733C76.9693 42.4761 77.1481 41.5488 77.218 40.6101L77.2344 40.3431Z" fill="#3F3D56"/>
<path d="M71.8657 34.8186C73.4197 34.8186 74.6794 33.5574 74.6794 32.0016C74.6794 30.4458 73.4197 29.1846 71.8657 29.1846C70.3117 29.1846 69.052 30.4458 69.052 32.0016C69.052 33.5574 70.3117 34.8186 71.8657 34.8186Z" fill="#FFB6B6"/>
<path d="M71.0981 34.6706L73.2428 34.5611C73.5176 34.5471 73.8176 34.5228 74.0175 34.3334C74.125 34.2165 74.2077 34.0789 74.2606 33.9291C74.4589 33.468 74.6572 33.0068 74.8504 32.5436C75.1176 31.9028 75.3801 31.2262 75.3119 30.5351C75.2959 30.2195 75.1637 29.9211 74.9408 29.6973C74.8271 29.5895 74.6809 29.5225 74.525 29.5067C74.3692 29.4909 74.2125 29.5272 74.0795 29.61C74.0464 29.3914 73.9642 29.1832 73.8389 29.0011C73.7137 28.8191 73.5487 28.6679 73.3565 28.559C72.9684 28.3444 72.5252 28.2503 72.0835 28.2888C71.4425 28.3302 70.8305 28.5717 70.3337 28.9793C70.1939 29.1084 70.0447 29.2267 69.8873 29.3334C69.8081 29.3864 69.7189 29.4227 69.6253 29.4401C69.5316 29.4574 69.4354 29.4555 69.3425 29.4344C69.2505 29.4097 69.1705 29.3526 69.1173 29.2735C69.0641 29.1944 69.0412 29.0987 69.053 29.0041C68.902 29.1172 68.7984 29.2825 68.7626 29.4679C68.7267 29.6533 68.7611 29.8454 68.859 30.0068C68.7477 30.0535 68.6262 30.0705 68.5063 30.0563C68.3864 30.0421 68.2722 29.9971 68.1748 29.9257C68.0705 29.9776 67.9782 30.0506 67.9037 30.1403C67.8292 30.2299 67.7742 30.3341 67.7423 30.4463C67.7103 30.5584 67.7021 30.676 67.7182 30.7914C67.7343 30.9069 67.7743 31.0178 67.8356 31.1169C67.897 31.216 67.9783 31.3012 68.0744 31.3671C68.1706 31.4329 68.2794 31.4779 68.3939 31.4992C68.5084 31.5205 68.6261 31.5176 68.7394 31.4907C68.8527 31.4639 68.9592 31.4136 69.052 31.3431C69.1822 31.5257 69.1337 31.7737 69.1167 31.9974C69.0998 32.221 69.1597 32.499 69.375 32.5608C69.6662 32.6443 69.902 32.2519 70.2048 32.2561C70.2795 32.2621 70.3516 32.2866 70.4146 32.3272C70.4776 32.3679 70.5296 32.4235 70.5659 32.489C70.6373 32.6208 70.6862 32.7637 70.7105 32.9116L71.0981 34.6585" fill="#2F2E41"/>
<path d="M56.7317 39.1528C55.6603 39.1535 54.6118 38.8423 53.7138 38.2572L53.262 37.9631L53.7976 38.0226C53.9379 38.0382 54.0891 38.0474 54.2467 38.0496C54.9687 38.0502 55.6756 37.8422 56.2825 37.4506C55.9219 37.3724 55.5879 37.2012 55.3136 36.9541C55.0393 36.7069 54.8342 36.3924 54.7186 36.0415L54.6515 35.8346L54.8647 35.8765C54.9616 35.8956 55.0599 35.9067 55.1586 35.9096C54.8207 35.7355 54.537 35.4718 54.3387 35.1472C54.1404 34.8226 54.035 34.4497 54.0341 34.0692V33.85L54.2248 33.9344C54.3378 33.9981 54.4575 34.049 54.5818 34.0863C54.2879 33.7562 54.1054 33.3418 54.0602 32.9019C54.0149 32.4621 54.1093 32.0191 54.3299 31.636L54.423 31.4751L54.5398 31.6195C55.3908 32.6738 56.6102 33.3648 57.9511 33.5527C57.9879 33.558 58.0253 33.5552 58.0609 33.5445C58.0965 33.5339 58.1294 33.5157 58.1573 33.4911C58.1858 33.4663 58.2087 33.4356 58.2243 33.4012C58.24 33.3668 58.2481 33.3294 58.248 33.2916C58.2449 32.8825 58.3635 32.4817 58.5888 32.1404C58.814 31.799 59.1357 31.5325 59.5128 31.3748C59.8899 31.2172 60.3053 31.1756 60.7061 31.2552C61.107 31.3349 61.475 31.5322 61.7634 31.8221C62.158 31.7358 62.5364 31.5871 62.8841 31.3814L63.1776 31.2075L63.0706 31.5316C62.9715 31.8324 62.8053 32.1066 62.5845 32.3333C62.7804 32.2823 62.9719 32.2157 63.1572 32.1343L63.5548 31.9593L63.3153 32.322C63.0615 32.7068 62.7444 33.0457 62.3776 33.3245V33.5095C62.3776 36.2835 60.27 39.1527 56.743 39.1527L56.7317 39.1528Z" fill="#0052FB"/>
<path d="M59.2582 37.1776C59.4242 37.1707 59.5896 37.2004 59.7429 37.2645C59.8962 37.3286 60.0336 37.4256 60.1454 37.5486C60.2572 37.6717 60.3407 37.8177 60.39 37.9765C60.4394 38.1354 60.4533 38.3031 60.4309 38.4679L62.6732 39.7791L62.2096 41.3377L59.069 39.4415C58.795 39.3854 58.551 39.2306 58.3833 39.0065C58.2157 38.7824 58.1359 38.5045 58.1593 38.2254C58.1826 37.9464 58.3073 37.6856 58.5099 37.4924C58.7124 37.2993 58.9787 37.1873 59.2582 37.1776Z" fill="#FFB6B6"/>
<path d="M61.8984 42.0706L60.2236 40.2562L61.3846 38.5184L62.6358 39.5694L64.0039 39.8971L65.9343 40.6299C66.203 40.1594 68.2882 36.6084 69.6372 37.266C69.7975 37.3365 69.9408 37.4409 70.057 37.572C70.1733 37.7031 70.2598 37.8579 70.3106 38.0257C70.547 38.8276 69.9704 39.7962 69.9484 39.8322L68.7779 42.239C68.7541 42.3809 68.4917 43.8466 67.7524 44.3661C67.6479 44.4426 67.5286 44.4965 67.4022 44.5245C67.2758 44.5525 67.145 44.5538 67.018 44.5285C64.7205 44.0935 63.1016 43.4208 62.2756 42.565C62.1299 42.4165 62.0032 42.2504 61.8984 42.0706Z" fill="#3F3D56"/>
<path d="M32.1087 35.0558C31.8509 34.5006 32.26 33.8809 32.406 33.2833C32.6785 32.1681 31.9108 30.9608 30.8703 30.5744C29.8297 30.188 28.634 30.5109 27.7401 31.1871C26.8639 31.8499 26.2479 32.1622 25.6444 33.0987C25.442 33.4128 25.2276 34.3879 25.1893 34.764C25.151 35.1401 25.3454 35.5712 25.6998 35.6536C25.6658 35.7208 25.6509 35.7959 25.6567 35.8709C25.6624 35.9459 25.6886 36.0179 25.7324 36.079C25.7762 36.1402 25.8359 36.1881 25.905 36.2176C25.9741 36.2472 26.0499 36.2572 26.1243 36.2465C26.8026 36.1154 28.0484 36.4759 28.0484 36.4759C29.2099 36.5425 30.3714 36.6091 31.533 36.6756C31.8306 36.6927 32.1394 36.7082 32.4068 36.5436C32.4808 36.5002 32.5445 36.4413 32.5936 36.371C32.6427 36.3006 32.676 36.2205 32.6912 36.136C32.7592 35.6955 32.2864 35.4385 32.1087 35.0558Z" fill="#2F2E41"/>
<path d="M32.9856 39.9129L32.7314 41.6067L32.3284 44.2902L32.2601 45.2845L31.7585 52.5718L30.377 53.6357C29.5772 54.2517 28.5788 54.5513 27.5724 54.4774C26.5659 54.4034 25.6219 53.9611 24.9205 53.2348L23.2429 52.4262C24.142 51.5407 23.9748 47.4367 23.9748 47.4367L23.9647 39.376L26.2387 38.6104L26.9877 37.1341H29.6748L30.3466 38.7034L31.5659 39.2617L32.1212 39.5173L32.9856 39.9129Z" fill="#E6E6E6"/>
<path d="M28.4424 36.377C29.6971 36.377 30.7143 35.3586 30.7143 34.1024C30.7143 32.8461 29.6971 31.8277 28.4424 31.8277C27.1876 31.8277 26.1704 32.8461 26.1704 34.1024C26.1704 35.3586 27.1876 36.377 28.4424 36.377Z" fill="#9E616A"/>
<path d="M27.1444 33.3889C26.5442 33.3899 25.9583 33.2048 25.4673 32.8592L25.4509 32.8477C25.4509 32.5571 25.5081 32.2694 25.6191 32.001C25.7302 31.7326 25.893 31.4886 26.0982 31.2832C26.3034 31.0777 26.547 30.9148 26.8151 30.8036C27.0833 30.6924 27.3706 30.6352 27.6608 30.6352H28.5629C28.8512 30.6355 29.1366 30.6927 29.4028 30.8036C29.669 30.9145 29.9107 31.0769 30.1141 31.2815C30.3175 31.486 30.4786 31.7287 30.5882 31.9957C30.6978 32.2626 30.7538 32.5486 30.7528 32.8373C30.751 32.969 30.6978 33.0948 30.6046 33.1879C30.5115 33.281 30.3857 33.334 30.2541 33.3357L27.1962 33.3884C27.1789 33.3887 27.1616 33.3889 27.1444 33.3889Z" fill="#2F2E41"/>
<path d="M33.7948 44.5892L31.7368 44.6061L31.5856 48.2733L29.9135 50.3228C29.71 50.3571 29.5201 50.447 29.3645 50.5826C29.2089 50.7182 29.0938 50.8942 29.0319 51.0912C28.9699 51.2882 28.9636 51.4985 29.0135 51.6989C29.0635 51.8992 29.1678 52.0819 29.3149 52.2266C29.462 52.3714 29.6462 52.4726 29.8472 52.5191C30.0482 52.5656 30.2581 52.5556 30.4538 52.4902C30.6494 52.4248 30.8232 52.3065 30.9559 52.1484C31.0886 51.9903 31.1751 51.7985 31.2058 51.5943L33.5092 48.3974L33.7948 44.5892Z" fill="#9E616A"/>
<path d="M22.9435 44.6988L20.8339 43.7115L18.5303 46.5668L15.9677 47.2156C15.784 47.1218 15.5779 47.0807 15.3722 47.0968C15.1666 47.113 14.9694 47.1857 14.8024 47.307C14.6355 47.4283 14.5052 47.5934 14.4261 47.7841C14.347 47.9748 14.3221 48.1837 14.3542 48.3877C14.3862 48.5918 14.4739 48.7829 14.6077 48.9402C14.7414 49.0974 14.916 49.2145 15.112 49.2787C15.3081 49.3428 15.5181 49.3514 15.7187 49.3036C15.9194 49.2558 16.103 49.1534 16.2491 49.0076L20.0015 47.8138L22.9435 44.6988Z" fill="#9E616A"/>
<path d="M29.5791 36.2015L30.3657 35.219C30.4506 35.1329 30.5059 35.0219 30.5235 34.9022C30.5276 34.7821 30.4146 34.6535 30.3006 34.6912C30.1948 34.7261 29.5852 33.1969 29.4738 33.1972C29.3583 33.1976 29.3206 33.0434 29.3192 32.9279C29.3136 32.4898 29.6692 32.9602 29.7868 32.5382C29.9044 32.1163 30.3627 32.4791 30.7576 32.2906C31.1526 32.1022 31.6893 32.1878 31.9335 32.5513C32.1145 32.8208 32.1078 33.171 32.0838 33.4949C32.028 34.2465 31.9151 34.9928 31.7459 35.7272C31.7043 35.9076 31.6425 36.1092 31.4764 36.1907C31.385 36.2269 31.2865 36.2416 31.1885 36.2337L29.9774 36.2277" fill="#2F2E41"/>
<path d="M31.4663 31.9778C32.0847 31.9778 32.5859 31.4759 32.5859 30.8568C32.5859 30.2378 32.0847 29.7359 31.4663 29.7359C30.848 29.7359 30.3467 30.2378 30.3467 30.8568C30.3467 31.4759 30.848 31.9778 31.4663 31.9778Z" fill="#2F2E41"/>
<path d="M33.9845 44.5537C33.8635 44.7644 33.606 44.8485 33.3709 44.9135C33.0529 45.002 32.96 45.0917 32.642 45.1803C32.5155 45.2161 32.3879 45.252 32.2602 45.2845C32.0507 45.341 31.838 45.3848 31.6232 45.4157C31.4429 45.4414 31.2302 45.4414 31.1126 45.3013C31.0346 45.181 31.0032 45.0363 31.0242 44.8944C31.0701 43.1727 31.1164 41.4509 31.163 39.7291L31.2604 39.7627C31.3043 39.7338 31.3499 39.7076 31.397 39.6843C31.6211 39.57 31.8699 39.5126 32.1214 39.5173C32.2653 39.5184 32.4083 39.5407 32.5457 39.5834C32.7591 39.6512 32.9552 39.7648 33.1204 39.9161C33.2855 40.0675 33.4157 40.2531 33.5019 40.46C33.6136 40.7723 33.6667 41.1025 33.6587 41.4341C33.6598 41.4845 33.6598 41.535 33.6609 41.5854C33.6676 42.0158 33.4493 42.4463 33.456 42.8767C33.4509 42.9979 33.4676 43.119 33.5053 43.2343C33.55 43.3486 33.6374 43.4439 33.671 43.5627C33.7046 43.6804 33.6497 43.8419 33.5277 43.8508C33.6139 43.8416 33.7009 43.8565 33.7792 43.8938C33.8575 43.931 33.924 43.9893 33.9713 44.062C34.0186 44.1348 34.0449 44.2192 34.0472 44.306C34.0495 44.3928 34.0278 44.4785 33.9845 44.5537Z" fill="#E6E6E6"/>
<path d="M23.9743 39.3858C24.1982 39.3992 24.4164 39.4621 24.6132 39.5697C24.8101 39.6773 24.9808 39.8271 25.1131 40.0084C25.2455 40.1897 25.3362 40.398 25.3789 40.6185C25.4216 40.839 25.4151 41.0661 25.36 41.2838C25.2429 41.6475 25.059 41.986 24.8176 42.2819L24.0651 43.3305C23.9887 43.4245 23.93 43.5315 23.8917 43.6464C23.86 43.7654 23.8726 43.8943 23.8292 44.0094C23.7858 44.1245 23.6462 44.2211 23.5424 44.1551C23.6171 44.1991 23.6782 44.263 23.719 44.3396C23.7597 44.4162 23.7785 44.5026 23.7733 44.5893C23.768 44.6759 23.739 44.7594 23.6893 44.8305C23.6397 44.9017 23.5714 44.9577 23.4919 44.9924C23.2686 45.09 23.0121 45.0029 22.7846 44.9158L21.8604 44.5617C21.5318 44.4443 21.2115 44.3045 20.9019 44.1434C20.7419 44.0555 20.5712 43.9289 20.5598 43.7466C20.5509 43.6046 20.6708 43.4956 20.7309 43.3668C21.4836 41.7535 22.5903 40.4699 23.9649 39.376L23.9743 39.3858Z" fill="#E6E6E6"/>
<path d="M25.0555 49.0969C25.0555 48.1949 24.3915 47.4681 23.5609 47.4681C22.4485 47.4146 21.3169 47.3954 20.1597 47.3954H19.7988C18.6437 47.3954 17.5079 47.4146 16.3976 47.4681C15.5798 47.4681 14.9158 48.197 14.9158 49.1012C14.8646 49.8173 14.8432 50.5313 14.8454 51.2388C14.8475 51.9464 14.8646 52.6689 14.9137 53.3765C14.9137 54.2807 15.5777 55.0139 16.3955 55.0139C17.5612 55.0673 18.759 55.0908 19.9761 55.0908C21.1931 55.0908 22.3887 55.0694 23.5588 55.0139C24.3787 55.0139 25.0534 54.2807 25.0534 53.3765C25.1003 52.6604 25.1238 51.9464 25.1217 51.2281C25.1195 50.5099 25.1025 49.8002 25.0555 49.0905L25.0555 49.0969ZM19.0067 53.2161V49.2701L21.9148 51.241L19.0067 53.2161Z" fill="#0052FB"/>
<path d="M100.814 82.9518L0.186357 83C0.137012 82.9999 0.0897346 82.9801 0.0548925 82.9452C0.0200504 82.9102 0.000488281 82.8628 0.000488281 82.8134C0.000488281 82.764 0.0200504 82.7166 0.0548925 82.6816C0.0897346 82.6466 0.137012 82.6269 0.186357 82.6268L100.814 82.5786C100.863 82.5787 100.91 82.5984 100.945 82.6334C100.98 82.6684 100.999 82.7158 100.999 82.7652C100.999 82.8146 100.98 82.862 100.945 82.897C100.91 82.932 100.863 82.9517 100.814 82.9518Z" fill="#CACACA"/>
</g>
<defs>
<clipPath id="clip0_447_606">
<rect width="101" height="83" fill="white"/>
</clipPath>
</defs>
</svg>
