<svg width="80" height="85" viewBox="0 0 80 85" fill="none" xmlns="http://www.w3.org/2000/svg">
<g clip-path="url(#clip0_447_945)">
<path d="M79.9999 67.2703C80.0002 67.3101 79.9855 67.3486 79.9587 67.3779C79.946 67.3918 79.9306 67.403 79.9134 67.4106C79.8963 67.4182 79.8777 67.4222 79.8589 67.4223H0.140808C0.102456 67.4196 0.0665441 67.4024 0.0403204 67.3742C0.0140967 67.346 -0.000488281 67.3089 -0.000488281 67.2703C-0.000488281 67.2317 0.0140967 67.1946 0.0403204 67.1664C0.0665441 67.1381 0.102456 67.121 0.140808 67.1183H79.8589C79.8777 67.1184 79.8963 67.1224 79.9134 67.13C79.9306 67.1377 79.946 67.1488 79.9587 67.1627C79.9855 67.1921 80.0002 67.2305 79.9999 67.2703Z" fill="#F2F2F2"/>
<path d="M34.8804 60.7895C49.9962 60.7895 62.25 48.4928 62.25 33.3241C62.25 18.1553 49.9962 5.85864 34.8804 5.85864C19.7645 5.85864 7.51074 18.1553 7.51074 33.3241C7.51074 48.4928 19.7645 60.7895 34.8804 60.7895Z" fill="#2F2E41"/>
<path d="M58.431 33.3241C58.4337 37.0117 57.5753 40.6487 55.9246 43.9433C54.2739 47.2379 51.8768 50.0985 48.9255 52.2957C48.7282 52.4439 48.5271 52.5883 48.3246 52.7288C44.3781 55.4817 39.6868 56.9572 34.8804 56.9572C30.0741 56.9572 25.3827 55.4817 21.4362 52.7288C21.2338 52.5883 21.0326 52.4439 20.8353 52.2957C17.8861 50.0966 15.4905 47.2356 13.84 43.9414C12.1895 40.6473 11.3298 37.0113 11.3298 33.3241C11.3298 29.637 12.1895 26.001 13.84 22.7068C15.4905 19.4126 17.8861 16.5516 20.8353 14.3525C21.0326 14.2044 21.2338 14.06 21.4362 13.9195C25.3827 11.1666 30.0741 9.69109 34.8804 9.69109C39.6868 9.69109 44.3781 11.1666 48.3246 13.9195C48.5271 14.06 48.7282 14.2044 48.9255 14.3525C51.8768 16.5497 54.2739 19.4103 55.9247 22.7049C57.5754 25.9996 58.4338 29.6365 58.4311 33.3242L58.431 33.3241Z" fill="white"/>
<path d="M34.8803 54.9132C46.762 54.9132 56.3941 45.2474 56.3941 33.3241C56.3941 21.4007 46.762 11.7349 34.8803 11.7349C22.9985 11.7349 13.3665 21.4007 13.3665 33.3241C13.3665 45.2474 22.9985 54.9132 34.8803 54.9132Z" fill="#0052FB"/>
<path d="M34.944 10.2019C34.7585 10.2023 34.5806 10.2764 34.4494 10.4081C34.3182 10.5398 34.2443 10.7183 34.2439 10.9045V13.9704C34.2439 14.1567 34.3177 14.3354 34.449 14.4672C34.5803 14.5989 34.7583 14.6729 34.944 14.6729C35.1297 14.6729 35.3078 14.5989 35.4391 14.4672C35.5704 14.3354 35.6441 14.1567 35.6441 13.9704V10.9046C35.6438 10.7184 35.5699 10.5399 35.4387 10.4082C35.3074 10.2765 35.1296 10.2024 34.944 10.202V10.2019Z" fill="white"/>
<path d="M48.9255 14.3524C48.7282 14.2043 48.5271 14.0599 48.3246 13.9194C48.2032 13.9114 48.0818 13.9354 47.9724 13.9889C47.863 14.0425 47.7694 14.1237 47.7008 14.2247L45.981 16.7579C45.9286 16.8341 45.8917 16.92 45.8725 17.0106C45.8533 17.1011 45.8521 17.1946 45.8691 17.2857C45.886 17.3767 45.9207 17.4635 45.9712 17.541C46.0217 17.6186 46.0869 17.6853 46.1632 17.7374C46.2395 17.7896 46.3253 17.826 46.4157 17.8448C46.5061 17.8635 46.5992 17.8641 46.6898 17.8465C46.7805 17.829 46.8667 17.7936 46.9437 17.7425C47.0206 17.6914 47.0867 17.6255 47.1382 17.5486L48.8581 15.0154C48.9235 14.9193 48.9639 14.8083 48.9757 14.6925C48.9875 14.5767 48.9702 14.4598 48.9255 14.3524Z" fill="white"/>
<path d="M56.7394 25.9034C56.6696 25.731 56.5344 25.5935 56.3635 25.5212C56.1927 25.4489 56.0002 25.4476 55.8284 25.5176L52.9972 26.6712C52.827 26.7426 52.6917 26.8785 52.6207 27.0494C52.5498 27.2203 52.5489 27.4124 52.6184 27.584C52.6878 27.7555 52.822 27.8926 52.9916 27.9655C53.1612 28.0383 53.3527 28.041 53.5243 27.973L56.3555 26.8194C56.5272 26.7487 56.664 26.6127 56.736 26.441C56.808 26.2693 56.8092 26.076 56.7394 25.9034Z" fill="white"/>
<path d="M23.7798 16.7579L22.0599 14.2247C21.9914 14.1237 21.8978 14.0425 21.7884 13.9889C21.679 13.9354 21.5576 13.9114 21.4362 13.9194C21.2337 14.0599 21.0326 14.2043 20.8353 14.3524C20.7906 14.4598 20.7733 14.5767 20.7851 14.6925C20.7969 14.8083 20.8373 14.9193 20.9027 15.0154L22.6226 17.5486C22.7276 17.7014 22.8886 17.8062 23.0703 17.8402C23.2521 17.8743 23.4399 17.8348 23.5928 17.7303C23.7456 17.6259 23.8511 17.465 23.8861 17.2828C23.9212 17.1006 23.8829 16.9119 23.7798 16.7579Z" fill="white"/>
<path d="M16.7643 26.6711L13.9332 25.5175C13.7616 25.4495 13.5702 25.4522 13.4005 25.525C13.2309 25.5979 13.0968 25.735 13.0273 25.9065C12.9579 26.078 12.9587 26.2702 13.0296 26.4411C13.1006 26.612 13.2359 26.7479 13.4062 26.8193L16.2374 27.9729C16.409 28.0409 16.6004 28.0382 16.77 27.9654C16.9397 27.8925 17.0738 27.7554 17.1432 27.5839C17.2127 27.4123 17.2119 27.2202 17.1409 27.0493C17.07 26.8784 16.9346 26.7425 16.7643 26.6711Z" fill="white"/>
<path d="M34.944 51.975C34.7585 51.9754 34.5806 52.0495 34.4494 52.1812C34.3182 52.3129 34.2443 52.4914 34.2439 52.6776V55.7435C34.2439 55.9298 34.3177 56.1085 34.449 56.2402C34.5803 56.372 34.7583 56.446 34.944 56.446C35.1297 56.446 35.3078 56.372 35.4391 56.2402C35.5704 56.1085 35.6441 55.9298 35.6441 55.7435V52.6777C35.6438 52.4915 35.5699 52.313 35.4387 52.1813C35.3074 52.0496 35.1296 51.9754 34.944 51.975Z" fill="white"/>
<path d="M48.8581 51.6326L47.1382 49.0993C47.0867 49.0225 47.0206 48.9566 46.9437 48.9054C46.8667 48.8543 46.7805 48.8189 46.6898 48.8014C46.5992 48.7838 46.5061 48.7844 46.4157 48.8032C46.3253 48.8219 46.2395 48.8584 46.1632 48.9105C46.0869 48.9626 46.0217 49.0294 45.9712 49.1069C45.9207 49.1844 45.886 49.2712 45.8691 49.3623C45.8521 49.4533 45.8533 49.5468 45.8725 49.6374C45.8917 49.728 45.9286 49.8138 45.981 49.8901L47.7008 52.4233C47.7694 52.5242 47.863 52.6055 47.9724 52.659C48.0818 52.7126 48.2032 52.7366 48.3246 52.7286C48.5271 52.5881 48.7282 52.4438 48.9255 52.2956C48.9702 52.1882 48.9875 52.0713 48.9757 51.9555C48.9639 51.8397 48.9235 51.7287 48.8581 51.6326Z" fill="white"/>
<path d="M56.3549 39.829L53.5238 38.6754C53.3522 38.6073 53.1607 38.61 52.9911 38.6829C52.8215 38.7557 52.6873 38.8928 52.6179 39.0644C52.5484 39.2359 52.5493 39.428 52.6202 39.5989C52.6912 39.7699 52.8265 39.9058 52.9967 39.9771L55.8279 41.1307C55.9995 41.1988 56.191 41.1961 56.3606 41.1232C56.5302 41.0504 56.6644 40.9133 56.7338 40.7417C56.8033 40.5702 56.8024 40.3781 56.7315 40.2072C56.6605 40.0362 56.5252 39.9003 56.355 39.829H56.3549Z" fill="white"/>
<path d="M23.5952 48.9143C23.4417 48.8094 23.253 48.7701 23.0707 48.8048C22.8883 48.8395 22.7271 48.9456 22.6226 49.0995L20.9027 51.6327C20.8373 51.7288 20.7969 51.8398 20.7851 51.9556C20.7733 52.0714 20.7906 52.1883 20.8353 52.2957C21.0326 52.4439 21.2337 52.5883 21.4362 52.7287C21.5576 52.7367 21.679 52.7127 21.7884 52.6591C21.8978 52.6056 21.9914 52.5243 22.0599 52.4234L23.7798 49.8902C23.8315 49.8139 23.8678 49.7282 23.8866 49.6379C23.9053 49.5476 23.9061 49.4544 23.889 49.3638C23.8718 49.2732 23.837 49.1868 23.7866 49.1096C23.7362 49.0325 23.6712 48.9662 23.5952 48.9143Z" fill="white"/>
<path d="M17.1487 39.0612C17.0789 38.8889 16.9437 38.7514 16.7728 38.6791C16.602 38.6067 16.4095 38.6054 16.2377 38.6755L13.4065 39.8291C13.3205 39.8632 13.242 39.9141 13.1757 39.9788C13.1094 40.0435 13.0565 40.1208 13.0201 40.2061C12.9837 40.2915 12.9645 40.3832 12.9637 40.476C12.9628 40.5689 12.9803 40.661 13.0151 40.747C13.0499 40.833 13.1014 40.9112 13.1665 40.9771C13.2317 41.0431 13.3092 41.0954 13.3946 41.1311C13.48 41.1668 13.5716 41.1851 13.6641 41.1851C13.7566 41.185 13.8482 41.1666 13.9335 41.1308L16.7647 39.9772C16.9365 39.9067 17.0734 39.7706 17.1455 39.599C17.2175 39.4273 17.2188 39.234 17.1492 39.0613L17.1487 39.0612Z" fill="white"/>
<path d="M35.8525 32.9755C35.917 33.3595 35.8272 33.7536 35.6027 34.0713C35.3782 34.389 35.0373 34.6043 34.6547 34.6702L22.2305 36.7908C21.8479 36.8557 21.4553 36.7656 21.1389 36.5402C20.8225 36.3148 20.6083 35.9726 20.5432 35.5887C20.4781 35.2049 20.5676 34.8108 20.7919 34.4931C21.0162 34.1754 21.357 33.96 21.7394 33.8943L34.1637 31.7736C34.5464 31.7088 34.9391 31.799 35.2557 32.0243C35.5723 32.2496 35.7869 32.5917 35.8525 32.9755Z" fill="#090814"/>
<path d="M48.9288 46.7889C48.7503 46.969 48.5079 47.0707 48.2548 47.0717C48.0017 47.0727 47.7585 46.9729 47.5786 46.7942L34.204 33.478C34.0273 33.2984 33.9284 33.0561 33.9287 32.8037C33.929 32.5513 34.0286 32.3092 34.2057 32.1301C34.3828 31.9509 34.6233 31.8491 34.8748 31.8468C35.1263 31.8445 35.3685 31.9418 35.5489 32.1177L48.9236 45.4338C49.1031 45.6129 49.2045 45.8562 49.2055 46.1102C49.2065 46.3642 49.107 46.6083 48.9289 46.7888L48.9288 46.7889Z" fill="#090814"/>
<path d="M34.8803 34.9848C35.7943 34.9848 36.5352 34.2413 36.5352 33.3241C36.5352 32.4069 35.7943 31.6634 34.8803 31.6634C33.9663 31.6634 33.2253 32.4069 33.2253 33.3241C33.2253 34.2413 33.9663 34.9848 34.8803 34.9848Z" fill="#CCCCCC"/>
<path d="M23.4813 4.52736C20.941 8.53509 17.0652 11.1948 12.2853 12.942C12.1908 13.013 12.0833 13.0647 11.969 13.094C11.8547 13.1233 11.7357 13.1297 11.6189 13.1129C11.5021 13.0961 11.3897 13.0563 11.2882 12.9959C11.1867 12.9355 11.098 12.8556 11.0273 12.7609C8.43088 9.28201 9.01676 4.31005 12.4439 1.65179C13.2724 1.01022 14.2196 0.540187 15.2305 0.268981C16.2415 -0.00222529 17.2961 -0.0692029 18.3331 0.0719356C19.37 0.213074 20.3688 0.559517 21.2712 1.09115C22.1737 1.62279 22.9619 2.32902 23.5901 3.16886L23.662 3.26511C23.7327 3.35989 23.7842 3.46773 23.8134 3.58246C23.8426 3.6972 23.849 3.81659 23.8323 3.93381C23.8155 4.05103 23.7759 4.16379 23.7157 4.26565C23.6555 4.36751 23.5759 4.45648 23.4814 4.52746L23.4813 4.52736Z" fill="#2F2E41"/>
<path d="M46.1707 3.16886C46.7989 2.32905 47.5871 1.62284 48.4896 1.09122C49.392 0.559603 50.3907 0.213171 51.4277 0.0720331C52.4647 -0.0691045 53.5192 -0.00213473 54.5302 0.269054C55.5411 0.540243 56.4883 1.01025 57.3168 1.65179C60.7435 4.31036 61.3298 9.28201 58.7334 12.7609C58.6627 12.8556 58.574 12.9355 58.4725 12.9959C58.371 13.0563 58.2586 13.0961 58.1418 13.1129C58.025 13.1297 57.906 13.1233 57.7917 13.094C57.6774 13.0647 57.5699 13.013 57.4754 12.942C53.0381 11.2372 49.3992 8.28688 46.2794 4.52736C46.1849 4.45637 46.1053 4.36741 46.0451 4.26555C45.9849 4.16369 45.9453 4.05093 45.9285 3.93371C45.9118 3.81648 45.9182 3.6971 45.9474 3.58236C45.9766 3.46762 46.0281 3.35979 46.0988 3.26501L46.1707 3.16886Z" fill="#2F2E41"/>
<path d="M45.0572 57.1191C44.8955 57.2104 44.7763 57.3622 44.7259 57.5414C44.6754 57.7207 44.6978 57.9126 44.7881 58.0753L48.8289 65.3215C48.92 65.4832 49.0713 65.602 49.2495 65.6521C49.4278 65.7022 49.6186 65.6793 49.7801 65.5886C49.9417 65.4979 50.0608 65.3467 50.1116 65.168C50.1623 64.9894 50.1404 64.7978 50.0508 64.6353L46.01 57.3891C45.9191 57.2268 45.7678 57.1073 45.5892 57.0567C45.4106 57.0061 45.2193 57.0285 45.0572 57.1191Z" fill="#2F2E41"/>
<path d="M23.7508 57.3892L19.71 64.6354C19.6193 64.798 19.5967 64.9901 19.6472 65.1695C19.6977 65.3488 19.8171 65.5007 19.9791 65.5916C20.1412 65.6826 20.3326 65.7053 20.5113 65.6547C20.69 65.604 20.8414 65.4842 20.932 65.3216L24.9727 58.0754C25.0176 57.9949 25.0462 57.9063 25.057 57.8147C25.0678 57.723 25.0605 57.6302 25.0355 57.5414C25.0105 57.4526 24.9683 57.3696 24.9114 57.2972C24.8544 57.2247 24.7838 57.1642 24.7036 57.1192C24.6233 57.0741 24.535 57.0454 24.4437 57.0346C24.3524 57.0238 24.2599 57.0311 24.1714 57.0562C24.0829 57.0812 24.0002 57.1236 23.928 57.1807C23.8558 57.2379 23.7957 57.3087 23.7508 57.3892Z" fill="#2F2E41"/>
<path d="M49.6473 67.1769C50.8425 67.1769 51.8115 66.2046 51.8115 65.0052C51.8115 63.8058 50.8425 62.8335 49.6473 62.8335C48.4521 62.8335 47.4832 63.8058 47.4832 65.0052C47.4832 66.2046 48.4521 67.1769 49.6473 67.1769Z" fill="#2F2E41"/>
<path d="M51.1749 11.6073C52.3701 11.6073 53.3391 10.6349 53.3391 9.43553C53.3391 8.23612 52.3701 7.2638 51.1749 7.2638C49.9797 7.2638 49.0107 8.23612 49.0107 9.43553C49.0107 10.6349 49.9797 11.6073 51.1749 11.6073Z" fill="#2F2E41"/>
<path d="M34.753 6.49744C35.9483 6.49744 36.9172 5.52512 36.9172 4.32571C36.9172 3.12629 35.9483 2.15398 34.753 2.15398C33.5578 2.15398 32.5889 3.12629 32.5889 4.32571C32.5889 5.52512 33.5578 6.49744 34.753 6.49744Z" fill="#2F2E41"/>
<path d="M19.0951 11.3518C20.2903 11.3518 21.2592 10.3795 21.2592 9.18008C21.2592 7.98066 20.2903 7.00835 19.0951 7.00835C17.8998 7.00835 16.9309 7.98066 16.9309 9.18008C16.9309 10.3795 17.8998 11.3518 19.0951 11.3518Z" fill="#2F2E41"/>
<path d="M20.4955 67.1769C21.6907 67.1769 22.6596 66.2046 22.6596 65.0052C22.6596 63.8058 21.6907 62.8335 20.4955 62.8335C19.3002 62.8335 18.3313 63.8058 18.3313 65.0052C18.3313 66.2046 19.3002 67.1769 20.4955 67.1769Z" fill="#2F2E41"/>
<path d="M58.8276 74.5518L58.9132 74.7689H58.8276V74.5518Z" fill="#2F2E41"/>
<path d="M68.844 42.3871H66.4705V47.0107H68.844V42.3871Z" fill="#ED9DA0"/>
<path d="M64.7219 40.3187C64.7219 40.9076 64.896 41.4834 65.222 41.9731C65.5481 42.4628 66.0116 42.8445 66.5538 43.0699C67.096 43.2953 67.6927 43.3543 68.2684 43.2394C68.844 43.1245 69.3728 42.8409 69.7878 42.4244C70.2028 42.0079 70.4854 41.4773 70.6 40.8997C70.7145 40.322 70.6557 39.7233 70.4311 39.1791C70.2065 38.635 69.8262 38.1699 69.3382 37.8426C68.8502 37.5154 68.2765 37.3407 67.6896 37.3407C67.2999 37.3407 66.914 37.4177 66.5539 37.5674C66.1939 37.717 65.8667 37.9364 65.5911 38.2129C65.3156 38.4894 65.097 38.8177 64.9478 39.179C64.7987 39.5403 64.7219 39.9276 64.7219 40.3187Z" fill="#ED9DA0"/>
<path d="M63.0617 56.4461H68.87V62.8761L62.7573 62.1155L63.0617 56.4461Z" fill="#ED9DA0"/>
<path d="M62.644 78.0227C62.644 78.0227 62.891 78.5194 63.2292 79.1155C63.3615 79.3504 63.5089 79.6029 63.6599 79.8459C64.1947 80.7044 63.6599 83.4397 63.6599 83.4397L64.8302 83.6006L66.0005 83.0134L66.2146 81.0287V79.5779L64.8805 78.0805L64.2953 77.4323L62.644 78.0227Z" fill="#ED9DA0"/>
<path d="M56.9221 67.9912C56.9221 67.9912 59.7554 74.0522 59.6477 74.5889C59.5401 75.1255 61.3048 79.4168 61.3048 79.4168C61.7074 79.607 62.4471 79.3334 63.1446 78.9705C63.6706 78.6892 64.1787 78.3754 64.666 78.031L64.7689 77.9581L64.8309 77.9135L60.1802 64.9859L64.295 61.9574L64.5993 61.733L66.439 60.3706L60.8216 61.3899C60.8216 61.3899 60.6262 61.3652 59.5927 61.9454C59.0965 62.2238 58.4072 62.6406 57.4545 63.2678C54.5183 65.2021 56.9221 67.9912 56.9221 67.9912Z" fill="#2F2E41"/>
<g opacity="0.01">
<path d="M56.9218 67.9912C56.9218 67.9912 59.7551 74.0522 59.6475 74.5889C59.5398 75.1255 61.3046 79.4168 61.3046 79.4168C61.7071 79.607 62.4468 79.3334 63.1443 78.9705C63.6703 78.6892 64.1784 78.3754 64.6658 78.031L64.7687 77.9581L64.8307 77.9135L60.1799 64.9859L64.2947 61.9574L64.599 61.733L66.4388 60.3706L60.8213 61.3899C60.8213 61.3899 60.6259 61.3652 59.5925 61.9454C59.0962 62.2238 58.407 62.6406 57.4543 63.2678C54.5181 65.2021 56.9218 67.9912 56.9218 67.9912Z" fill="#090814"/>
</g>
<path d="M65.5296 79.0951C65.5296 79.0951 66.9199 78.8802 66.4377 81.1337C66.4377 81.1337 66.4168 83.7761 66.2236 84.1871C66.0304 84.5981 63.8713 85.1525 63.4979 84.7237C63.1246 84.295 63.8702 81.8826 63.8702 81.8826C63.8702 81.8826 64.5174 82.4854 65.1907 82.0005C65.864 81.5157 65.5296 79.0951 65.5296 79.0951Z" fill="#090814"/>
<path d="M66.4928 78.6662C66.6445 78.8111 66.7679 78.9832 66.8568 79.1735C66.9672 79.3891 67.0374 79.6231 67.0639 79.864C67.078 80.0472 67.1073 80.2293 67.1372 80.4104C67.2706 81.175 66.7592 83.4404 66.7592 83.4404L68.7907 83.7621L69.5385 82.9577L69.6988 81.1879C69.4992 80.5811 69.3911 79.9478 69.3781 79.309C69.3781 78.8474 69.1441 78.4352 68.9101 78.1346C68.7514 77.9339 68.5695 77.753 68.3683 77.5955C68.3683 77.5955 66.0644 78.2904 66.4928 78.6662Z" fill="#ED9DA0"/>
<path d="M59.9175 66.3823C59.9175 66.3823 61.2529 68.9037 62.1096 70.9954C62.6713 72.3694 63.8322 75.6413 64.5672 77.7246L64.6749 78.0323C64.9979 78.9542 65.2132 79.5779 65.2132 79.5779C65.3556 79.5788 65.4973 79.5578 65.6334 79.5156C65.7597 79.4815 65.9013 79.4357 66.0522 79.3789L66.2219 79.3143C66.3903 79.2485 66.573 79.1723 66.7473 79.0924C67.597 78.7119 68.5028 78.2163 68.8312 78.0355L68.9552 77.9662C68.3281 76.7052 67.8601 75.3707 67.5618 73.9935C67.0808 71.7411 65.4236 68.4738 65.4236 68.4738L65.2091 67.4006L69.2186 66.864C72.2391 65.349 70.7716 62.3626 69.9091 61.0366C69.762 60.8064 69.603 60.5841 69.4327 60.3706L66.225 61.0753C66.225 61.0753 65.7194 61.2374 64.5959 61.7365L64.0798 61.9714C63.4501 62.2614 62.6754 62.6348 61.7392 63.114C58.5818 64.7159 59.9175 66.3823 59.9175 66.3823Z" fill="#2F2E41"/>
<path d="M66.7797 83.2794C66.6654 83.4728 66.6107 83.6958 66.6224 83.9203C66.6341 84.1448 66.7118 84.3609 66.8457 84.5412C66.9795 84.7215 67.1636 84.858 67.3746 84.9336C67.5856 85.0091 67.8142 85.0203 68.0316 84.9657C68.6882 84.8026 69.4662 84.523 69.7004 84.0831C70.1276 83.2787 69.9146 79.9527 69.9146 79.9527L69.3528 79.1212C69.3528 79.1212 69.4261 80.5044 68.9622 81.5609C68.4983 82.6174 67.103 81.4552 67.103 81.4552L66.7797 83.2794Z" fill="#090814"/>
<path d="M47.9499 45.5674C48.0352 45.7014 48.1488 45.8151 48.2826 45.9003C48.4164 45.9856 48.5672 46.0403 48.7244 46.0607C48.8816 46.0811 49.0413 46.0667 49.1924 46.0185C49.3434 45.9703 49.4821 45.8894 49.5986 45.7816L52.9946 47.6077L52.8125 45.607L49.6154 44.1797C49.4219 43.9958 49.1679 43.8895 48.9015 43.8808C48.6351 43.8721 48.3747 43.9617 48.1697 44.1326C47.9647 44.3035 47.8291 44.5439 47.7887 44.8082C47.7483 45.0726 47.8059 45.3427 47.9505 45.5674H47.9499Z" fill="#ED9DA0"/>
<path d="M50.4241 46.2656L51.7548 44.4222L58.1656 47.4634L66.1431 45.9614C66.5375 45.8871 66.9433 45.9008 67.3317 46.0017C67.7201 46.1025 68.0817 46.2879 68.3907 46.5447C68.6997 46.8015 68.9486 47.1234 69.1196 47.4876C69.2907 47.8518 69.3797 48.2494 69.3804 48.652C69.381 49.3792 69.094 50.0769 68.5826 50.5921C68.0711 51.1073 67.3768 51.3978 66.6522 51.3999L57.5099 51.4169L50.4241 46.2656Z" fill="#0052FB"/>
<path d="M69.9666 62.6886C69.8759 62.6885 69.7867 62.6663 69.7065 62.6239L62.9476 57.8814L62.8545 57.499L62.6791 56.2889L62.1521 53.2521C62.138 53.2216 62.1087 53.1717 62.0755 53.1155C61.7335 52.534 60.6927 50.7642 62.6791 48.3275L66.1661 44.2474L69.1593 44.1181L69.1933 44.1613C69.9937 45.1694 70.5335 46.3603 70.7647 47.6282C70.9959 48.8961 70.9113 50.2017 70.5185 51.4289L70.2069 57.0774L70.5411 58.2181C70.7366 58.8885 70.7043 59.605 70.4493 60.2549L70.526 62.1021C70.5289 62.1778 70.5167 62.2533 70.49 62.3242C70.4632 62.395 70.4225 62.4598 70.3703 62.5145C70.3181 62.5693 70.2555 62.6129 70.1861 62.6428C70.1167 62.6727 70.0421 62.6883 69.9666 62.6886Z" fill="#0052FB"/>
<path d="M63.0006 66.9628C63.1371 66.8819 63.2542 66.7719 63.3437 66.6407C63.4333 66.5095 63.493 66.3601 63.5189 66.2032C63.5447 66.0463 63.5359 65.8856 63.4931 65.7325C63.4503 65.5793 63.3746 65.4375 63.2713 65.3169L65.2079 61.9752L63.2091 62.0883L61.6765 65.2447C61.4861 65.4323 61.371 65.6835 61.3529 65.9506C61.3347 66.2177 61.4148 66.4822 61.578 66.694C61.7412 66.9058 61.9762 67.0502 62.2384 67.0998C62.5005 67.1494 62.7717 67.1008 63.0006 66.9632V66.9628Z" fill="#ED9DA0"/>
<path d="M63.7612 64.8899L61.9717 63.4912L65.2234 57.1675L64.0049 49.1147C63.9447 48.7166 63.9725 48.3101 64.0864 47.9241C64.2003 47.538 64.3975 47.1818 64.664 46.8809C64.9306 46.5799 65.2599 46.3415 65.6285 46.1826C65.9972 46.0238 66.3962 45.9483 66.7972 45.9616C67.5214 45.9863 68.2063 46.2983 68.7016 46.8292C69.1968 47.36 69.462 48.0664 69.4389 48.7932L69.1379 57.9625L63.7612 64.8899Z" fill="#0052FB"/>
<path d="M66.2076 38.5916C65.8431 39.1851 66.1791 39.9667 66.6282 40.4987C67.0774 41.0306 67.6564 41.4975 67.8569 42.1649C68.0367 42.7639 67.8731 43.4088 67.6617 43.9967C67.4503 44.5847 67.1874 45.1709 67.1656 45.7955C67.1439 46.4201 66.9293 45.9603 67.5156 46.1712C68.1173 46.3876 68.8286 46.0475 69.4082 46.3183C70.1631 46.6707 70.3575 48.3738 71.1804 48.5003C71.6869 48.5782 72.1333 47.6542 72.2745 47.1601C72.4157 46.666 72.3144 46.1385 72.2117 45.6348C71.9313 44.2544 72.1602 44.0237 71.8798 42.6434L71.18 39.1977C71.0407 38.512 70.8755 37.7785 70.3619 37.305C69.7343 36.7264 68.7883 36.7128 67.9369 36.7474C67.1545 36.779 66.3407 36.833 65.6596 37.2203C64.9785 37.6076 64.6962 38.4482 64.9315 39.1974C65.1514 38.6701 65.5918 38.3578 66.1305 38.5438" fill="#090814"/>
</g>
<defs>
<clipPath id="clip0_447_945">
<rect width="80" height="85" fill="white"/>
</clipPath>
</defs>
</svg>
