<svg width="32" height="36" viewBox="0 0 32 36" fill="none" xmlns="http://www.w3.org/2000/svg">
<path d="M3.55556 36C2.57778 36 1.74104 35.6087 1.04533 34.826C0.34963 34.0433 0.00118519 33.1013 0 32V4C0 2.9 0.348445 1.95867 1.04533 1.176C1.74222 0.393333 2.57896 0.00133333 3.55556 0H28.4444C29.4222 0 30.2596 0.392 30.9564 1.176C31.6533 1.96 32.0012 2.90133 32 4V32C32 33.1 31.6521 34.042 30.9564 34.826C30.2607 35.61 29.4234 36.0013 28.4444 36H3.55556ZM3.55556 32H28.4444V4H3.55556V32ZM8.88889 28H17.7778C18.2815 28 18.704 27.808 19.0453 27.424C19.3867 27.04 19.5567 26.5653 19.5556 26C19.5544 25.4347 19.3837 24.96 19.0436 24.576C18.7034 24.192 18.2815 24 17.7778 24H8.88889C8.38518 24 7.96326 24.192 7.62311 24.576C7.28296 24.96 7.1123 25.4347 7.11111 26C7.10992 26.5653 7.28059 27.0407 7.62311 27.426C7.96563 27.8113 8.38755 28.0027 8.88889 28ZM8.88889 20H23.1111C23.6148 20 24.0373 19.808 24.3787 19.424C24.72 19.04 24.8901 18.5653 24.8889 18C24.8877 17.4347 24.717 16.96 24.3769 16.576C24.0367 16.192 23.6148 16 23.1111 16H8.88889C8.38518 16 7.96326 16.192 7.62311 16.576C7.28296 16.96 7.1123 17.4347 7.11111 18C7.10992 18.5653 7.28059 19.0407 7.62311 19.426C7.96563 19.8113 8.38755 20.0027 8.88889 20ZM8.88889 12H23.1111C23.6148 12 24.0373 11.808 24.3787 11.424C24.72 11.04 24.8901 10.5653 24.8889 10C24.8877 9.43467 24.717 8.96 24.3769 8.576C24.0367 8.192 23.6148 8 23.1111 8H8.88889C8.38518 8 7.96326 8.192 7.62311 8.576C7.28296 8.96 7.1123 9.43467 7.11111 10C7.10992 10.5653 7.28059 11.0407 7.62311 11.426C7.96563 11.8113 8.38755 12.0027 8.88889 12Z" fill="#999999"/>
</svg>
