<svg width="133" height="69" viewBox="0 0 133 69" fill="none" xmlns="http://www.w3.org/2000/svg">
<path d="M42.4301 10.1927C48.7263 11.6222 54.2451 15.2093 57.9253 20.2645C61.6055 25.3196 63.1874 31.4858 62.3668 37.5774C61.5461 43.6691 58.3809 49.2561 53.4796 53.2643C48.5784 57.2725 42.2872 59.4189 35.8157 59.2908C29.3442 59.1626 23.1492 56.769 18.4219 52.5702C13.6946 48.3713 10.7687 42.6637 10.2069 36.5446C9.64503 30.4256 11.4868 24.3272 15.3782 19.422C19.2695 14.5168 24.9357 11.1511 31.2872 9.97205L32.2039 14.4017C27.004 15.367 22.3653 18.1224 19.1795 22.1383C15.9937 26.1541 14.4859 31.1467 14.9458 36.1563C15.4058 41.1658 17.8012 45.8386 21.6713 49.2761C25.5415 52.7136 30.6132 54.6732 35.9113 54.7781C41.2095 54.883 46.3599 53.1258 50.3725 49.8444C54.3851 46.5629 56.9764 41.9889 57.6482 37.0018C58.3201 32.0146 57.025 26.9665 54.0121 22.8279C50.9992 18.6894 46.481 15.7527 41.3264 14.5823L42.4301 10.1927Z" fill="#0052FB"/>
<path d="M71.7956 34.3149L61.9894 39.7688L61.7666 29.2873L71.7956 34.3149Z" fill="#0052FB"/>
<path d="M37.2066 68.0152L31.9677 58.0543L42.3942 58.0272L37.2066 68.0152Z" fill="#0052FB"/>
<path d="M1.01384 34.4866L10.9803 29.3349L10.8862 39.8184L1.01384 34.4866Z" fill="#0052FB"/>
<rect x="20.3052" y="18.1034" width="31.9947" height="32.7768" rx="15.9973" fill="black"/>
<path d="M28.2148 23.7935L38.9576 32.2741L32.3715 37.0491L28.2148 23.7935Z" fill="white"/>
<path d="M29.8158 25.9817L37.7993 32.2635L32.886 35.8257L29.8158 25.9817Z" fill="#0052FB"/>
<path d="M43.0433 45.1786L32.3308 36.9794L38.9553 32.1218L43.0433 45.1786Z" fill="white"/>
<path d="M36.3025 0L38.3967 5.00227H34.2083L36.3025 0Z" fill="black"/>
<path d="M40.9977 5.52582L36.1556 7.76618L36.0758 3.47613L40.9977 5.52582Z" fill="black"/>
<path d="M31.7085 5.52556L36.639 3.4996L36.5412 7.78926L31.7085 5.52556Z" fill="black"/>
<path d="M36.3597 10.5068L34.2309 5.51987L38.4193 5.48946L36.3597 10.5068Z" fill="black"/>
<path d="M79.6652 25.2758V43.0155H75.9146V25.2758H79.6652ZM82.0754 28.3682V25.2758H96.6448V28.3682H91.2137V43.0155H87.5064V28.3682H82.0754Z" fill="black"/>
<path d="M98.8536 43.0155V40.7894L107.706 28.3682H98.8362V25.2758H112.418V27.502L103.557 39.9232H112.435V43.0155H98.8536ZM130.151 25.2758V43.0155H126.912L119.194 31.8503H119.064V43.0155H115.313V25.2758H118.605L126.262 36.4324H126.418V25.2758H130.151Z" fill="#0052FB"/>
</svg>
